<svg width="49" height="48" viewBox="0 0 49 48" fill="none" xmlns="http://www.w3.org/2000/svg">
<path opacity="0.6" d="M0.903809 9.59998L10.2213 44.3733L27.608 39.7146L22.9492 22.3279L40.3359 17.6692L35.6771 0.28249L0.903809 9.59998Z" fill="#3BEFFB"/>
<g clip-path="url(#clip0_151_526)">
<path d="M29.8381 10.3167C28.6389 8.96276 26.5931 8.27586 23.7586 8.27586C20.9117 8.27586 18.8618 8.96855 17.6634 10.3316C16.2615 11.9297 16.5057 13.92 16.5081 13.9399L16.5156 14.0483V18.6579L16.2425 18.9045C15.9454 19.1735 15.7815 19.5319 15.7815 19.9167V22.8505C15.7815 23.3148 16.0199 23.7451 16.4179 24.0025L16.7001 24.1854L16.7754 24.5131C17.4566 27.4767 19.24 29.6359 19.2574 29.6565L19.4502 29.8866V32.8684C19.4502 34.1503 18.7509 35.328 17.6262 35.9421L11.0825 39.5114C11.0552 39.5263 11.0287 39.5412 11.0022 39.5561C11.0208 39.5702 11.0391 39.5847 11.0573 39.5992C11.0755 39.6137 11.0937 39.6281 11.1123 39.6422C11.4748 39.9136 11.8463 40.1702 12.2237 40.4168C12.3404 40.493 12.4571 40.5683 12.5754 40.6427C12.9859 40.8993 13.403 41.1459 13.8292 41.3735C13.859 41.3893 13.8893 41.4046 13.9197 41.42C13.945 41.4328 13.9704 41.4456 13.9956 41.4588C14.9564 41.9594 15.952 42.389 16.9757 42.7365C17.0039 42.7465 17.032 42.7564 17.0601 42.7655C18.112 43.1181 19.192 43.3879 20.2902 43.5716C20.3 43.5731 20.31 43.5751 20.3201 43.5771C20.3313 43.5792 20.3426 43.5814 20.3539 43.5832C20.8728 43.6684 21.3959 43.7305 21.9205 43.7768C21.9879 43.7831 22.0558 43.7879 22.1238 43.7927C22.146 43.7943 22.1682 43.7959 22.1903 43.7975C22.7109 43.8364 23.2339 43.8621 23.7586 43.8621C24.2154 43.8621 24.5862 44.232 24.5862 44.6896C24.5862 45.1473 24.2154 45.5172 23.7586 45.5172C23.133 45.5172 22.5156 45.485 21.9023 45.4353C21.8651 45.432 21.8276 45.4293 21.7901 45.4266C21.7527 45.4239 21.7153 45.4212 21.6781 45.4179C21.064 45.3625 20.4582 45.2797 19.8599 45.1763C19.8349 45.1718 19.8102 45.1674 19.7854 45.163C19.7593 45.1583 19.7331 45.1536 19.7068 45.149C17.7777 44.8005 15.9321 44.2105 14.2033 43.4069C14.1839 43.3978 14.1644 43.3891 14.145 43.3804C14.1255 43.3717 14.1061 43.363 14.0866 43.3539C13.5553 43.1032 13.0372 42.8309 12.5299 42.5421C12.429 42.4841 12.328 42.4262 12.227 42.3674C11.7628 42.0927 11.3076 41.803 10.8648 41.4977C10.7316 41.4058 10.6 41.3106 10.4684 41.2154C10.0513 40.9142 9.64165 40.603 9.2469 40.2753C9.22372 40.2559 9.19951 40.2381 9.1753 40.2203C9.15109 40.2025 9.12689 40.1847 9.10372 40.1652L8.36634 39.5437L8.38786 39.5247C3.85021 35.3619 1 29.3876 1 22.7586C1 10.2099 11.2091 0 23.7586 0C36.3081 0 46.5172 10.2099 46.5172 22.7586C46.5172 23.2163 46.1465 23.5862 45.6897 23.5862C45.2328 23.5862 44.8621 23.2163 44.8621 22.7586C44.8621 11.1219 35.3953 1.65517 23.7586 1.65517C12.1219 1.65517 2.65517 11.1219 2.65517 22.7586C2.65517 28.9837 5.36634 34.5865 9.66814 38.4538C9.87503 38.3056 10.0811 38.1732 10.2905 38.059L16.8342 34.4896C17.4276 34.1652 17.7959 33.5445 17.7959 32.8692V30.4742C17.2861 29.8005 15.9073 27.8127 15.237 25.1868C14.5377 24.6132 14.1288 23.7633 14.1288 22.8521V19.9183C14.1288 19.2017 14.392 18.5048 14.8621 17.9578V14.0954C14.819 13.6668 14.6668 11.2419 16.4204 9.24248C17.9457 7.50207 20.4143 6.62069 23.7586 6.62069C27.1029 6.62069 29.5716 7.50207 31.0968 9.24331C32.8505 11.2428 32.6982 13.6659 32.6552 14.0963V17.9586C33.1252 18.5057 33.3884 19.2025 33.3884 19.9192V22.853C33.3884 24.1829 32.5269 25.3415 31.2441 25.7379C30.8063 25.8728 30.3445 25.627 30.2097 25.1909C30.0756 24.7539 30.3206 24.2905 30.7567 24.1556C31.341 23.9752 31.7341 23.4521 31.7341 22.853V19.9192C31.7341 19.5343 31.5702 19.1752 31.2731 18.907L31 18.6604L31.0074 13.9423L31.0075 13.9415C31.0128 13.8925 31.2269 11.8852 29.8381 10.3167Z" fill="#2E3436"/>
<path fill-rule="evenodd" clip-rule="evenodd" d="M39.069 36.4138C37.2433 36.4138 35.7586 37.8985 35.7586 39.7241C35.7586 41.2626 36.8179 42.547 38.2414 42.917V43.8621C38.2414 44.3197 38.6121 44.6896 39.069 44.6896C39.5258 44.6896 39.8966 44.3197 39.8966 43.8621V42.917C41.32 42.547 42.3793 41.2626 42.3793 39.7241C42.3793 37.8985 40.8946 36.4138 39.069 36.4138ZM39.069 41.3793C38.1561 41.3793 37.4138 40.637 37.4138 39.7241C37.4138 38.8113 38.1561 38.069 39.069 38.069C39.9818 38.069 40.7241 38.8113 40.7241 39.7241C40.7241 40.637 39.9818 41.3793 39.069 41.3793Z" fill="#2E3436"/>
<path fill-rule="evenodd" clip-rule="evenodd" d="M44.8621 33.1035V32.2759C44.8621 29.0822 42.2635 26.4828 39.069 26.4828C35.8745 26.4828 33.2759 29.0822 33.2759 32.2759V33.1035H29.9655V48H48.1724V33.1035H44.8621ZM34.931 32.2759C34.931 29.9942 36.7873 28.1379 39.069 28.1379C41.3506 28.1379 43.2069 29.9942 43.2069 32.2759V33.1035H34.931V32.2759ZM31.6207 46.3448V34.7586H46.5172V46.3448H31.6207Z" fill="#2E3436"/>
</g>
<defs>
<clipPath id="clip0_151_526">
<rect width="48" height="48" fill="white" transform="translate(1)"/>
</clipPath>
</defs>
</svg>
