<svg width="49" height="48" viewBox="0 0 49 48" fill="none" xmlns="http://www.w3.org/2000/svg">
<path opacity="0.6" d="M0.903809 9.59998L10.2213 44.3733L27.608 39.7146L22.9492 22.3279L40.3359 17.6692L35.6771 0.28249L0.903809 9.59998Z" fill="#3BEFFB"/>
<path fill-rule="evenodd" clip-rule="evenodd" d="M24.6354 23.594C23.0824 23.594 21.8235 24.8529 21.8235 26.4059C21.8235 27.9588 23.0824 29.2178 24.6354 29.2178C26.1884 29.2178 27.4473 27.9588 27.4473 26.4059C27.4473 24.8529 26.1884 23.594 24.6354 23.594ZM23.516 26.4059C23.516 25.7876 24.0172 25.2865 24.6354 25.2865C25.2536 25.2865 25.7548 25.7876 25.7548 26.4059C25.7548 27.0241 25.2536 27.5252 24.6354 27.5252C24.0172 27.5252 23.516 27.0241 23.516 26.4059Z" fill="#2E3436"/>
<path fill-rule="evenodd" clip-rule="evenodd" d="M17.9011 19.654H18.7209V18.3757L18.721 18.3731C18.7311 15.1066 21.3872 12.4668 24.6537 12.4769C27.9059 12.4869 30.5399 15.1209 30.5499 18.3731L30.5499 18.3757V19.654H31.3781C32.3566 19.654 33.1498 20.4472 33.1498 21.4257V31.3859C33.1498 32.3644 32.3566 33.1576 31.3781 33.1576H17.9011C16.9226 33.1576 16.1293 32.3643 16.1293 31.3857V21.4256C16.1293 20.4468 16.9229 19.654 17.9011 19.654ZM17.8218 21.4256C17.8218 21.3821 17.857 21.3465 17.9011 21.3465H19.5622L19.5672 21.3465L19.5722 21.3465H29.6986L29.7036 21.3465L29.7086 21.3465H31.3781C31.4219 21.3465 31.4573 21.3819 31.4573 21.4257V31.3859C31.4573 31.4296 31.4219 31.465 31.3781 31.465H17.9011C17.8573 31.465 17.8218 31.4295 17.8218 31.3857V21.4256ZM28.8573 19.654H20.4135V18.3771C20.4214 16.0459 22.3172 14.1622 24.6485 14.1694C26.9696 14.1766 28.8496 16.0561 28.8573 18.3771V19.654Z" fill="#2E3436"/>
<path fill-rule="evenodd" clip-rule="evenodd" d="M26.952 0.945133C25.6749 -0.315022 23.6232 -0.315044 22.3462 0.945067C18.2248 5.00786 12.8651 5.8105 8.06434 5.95867C6.07706 6.01262 4.45674 7.56753 4.31762 9.55039C3.92509 14.3423 3.89639 19.1571 4.23151 23.9534C4.23229 23.9645 4.23328 23.9755 4.23449 23.9866C5.47469 35.3093 13.3787 44.1602 24.3725 47.9537C24.5514 48.0154 24.7457 48.0154 24.9246 47.9537C35.9184 44.1602 43.8224 35.3093 45.0626 23.9866C45.0638 23.9756 45.0648 23.9645 45.0656 23.9535C45.4011 19.1573 45.3727 14.3424 44.9806 9.55042C44.8414 7.56753 43.2211 6.0126 41.2338 5.95867C36.4323 5.8105 31.0728 5.0083 26.952 0.945133ZM23.5347 2.15002C24.1527 1.54003 25.1453 1.54003 25.7633 2.15002C30.3596 6.68199 36.2793 7.49926 41.1833 7.65044L41.1869 7.65054C42.3035 7.68033 43.2157 8.55496 43.2924 9.67222L43.2932 9.68334C43.6784 14.3862 43.7068 19.1116 43.3783 23.8187C42.2233 34.3038 34.9578 42.5986 24.6486 46.2572C14.3393 42.5986 7.07386 34.3038 5.91876 23.8187C5.59071 19.1115 5.61943 14.3862 6.00492 9.6834L6.00576 9.67222C6.08245 8.55496 6.99467 7.68033 8.11132 7.65054L8.11483 7.65044C13.0184 7.49926 18.938 6.68142 23.5347 2.15002Z" fill="#2E3436"/>
</svg>
