<svg width="49" height="48" viewBox="0 0 49 48" fill="none" xmlns="http://www.w3.org/2000/svg">
<path opacity="0.6" d="M0.903809 9.59998L10.2213 44.3733L27.608 39.7146L22.9492 22.3279L40.3359 17.6692L35.6771 0.28249L0.903809 9.59998Z" fill="#3BEFFB"/>
<path d="M8.10001 14.4H18.5C18.9416 14.4 19.3 14.0424 19.3 13.6C19.3 13.1576 18.9416 12.8 18.5 12.8H8.10001C7.65841 12.8 7.30001 13.1576 7.30001 13.6C7.30001 14.0424 7.65841 14.4 8.10001 14.4Z" fill="#2E3436"/>
<path d="M8.10001 36.8H18.5C18.9416 36.8 19.3 37.1576 19.3 37.6C19.3 38.0424 18.9416 38.4 18.5 38.4H8.10001C7.65841 38.4 7.30001 38.0424 7.30001 37.6C7.30001 37.1576 7.65841 36.8 8.10001 36.8Z" fill="#2E3436"/>
<path d="M8.10001 19.2H31.3C31.7416 19.2 32.1 18.8424 32.1 18.4C32.1 17.9576 31.7416 17.6 31.3 17.6H8.10001C7.65841 17.6 7.30001 17.9576 7.30001 18.4C7.30001 18.8424 7.65841 19.2 8.10001 19.2Z" fill="#2E3436"/>
<path d="M27.3 28.8H8.10001C7.65841 28.8 7.30001 28.4424 7.30001 28C7.30001 27.5576 7.65841 27.2 8.10001 27.2H27.3C27.7416 27.2 28.1 27.5576 28.1 28C28.1 28.4424 27.7416 28.8 27.3 28.8Z" fill="#2E3436"/>
<path d="M23.3 32H8.10001C7.65841 32 7.30001 32.3576 7.30001 32.8C7.30001 33.2424 7.65841 33.6 8.10001 33.6H23.3C23.7416 33.6 24.1 33.2424 24.1 32.8C24.1 32.3576 23.7416 32 23.3 32Z" fill="#2E3436"/>
<path d="M19.3 24H8.10001C7.65841 24 7.30001 23.6424 7.30001 23.2C7.30001 22.7576 7.65841 22.4 8.10001 22.4H19.3C19.7416 22.4 20.1 22.7576 20.1 23.2C20.1 23.6424 19.7416 24 19.3 24Z" fill="#2E3436"/>
<path d="M31.3 22.4H25.7C25.2584 22.4 24.9 22.7576 24.9 23.2C24.9 23.6424 25.2584 24 25.7 24H31.3C31.7416 24 32.1 23.6424 32.1 23.2C32.1 22.7576 31.7416 22.4 31.3 22.4Z" fill="#2E3436"/>
<path d="M21.7 23.2C21.7 22.9912 21.78 22.7832 21.932 22.632C22.236 22.336 22.772 22.344 23.068 22.632C23.212 22.7832 23.3 22.9912 23.3 23.2C23.3 23.408 23.212 23.616 23.068 23.768C22.916 23.9192 22.708 24 22.5 24C22.292 24 22.084 23.9192 21.932 23.768C21.78 23.616 21.7 23.408 21.7 23.2Z" fill="#2E3436"/>
<path d="M35.7664 39.632L40.2432 33.2C40.496 32.8368 40.9936 32.7464 41.3568 33C41.72 33.2528 41.8088 33.7512 41.5568 34.1136L36.5856 41.2568C36.4576 41.44 36.2592 41.5616 36.0384 41.592C36.0016 41.5976 35.9648 41.6 35.9288 41.6C35.7448 41.6 35.5648 41.5368 35.4216 41.4184L31.5928 38.2752C31.2504 37.996 31.2008 37.4912 31.4816 37.1496C31.7616 36.8088 32.2664 36.7576 32.6072 37.0392L35.7664 39.632Z" fill="#2E3436"/>
<path fill-rule="evenodd" clip-rule="evenodd" d="M36.9 5.6V27.2408C42.2608 27.6512 46.5 32.1352 46.5 37.6C46.5 43.3344 41.8344 48 36.1 48C34.0728 48 32.1848 47.408 30.5832 46.4H3.3C2.8584 46.4 2.5 46.0424 2.5 45.6V5.6C2.5 5.1576 2.8584 4.8 3.3 4.8H9.7V3.2C9.7 2.7576 10.0584 2.4 10.5 2.4H15.3V0.8C15.3 0.3576 15.6584 0 16.1 0H23.3C23.7416 0 24.1 0.3576 24.1 0.8V2.4H28.9C29.3416 2.4 29.7 2.7576 29.7 3.2V4.8H36.1C36.5416 4.8 36.9 5.1576 36.9 5.6ZM22.5 1.6H16.9V4.8H22.5V1.6ZM15.3 4H11.3V7.2H28.1V4H24.1V5.6C24.1 6.0424 23.7416 6.4 23.3 6.4H16.1C15.6584 6.4 15.3 6.0424 15.3 5.6V4ZM4.1 6.4V44.8H28.5984C28.5029 44.7005 28.4145 44.5959 28.326 44.4911C28.2922 44.4511 28.2583 44.411 28.224 44.3712C28.2003 44.3437 28.1761 44.3167 28.1519 44.2897C28.1157 44.2492 28.0794 44.2086 28.0448 44.1664C27.8888 43.976 27.7448 43.7776 27.604 43.5776C27.583 43.5476 27.5614 43.5181 27.5398 43.4886C27.5097 43.4475 27.4796 43.4064 27.4512 43.364C27.3184 43.1656 27.1984 42.9608 27.08 42.7536C27.0626 42.7237 27.0448 42.694 27.027 42.6642C26.9949 42.6105 26.9627 42.5567 26.9328 42.5016C26.828 42.3048 26.7344 42.1024 26.6424 41.8992C26.6264 41.8645 26.61 41.8302 26.5935 41.7958C26.5606 41.727 26.5277 41.6581 26.4984 41.5872C26.4246 41.4106 26.362 41.2291 26.2994 41.048L26.2856 41.008C26.2707 40.9654 26.2552 40.9231 26.2397 40.8808C26.2096 40.7984 26.1795 40.7161 26.1536 40.632C26.1064 40.478 26.0689 40.3213 26.0314 40.1646C26.0231 40.13 26.0148 40.0954 26.0064 40.0608C25.9946 40.0123 25.9821 39.9642 25.9695 39.916C25.9463 39.8267 25.923 39.7374 25.9048 39.6464C25.87 39.4731 25.8464 39.2975 25.8228 39.1215C25.8181 39.0872 25.8135 39.0527 25.8088 39.0184C25.8019 38.9683 25.7939 38.9188 25.7858 38.8694C25.7732 38.7918 25.7606 38.7143 25.7528 38.6352C25.7184 38.2936 25.7 37.948 25.7 37.6C25.7 37.2496 25.7184 36.904 25.7544 36.5608C25.7615 36.4935 25.7721 36.4275 25.7828 36.3615C25.7903 36.3154 25.7977 36.2691 25.804 36.2224L25.8088 36.1861C25.8367 35.9734 25.8648 35.7602 25.9064 35.552C25.9232 35.4706 25.9439 35.3909 25.9647 35.3113C25.9775 35.2619 25.9905 35.2123 26.0024 35.1624L26.0235 35.0745C26.0633 34.9077 26.1031 34.7409 26.1528 34.5776C26.1822 34.4814 26.2164 34.3873 26.2506 34.2932C26.2648 34.2542 26.279 34.2151 26.2928 34.176L26.3082 34.1318C26.3654 33.9673 26.4227 33.8024 26.4888 33.6416C26.5275 33.5483 26.5703 33.4576 26.6131 33.367C26.6324 33.3263 26.6516 33.2857 26.6704 33.2448L26.7036 33.1735C26.7699 33.0308 26.8362 32.888 26.9096 32.7488C26.96 32.6543 27.0142 32.5624 27.0686 32.4702C27.0892 32.4351 27.1099 32.4001 27.1304 32.3648L27.1634 32.3088C27.2434 32.1731 27.3231 32.0379 27.4096 31.9064C27.4748 31.807 27.544 31.7111 27.6133 31.6152C27.6315 31.5899 27.6498 31.5646 27.668 31.5392C27.7712 31.396 27.8744 31.2536 27.9848 31.116C28.072 31.0064 28.1641 30.901 28.2566 30.7952L28.2569 30.7948L28.2768 30.772C28.392 30.64 28.508 30.5096 28.6296 30.384C28.7352 30.2752 28.844 30.1704 28.9536 30.0664C29.0792 29.9464 29.2072 29.8288 29.3392 29.7152C29.4544 29.616 29.5728 29.5208 29.6928 29.4264C29.8288 29.3192 29.9664 29.2152 30.108 29.1152C30.2328 29.0264 30.36 28.9408 30.4896 28.8576C30.6352 28.7632 30.7832 28.6736 30.9336 28.5872C31.0664 28.5104 31.2008 28.436 31.3376 28.3656C31.4928 28.2856 31.6504 28.2104 31.8104 28.1376C31.9512 28.0736 32.092 28.0112 32.2352 27.9536C32.3992 27.8872 32.5656 27.828 32.7336 27.7704C32.88 27.72 33.0264 27.6696 33.176 27.6256C33.3472 27.5752 33.5224 27.5328 33.6976 27.4912L33.7551 27.4775C33.8876 27.446 34.0195 27.4147 34.1544 27.3888C34.3323 27.3556 34.5142 27.331 34.6953 27.3064L34.7016 27.3056L34.742 27.2999C34.8822 27.2801 35.0225 27.2603 35.1648 27.2472C35.1861 27.2453 35.2071 27.2422 35.2281 27.2391C35.2519 27.2356 35.2757 27.2321 35.3 27.2304V6.4H29.7V8C29.7 8.4424 29.3416 8.8 28.9 8.8H10.5C10.0584 8.8 9.7 8.4424 9.7 8V6.4H4.1ZM31.2144 44.9144C32.6128 45.8512 34.2936 46.4 36.1 46.4C40.952 46.4 44.9 42.452 44.9 37.6C44.9 32.748 40.952 28.8 36.1 28.8C31.248 28.8 27.3 32.748 27.3 37.6C27.3 37.9408 27.3248 38.2784 27.3624 38.612C27.3699 38.6797 27.3809 38.7461 27.3919 38.8124C27.3974 38.8455 27.4029 38.8787 27.408 38.912C27.4432 39.1448 27.4848 39.376 27.5384 39.604C27.5648 39.7168 27.5944 39.8272 27.6248 39.9384C27.6848 40.1536 27.7536 40.3656 27.8288 40.5752C27.8392 40.604 27.8494 40.6329 27.8596 40.6616C27.8871 40.7391 27.9145 40.8162 27.9448 40.892C28.0416 41.1304 28.1504 41.3624 28.2672 41.5912C28.282 41.6201 28.2957 41.6498 28.3094 41.6796C28.326 41.7158 28.3427 41.7521 28.3616 41.7872C28.5104 42.0608 28.6768 42.3248 28.8536 42.5816C28.9057 42.6566 28.9611 42.7288 29.0166 42.801L29.0418 42.8339C29.0554 42.8516 29.0689 42.8694 29.0824 42.8872C29.2024 43.0464 29.3256 43.2032 29.4568 43.3536C29.5456 43.4552 29.636 43.5552 29.7296 43.6536C29.8752 43.8064 30.028 43.9536 30.1856 44.0968C30.2075 44.1171 30.2294 44.1375 30.2512 44.1579C30.3122 44.2149 30.3732 44.272 30.4368 44.3256C30.684 44.5336 30.9416 44.732 31.2144 44.9144Z" fill="#2E3436"/>
</svg>
