<svg width="32" height="32" viewBox="0 0 32 32" fill="none" xmlns="http://www.w3.org/2000/svg">
<path d="M16 0V16H0C0 24.8533 7.14667 32 16 32C24.8533 32 32 24.8533 32 16C32 7.14667 24.8533 0 16 0Z" fill="#2A5F9E"/>
<path d="M5.33203 5.3335H16.532V16.5335H5.33203V5.3335Z" fill="#2A5F9E"/>
<path d="M9.01443 3.25342V6.40008H5.12109L12.8011 16.0001H16.0011V12.0001L9.01443 3.25342Z" fill="white"/>
<path d="M4.8 9.01335H1.6C0.586667 11.1467 0 13.4933 0 16H6.4V6.34668H4.8V9.01335Z" fill="white"/>
<path d="M15.9981 13.387L9.06475 4.80029H5.86475L14.9314 16.0003H15.9981V13.387Z" fill="#ED4C5C"/>
<path d="M9.01265 1.6V4.8H4.79932V6.4H15.9993V0C13.4927 0 11.146 0.586667 9.01265 1.6Z" fill="white"/>
<path d="M15.9986 1.6001H9.01196C5.81196 3.14676 3.1453 5.81343 1.59863 9.01343V16.0001H4.79863V4.8001H15.9986V1.6001Z" fill="#ED4C5C"/>
<path d="M17.6007 10.7735L28.0007 10.7202V19.9469C28.0007 19.9469 28.374 21.3336 23.6274 23.4669C25.334 23.3069 27.1474 21.4936 27.1474 21.4936C27.1474 21.4936 27.894 20.5336 28.2674 21.0669C28.6407 21.6002 28.9607 21.8669 29.2274 22.0802C29.494 22.2936 29.7074 22.8802 29.2807 23.3069C28.854 23.7336 28.214 23.7869 28.054 23.2536C27.7874 23.4136 26.134 25.3869 22.7207 25.4936C19.254 25.4402 17.3874 23.2536 17.3874 23.2536C17.3874 23.2536 16.9074 24.0002 16.2674 23.4136C15.6274 22.6669 16.1074 22.1869 16.1074 22.1869C16.1074 22.1869 16.6407 21.8669 16.8007 21.6536C17.0674 21.3869 17.1207 20.9602 17.5474 20.9602C18.0274 21.0136 18.2407 21.3869 18.2407 21.3869C18.2407 21.3869 20.0007 23.2002 21.8674 23.4669C17.654 21.4402 17.494 20.2136 17.494 19.8935L17.6007 10.7735Z" fill="white"/>
<path d="M17.8647 10.9869L27.7847 10.9336V19.8403C27.7847 21.0136 25.8647 22.1869 22.8247 23.6803C19.6781 22.0803 17.8647 21.0669 17.8647 19.8403V10.9869Z" fill="#006129"/>
<path d="M18.9871 12.3202L19.1471 12.0002L18.9338 11.4136L18.8271 12.3202H18.9871Z" fill="url(#paint0_linear_363_515)"/>
<path d="M18.9887 14.0263L19.0954 13.7063L18.9354 13.1196L18.7754 14.0263H18.9887Z" fill="url(#paint1_linear_363_515)"/>
<path d="M18.9887 15.7333L19.0954 15.36L18.8821 14.8267L18.7754 15.7333H18.9887Z" fill="url(#paint2_linear_363_515)"/>
<path d="M20.0526 17.5468L20.2126 17.2268L19.9992 16.6401L19.8926 17.5468H20.0526Z" fill="url(#paint3_linear_363_515)"/>
<path d="M18.8256 19.04L18.9323 18.72L18.7723 18.1333L18.6123 19.04H18.8256Z" fill="url(#paint4_linear_363_515)"/>
<path d="M18.828 20.7997L18.988 20.4797L18.7746 19.8931L18.668 20.7997H18.828Z" fill="url(#paint5_linear_363_515)"/>
<path d="M25.0667 12.3201L25.2267 12.0001L25.0134 11.4668L24.9067 12.3201H25.0667Z" fill="url(#paint6_linear_363_515)"/>
<path d="M25.015 14.0263L25.175 13.7063L24.9616 13.1196L24.855 14.0263H25.015Z" fill="url(#paint7_linear_363_515)"/>
<path d="M24.9609 15.7333L25.0676 15.4133L24.9076 14.8267L24.7476 15.7333H24.9609Z" fill="url(#paint8_linear_363_515)"/>
<path d="M25.015 17.4399L25.175 17.1199L24.9616 16.5332L24.855 17.4399H25.015Z" fill="url(#paint9_linear_363_515)"/>
<path d="M25.0127 19.1469L25.1193 18.7736L24.9593 18.2402L24.7993 19.1469H25.0127Z" fill="url(#paint10_linear_363_515)"/>
<path d="M25.015 20.8001L25.175 20.4801L24.9616 19.9468L24.855 20.8001H25.015Z" fill="url(#paint11_linear_363_515)"/>
<path d="M22.5614 11.9467C22.6147 12.16 22.4014 12.2667 22.4014 12.3734C22.4014 12.5334 22.4547 12.8 22.668 12.8534C22.988 12.96 22.7214 13.28 22.6147 13.5467C22.9347 13.4934 23.308 13.4934 23.628 13.44C23.308 12.96 23.3614 12.5867 23.3614 12.0534C23.3614 11.68 22.508 11.52 22.5614 11.9467Z" fill="#FFC6B5"/>
<path d="M22.3993 13.4399C21.9726 13.6533 22.026 14.2933 21.9726 14.7199C21.9193 15.0399 21.4393 15.4133 21.2793 15.6799C21.066 15.9999 20.7993 16.2133 20.7993 16.5866C20.7993 17.2266 21.1193 16.9066 21.2793 16.5333C21.386 16.2666 21.1193 16.2133 21.4393 15.9999C21.706 15.7866 22.186 15.5733 22.2926 15.2533C22.4526 14.7733 22.346 13.9733 22.3993 13.4399Z" fill="#FFC6B5"/>
<path d="M22.7727 13.1196C22.9861 13.5463 23.1994 13.1196 23.4661 13.1196C23.7327 13.1196 23.8927 13.333 24.0527 13.5463C24.3194 13.8663 23.9461 13.813 23.7861 14.0796C23.6261 14.3463 23.9461 14.8263 23.7861 15.0396C23.6261 15.1996 23.7861 15.9996 23.7327 16.2663C23.7327 16.693 23.7327 17.013 23.8394 17.4396C24.0527 18.3996 24.2127 19.1996 24.4794 20.1063C24.5327 20.3196 24.4794 20.5863 24.5327 20.7996C24.5861 21.013 24.7994 21.2796 24.4261 21.2796C24.2661 21.2796 24.2661 21.3863 24.1594 21.333H23.7861C23.8927 21.333 23.3061 21.5463 23.4127 21.3863C23.3061 21.493 23.4661 21.7063 23.1461 21.5996C23.0394 21.5463 23.0927 21.173 22.8794 21.2796C22.9327 21.2796 23.0394 21.4396 22.9327 21.493C22.7194 21.653 22.6661 21.2796 22.4527 21.333C22.3461 21.333 21.7061 21.5996 21.7061 21.333C21.7061 20.7463 21.8661 20.2663 21.8661 19.6263V19.3596C21.8661 19.3063 21.7061 19.3063 21.7061 19.1996C21.7061 18.933 21.7594 18.6663 21.8127 18.3996C21.8661 17.813 21.9727 17.2263 22.0794 16.693H21.9727C21.8661 16.213 22.2394 15.4663 22.2394 14.933C22.2394 14.5596 21.7594 14.3463 22.0794 13.973C22.2927 13.7063 22.3461 13.2263 22.7727 13.1196Z" fill="white"/>
<path d="M24.1068 13.7598C24.3735 13.7598 24.4268 15.4664 24.3202 15.6798C24.1068 15.9998 23.9468 16.3198 23.7868 16.6398C23.6802 16.8531 23.7868 17.1198 23.7335 17.2798C23.5735 17.7598 23.0402 17.2264 23.3068 16.8531C23.4668 16.6398 23.5735 16.2664 23.6802 15.9998C23.8402 15.6798 24.0535 15.3598 23.8935 14.9864C23.6802 14.6131 23.5202 13.9198 24.1068 13.7598Z" fill="#FFC6B5"/>
<path d="M22.5591 11.8932C23.0924 11.8399 23.6258 13.2799 23.7858 12.6932C24.2658 11.1465 22.2924 11.4132 22.5591 11.8932Z" fill="#9C5100"/>
<path d="M19.1485 12.5868C19.3618 12.9068 19.3085 12.6401 19.3085 12.9601H20.2151C20.2151 12.9068 20.1618 12.8001 20.1085 12.7468C20.4818 12.6935 20.5351 12.2668 20.8551 12.2135L20.6418 12.3735C20.4285 12.6401 20.6418 12.6935 20.6418 12.4801C20.6418 12.3201 21.0151 12.3735 20.9618 12.1068C20.8551 11.9468 20.4818 12.1601 20.3751 12.2135C20.0018 12.4268 19.7351 11.8401 19.5218 12.1601C19.4151 12.3201 18.8285 12.2135 18.6685 12.2135C18.8285 12.4801 18.9351 12.5335 19.1485 12.5868Z" fill="#F7C600"/>
<path d="M19.0923 14.2934C19.3056 14.6134 19.2523 14.2934 19.2523 14.6667H20.159C20.159 14.6134 20.1056 14.5067 20.0523 14.4534C20.4256 14.4 20.479 13.9734 20.799 13.92L20.5856 14.08C20.3723 14.3467 20.5856 14.4 20.5856 14.1867C20.5856 14.0267 20.959 14.08 20.9056 13.8134C20.799 13.6534 20.4256 13.8667 20.319 13.92C19.9456 14.1334 19.679 13.5467 19.4656 13.8667C19.359 14.0267 18.7723 13.92 18.6123 13.92C18.7723 14.24 18.9323 14.2934 19.0923 14.2934Z" fill="#F7C600"/>
<path d="M19.0923 15.9999C19.3056 16.2666 19.2523 16.0532 19.2523 16.3732H20.159C20.159 16.3199 20.1056 16.2132 20.0523 16.1599C20.4256 16.1066 20.479 15.6799 20.799 15.6266L20.5856 15.7866C20.4256 16.0532 20.5856 16.1066 20.5856 15.8932C20.5856 15.7332 20.959 15.7866 20.9056 15.5199C20.799 15.3599 20.4256 15.5732 20.319 15.6266C19.9456 15.8399 19.679 15.2532 19.4656 15.5732C19.359 15.7332 18.7723 15.6266 18.6123 15.6266C18.7723 15.8932 18.9323 15.9466 19.0923 15.9999Z" fill="#F7C600"/>
<path d="M20.8523 17.3335C20.639 17.3335 20.639 17.5468 20.3723 17.5468H19.7856C19.839 17.6535 19.839 17.7068 19.999 17.7602C20.319 17.8668 20.3723 17.8668 20.3723 18.1868H21.279C21.279 18.1335 21.2256 18.0268 21.1723 17.9735C21.5456 17.9202 21.599 17.4935 21.919 17.4402L21.5456 17.7602C21.439 17.9735 21.9723 17.6002 22.0256 17.4935C22.1856 17.1735 21.5456 17.4402 21.4923 17.4935C21.1723 17.7068 21.119 17.3335 20.8523 17.3335Z" fill="#F7C600"/>
<path d="M18.9854 19.3065C19.1987 19.6265 19.1454 19.3599 19.1454 19.6799H20.052C20.052 19.6265 19.9987 19.5199 19.9454 19.4665C20.3187 19.4132 20.372 18.9865 20.692 18.9332L20.4787 19.0932C20.2654 19.3599 20.4787 19.4132 20.4787 19.1999C20.4787 19.0399 20.852 19.0932 20.7987 18.8265C20.692 18.6665 20.3187 18.8799 20.212 18.9332C19.8387 19.1465 19.572 18.5599 19.3587 18.8799C19.252 19.0399 18.6654 18.9332 18.5054 18.9332C18.612 19.2532 18.772 19.3065 18.9854 19.3065Z" fill="#F7C600"/>
<path d="M20.532 20.907C20.372 21.0137 20.4254 21.2804 20.4787 21.1737C20.5854 21.0137 20.5854 21.0137 20.7454 20.907C21.2787 20.5337 20.212 20.8537 20.1587 20.8004C19.9454 20.8004 19.892 20.8537 19.732 20.6937C19.4654 20.427 19.5187 20.8004 19.3587 20.8004C19.092 20.8537 18.772 20.8004 18.5054 20.8004C18.5587 20.907 18.5587 20.9604 18.7187 21.0137C19.0387 21.1204 19.092 21.1204 19.092 21.4404H19.9987C19.9987 21.387 19.9454 21.2804 19.892 21.227C20.2654 21.1737 20.3187 20.747 20.6387 20.6937C20.7987 20.747 20.532 20.907 20.532 20.907Z" fill="#F7C600"/>
<path d="M25.2276 12.5869C25.4409 12.9069 25.3876 12.5869 25.3876 12.9603H26.2942C26.2942 12.9069 26.2409 12.8003 26.1876 12.7469C26.5609 12.6936 26.6142 12.2669 26.9342 12.2136L26.7209 12.3736C26.5076 12.6403 26.7209 12.6936 26.7209 12.4803C26.7209 12.3203 27.0942 12.3736 27.0409 12.1069C26.9342 11.8936 26.5609 12.1603 26.4542 12.2136C26.0809 12.4269 25.8142 11.8403 25.6009 12.1603C25.4942 12.3203 24.9076 12.2136 24.7476 12.2136C24.8542 12.5336 25.0142 12.5869 25.2276 12.5869Z" fill="#F7C600"/>
<path d="M25.1724 14.2934C25.3857 14.6134 25.3324 14.3467 25.3324 14.6667H26.239C26.239 14.6134 26.1857 14.5067 26.1324 14.4534C26.5057 14.4 26.5591 13.9734 26.8791 13.92L26.6657 14.08C26.4524 14.3467 26.6657 14.4 26.6657 14.1867C26.6657 14.0267 27.039 14.08 26.9857 13.8134C26.879 13.6534 26.5057 13.8667 26.399 13.92C26.0257 14.1334 25.7591 13.5467 25.5457 13.8667C25.4924 14.0267 24.8524 13.92 24.6924 13.92C24.799 14.24 24.9591 14.24 25.1724 14.2934Z" fill="#F7C600"/>
<path d="M25.0689 15.9999C25.2822 16.3199 25.2289 16.0532 25.2289 16.3732H26.1355C26.1355 16.3199 26.0822 16.2132 26.0289 16.1599C26.4022 16.1066 26.4555 15.6799 26.7755 15.6266L26.5622 15.7866C26.3489 16.0532 26.5622 16.1066 26.5622 15.8932C26.5622 15.7332 26.9355 15.7866 26.8822 15.5199C26.7755 15.3599 26.4022 15.5732 26.2955 15.6266C25.9222 15.8399 25.6555 15.2532 25.4422 15.5732C25.3355 15.7332 24.7489 15.6266 24.5889 15.6266C24.7489 15.9466 24.9089 15.9999 25.0689 15.9999Z" fill="#F7C600"/>
<path d="M27.0393 17.3337C26.9327 17.1204 26.5593 17.4404 26.4526 17.4404H26.1326C25.9726 17.4404 26.026 17.2271 25.866 17.2271C25.6526 17.2271 25.6526 17.4404 25.386 17.4404H24.7993C24.8526 17.5471 24.8527 17.6004 25.0127 17.6537C25.3327 17.7604 25.386 17.7604 25.386 18.0804H26.2926C26.2926 18.0271 26.2393 17.9204 26.186 17.8671C26.5593 17.8137 26.6127 17.3871 26.9327 17.3337C26.9327 17.3337 26.4527 17.6537 26.6127 17.7604C26.6127 17.8137 27.0927 17.4404 27.0393 17.3337Z" fill="#F7C600"/>
<path d="M26.6668 19.2532C26.5068 19.3599 26.5601 19.6265 26.6135 19.5199C26.7201 19.3599 26.7201 19.3599 26.8801 19.2532C27.4135 18.8799 26.3468 19.1465 26.2935 19.1465C26.0801 19.1465 26.0268 19.1999 25.8668 19.0399C25.6001 18.7732 25.6535 19.1465 25.4935 19.1465C25.2268 19.1999 24.9068 19.1465 24.6401 19.1465C24.6935 19.2532 24.6935 19.3065 24.8535 19.3599C25.1735 19.4665 25.2268 19.4665 25.2268 19.7865H26.1335C26.1335 19.7332 26.0801 19.6265 26.0268 19.5732C26.4001 19.5199 26.4535 19.0932 26.7735 19.0399C26.9868 19.0932 26.6668 19.2532 26.6668 19.2532Z" fill="#F7C600"/>
<path d="M26.719 20.9601C26.559 21.0668 26.6124 21.3335 26.6657 21.2268C26.7724 21.0668 26.7724 21.0668 26.9324 20.9601C27.4657 20.5868 26.3991 20.9068 26.3457 20.9068C26.1324 20.9068 26.079 20.9601 25.919 20.8001C25.6524 20.5335 25.7057 20.9068 25.5457 20.9068C25.2791 20.9601 24.959 20.9068 24.6924 20.9068C24.7457 21.0135 24.7457 21.0668 24.9057 21.1201C25.2257 21.2268 25.2791 21.2268 25.2791 21.5468H26.1857C26.1857 21.4935 26.1324 21.3868 26.0791 21.3335C26.4524 21.2801 26.5057 20.8535 26.8257 20.8001C26.9857 20.8001 26.719 20.9601 26.719 20.9601Z" fill="#F7C600"/>
<path d="M23.9486 21.8137C24.2153 21.4937 24.1086 21.3337 24.1086 21.3337L23.4686 21.0137L23.3086 21.387L23.4153 21.6003C23.4153 21.6003 23.6286 22.187 23.9486 21.8137Z" fill="#F7C600"/>
<path d="M21.9202 21.8671C22.0269 21.8671 22.6669 21.4937 22.6669 21.4937L22.6136 21.3871L22.4002 21.2271C22.4002 21.2271 21.7069 21.4937 21.7602 21.4404C21.7069 21.4937 21.8669 21.8671 21.9202 21.8671Z" fill="#F7C600"/>
<path d="M29.2789 22.4003C28.7456 22.1869 28.3189 21.2803 27.9989 21.2269C27.6789 21.1736 27.3056 21.7069 27.3056 21.7069C27.3056 21.7069 25.5456 23.7336 22.7722 23.7869C20.2656 23.9469 18.0256 21.3869 18.0256 21.3869C18.0256 21.3869 17.6522 21.0669 17.4922 21.2269C17.3856 21.6003 16.5322 22.2403 16.5322 22.2403C16.5322 22.2403 16.1589 22.4536 16.2122 22.7736C16.2656 23.0936 16.7456 23.4136 16.8522 23.4669C16.9589 23.4669 17.2256 23.2536 17.2256 23.2536L17.4389 23.0403C17.4389 23.0403 19.8922 25.3869 22.8256 25.3336C25.6522 25.4403 28.1589 23.0403 28.1589 23.0403C28.1589 23.0403 28.3189 22.9869 28.3722 23.3069C28.4256 23.6269 28.9589 23.4136 29.0656 23.3069C29.2256 23.2003 29.5456 22.8269 29.2789 22.4003Z" fill="#F7C600"/>
<defs>
<linearGradient id="paint0_linear_363_515" x1="108.664" y1="-596.482" x2="108.333" y2="-596.531" gradientUnits="userSpaceOnUse">
<stop stop-color="#FF0000"/>
<stop offset="1" stop-color="#FFFF00"/>
</linearGradient>
<linearGradient id="paint1_linear_363_515" x1="108.43" y1="-593.194" x2="108.1" y2="-593.243" gradientUnits="userSpaceOnUse">
<stop stop-color="#FF0000"/>
<stop offset="1" stop-color="#FFFF00"/>
</linearGradient>
<linearGradient id="paint2_linear_363_515" x1="108.741" y1="-594.006" x2="108.411" y2="-594.055" gradientUnits="userSpaceOnUse">
<stop stop-color="#FF0000"/>
<stop offset="1" stop-color="#FFFF00"/>
</linearGradient>
<linearGradient id="paint3_linear_363_515" x1="109.691" y1="-590.956" x2="109.361" y2="-591.004" gradientUnits="userSpaceOnUse">
<stop stop-color="#FF0000"/>
<stop offset="1" stop-color="#FFFF00"/>
</linearGradient>
<linearGradient id="paint4_linear_363_515" x1="108.462" y1="-589.4" x2="108.132" y2="-589.449" gradientUnits="userSpaceOnUse">
<stop stop-color="#FF0000"/>
<stop offset="1" stop-color="#FFFF00"/>
</linearGradient>
<linearGradient id="paint5_linear_363_515" x1="108.435" y1="-587.104" x2="108.105" y2="-587.153" gradientUnits="userSpaceOnUse">
<stop stop-color="#FF0000"/>
<stop offset="1" stop-color="#FFFF00"/>
</linearGradient>
<linearGradient id="paint6_linear_363_515" x1="114.94" y1="-597.852" x2="114.608" y2="-597.9" gradientUnits="userSpaceOnUse">
<stop stop-color="#FF0000"/>
<stop offset="1" stop-color="#FFFF00"/>
</linearGradient>
<linearGradient id="paint7_linear_363_515" x1="114.323" y1="-592.216" x2="113.992" y2="-592.265" gradientUnits="userSpaceOnUse">
<stop stop-color="#FF0000"/>
<stop offset="1" stop-color="#FFFF00"/>
</linearGradient>
<linearGradient id="paint8_linear_363_515" x1="114.625" y1="-593.157" x2="114.294" y2="-593.206" gradientUnits="userSpaceOnUse">
<stop stop-color="#FF0000"/>
<stop offset="1" stop-color="#FFFF00"/>
</linearGradient>
<linearGradient id="paint9_linear_363_515" x1="115.224" y1="-594.65" x2="114.892" y2="-594.699" gradientUnits="userSpaceOnUse">
<stop stop-color="#FF0000"/>
<stop offset="1" stop-color="#FFFF00"/>
</linearGradient>
<linearGradient id="paint10_linear_363_515" x1="114.618" y1="-589.32" x2="114.288" y2="-589.369" gradientUnits="userSpaceOnUse">
<stop stop-color="#FF0000"/>
<stop offset="1" stop-color="#FFFF00"/>
</linearGradient>
<linearGradient id="paint11_linear_363_515" x1="114.411" y1="-585.867" x2="114.08" y2="-585.916" gradientUnits="userSpaceOnUse">
<stop stop-color="#FF0000"/>
<stop offset="1" stop-color="#FFFF00"/>
</linearGradient>
</defs>
</svg>
