<svg width="33" height="32" viewBox="0 0 33 32" fill="none" xmlns="http://www.w3.org/2000/svg">
<path d="M16.5 32C25.3366 32 32.5 24.8366 32.5 16C32.5 7.16344 25.3366 0 16.5 0C7.66344 0 0.5 7.16344 0.5 16C0.5 24.8366 7.66344 32 16.5 32Z" fill="#F0F0F0"/>
<path d="M32.5 16C32.5 9.65658 28.8085 4.17559 23.4565 1.58759V30.4123C28.8085 27.8243 32.5 22.3433 32.5 16Z" fill="#D80027"/>
<path d="M0.5 16C0.5 22.3433 4.19156 27.8243 9.5435 30.4123V1.58759C4.19156 4.17559 0.5 9.65658 0.5 16Z" fill="#D80027"/>
<path d="M19.2824 18.0869L22.0649 16.6956L20.6737 16V14.6087L17.8911 16L19.2824 13.2174H17.8911L16.4998 11.1304L15.1084 13.2174H13.7171L15.1084 16L12.3258 14.6087V16L10.9346 16.6956L13.7171 18.0869L13.0215 19.4782H15.8041V21.5652H17.1954V19.4782H19.978L19.2824 18.0869Z" fill="#D80027"/>
</svg>
