<svg width="32" height="32" viewBox="0 0 32 32" fill="none" xmlns="http://www.w3.org/2000/svg">
<path d="M5.3335 5.3335H16.3202V16.3202H5.3335V5.3335Z" fill="#2A5F9E"/>
<path d="M9.01296 3.25342V6.40008H5.11963L12.7996 16.0001H15.9996V12.0001L9.01296 3.25342Z" fill="white"/>
<path d="M16 0V16H0C0 24.8533 7.14667 32 16 32C24.8533 32 32 24.8533 32 16C32 7.14667 24.8533 0 16 0Z" fill="#2A5F9E"/>
<path d="M4.8 9.01335H1.6C0.586667 11.1467 0 13.4933 0 16H6.4V6.34668H4.8V9.01335Z" fill="white"/>
<path d="M16 13.3865L9.0667 4.7998H5.8667L14.9334 15.9998H16V13.3865Z" fill="#ED4C5C"/>
<path d="M9.01363 1.6V4.8H4.80029V6.4H16.0003V0C13.4936 0 11.147 0.586667 9.01363 1.6Z" fill="white"/>
<path d="M16.0001 1.6001H9.01343C5.81343 3.14676 3.14676 5.81343 1.6001 9.01343V16.0001H4.8001V4.8001H16.0001V1.6001Z" fill="#ED4C5C"/>
<path d="M19.1465 14.1333V20.3733C19.1465 21.0133 19.6798 21.28 20.2665 21.4933L22.5598 22.4L24.7998 21.4933C25.3865 21.28 25.9198 20.96 25.9198 20.3733V14.1333H19.1465Z" fill="white"/>
<path d="M25.9732 18.6666C25.9732 18.6666 25.2798 18.1866 24.2665 18.1866C23.3065 18.1866 23.1465 18.6666 22.5598 18.6666C21.8665 18.6666 21.8665 18.1866 20.8531 18.1866C19.8398 18.1866 19.1465 18.6666 19.1465 18.6666V17.7066C19.1465 17.7066 19.8398 17.2266 20.8531 17.2266C21.8665 17.2266 21.8665 17.7066 22.5598 17.7066C23.1465 17.7066 23.2531 17.2266 24.2665 17.2266C25.2265 17.2266 25.9732 17.7066 25.9732 17.7066V18.6666Z" fill="#42ADE2"/>
<path d="M19.1465 13.5469V16.7469C19.1465 16.7469 19.8398 15.9469 20.8531 15.9469C21.8665 15.9469 21.8665 16.7469 22.5598 16.7469C23.1465 16.7469 23.2531 15.9469 24.2665 15.9469C25.2265 15.9469 25.9732 16.7469 25.9732 16.7469V13.5469H19.1465Z" fill="#ED4C5C"/>
<path d="M25.9732 20.3734C25.9732 20.3734 25.2798 19.9467 24.2665 19.9467C23.3065 19.9467 23.1465 20.3734 22.5598 20.3734C21.8665 20.3734 21.8665 19.9467 20.8531 19.9467C19.8398 19.9467 19.1465 20.3734 19.1465 20.3734V19.4667C19.1465 19.4667 19.8398 19.04 20.8531 19.04C21.8665 19.04 21.8665 19.4667 22.5598 19.4667C23.1465 19.4667 23.2531 19.04 24.2665 19.04C25.2265 19.04 25.9732 19.4667 25.9732 19.4667V20.3734Z" fill="#42ADE2"/>
<path d="M20.853 20.9067C20.373 20.9067 19.9464 21.0134 19.6797 21.1734C19.8397 21.2801 20.053 21.3867 20.3197 21.4934L22.613 22.4001L24.853 21.4934C25.0664 21.3867 25.2797 21.3334 25.493 21.1734C25.173 21.0134 24.7997 20.9067 24.3197 20.9067C23.3597 20.9067 23.1997 21.4934 22.613 21.4934C21.8664 21.4934 21.8664 20.9067 20.853 20.9067Z" fill="#42ADE2"/>
<path d="M17.4934 23.7331L16.9067 22.5064C17.4401 22.1331 18.0801 21.8131 18.7734 21.5464L19.1467 22.9331C18.5067 23.1464 17.9734 23.4131 17.4934 23.7331Z" fill="#ED4C5C"/>
<path d="M27.6265 23.7332C27.1465 23.4132 26.6131 23.0932 25.9731 22.8798L26.3465 21.4932C27.0398 21.7598 27.6798 22.0798 28.2131 22.4532L27.6265 23.7332Z" fill="#ED4C5C"/>
<path d="M22.5595 20.3732L23.2528 20.9065L22.9861 20.0532L23.6795 19.5198H22.8261L22.5595 18.6665L22.2928 19.5198H21.4395L22.1328 20.0532L21.8661 20.9065L22.5595 20.3732Z" fill="#83BF4F"/>
<path d="M20.8529 18.133L21.5462 18.6664L21.2796 17.813L21.9729 17.2264H21.1196L20.8529 16.373L20.5862 17.2264H19.7329L20.4262 17.813L20.1596 18.6664L20.8529 18.133Z" fill="#83BF4F"/>
<path d="M24.2665 18.133L24.9598 18.6664L24.6931 17.813L25.3865 17.2264H24.5332L24.2665 16.373L23.9998 17.2264H23.1465L23.8398 17.813L23.5732 18.6664L24.2665 18.133Z" fill="#83BF4F"/>
<path d="M22.5601 24.3733C21.0667 24.3733 19.6801 23.7333 18.5601 22.5599L19.3601 21.4933C20.2667 22.4533 21.3867 22.9333 22.5601 22.9333C23.7334 22.9333 24.9067 22.3999 25.8134 21.4399L26.6134 22.5066C25.4934 23.7333 24.0534 24.3733 22.5601 24.3733Z" fill="#FFE62E"/>
<path d="M18.0803 24.8532L17.4937 23.6265C18.027 23.2532 18.667 22.9332 19.3603 22.6665L19.6803 24.0532C19.0937 24.2665 18.5603 24.5332 18.0803 24.8532Z" fill="#FFE62E"/>
<path d="M27.0401 24.9065C26.5601 24.5865 26.0267 24.2665 25.3867 24.0532L25.7601 22.6665C26.4534 22.9332 27.0934 23.2532 27.6267 23.6265L27.0401 24.9065Z" fill="#FFE62E"/>
<path d="M25.3864 14.9869C25.3864 14.9335 25.3331 14.8802 25.2264 14.9335C25.0131 14.9869 24.3731 14.9869 24.2131 14.8269C24.5331 14.9335 24.9064 14.7202 24.9064 14.5069C24.9064 14.2935 24.6397 14.0802 23.9997 14.2402C23.4131 14.3469 22.6664 14.2935 22.6664 14.1335C22.6664 13.9735 23.1997 13.9202 23.4664 13.9735C23.7331 14.0269 23.9464 14.0269 24.4264 13.8669C24.3197 13.9202 23.8931 13.9202 23.6264 13.8669C23.3064 13.7602 22.5597 13.7602 22.5597 14.1869C22.5597 14.5602 23.3597 14.5602 24.1064 14.4535C24.5331 14.4002 24.7464 14.4535 24.7464 14.5602C24.7464 14.6669 24.3731 14.7202 24.0531 14.7202C23.7864 14.6669 23.4664 14.6669 23.0931 14.7735C22.4531 14.9869 21.7597 14.8269 21.5997 14.5602V14.4535C21.6531 14.4002 21.7064 14.3469 21.7064 14.2935C21.7597 14.1335 21.7064 14.1335 21.5464 14.2402C21.4931 14.1869 21.3864 14.1335 21.2264 14.1335C21.0664 14.1335 20.9597 14.1869 20.9064 14.2402C20.7464 14.1869 20.6931 14.1869 20.7464 14.2935C20.7464 14.3469 20.7997 14.4535 20.8531 14.4535C20.8531 14.6669 21.1197 14.9869 21.1197 14.9869C20.7997 14.9335 20.3731 14.4002 20.3197 14.1335C20.2664 14.0269 20.1597 13.9735 20.1064 13.9735C20.0531 13.9735 19.9997 14.0269 20.0531 14.0802C20.1064 14.1335 20.1597 14.1335 20.2131 14.2402C20.1597 14.1335 20.0531 14.1335 19.9997 14.1869C19.9464 14.2402 19.9997 14.2935 20.0531 14.2935C20.1597 14.2935 20.1064 14.4002 20.1597 14.4535C20.0531 14.3469 19.9997 14.3469 19.9464 14.4002C19.8931 14.4535 19.9464 14.5069 19.9997 14.5069C20.1064 14.5069 20.4797 14.9869 21.3331 15.4135C21.3331 15.4669 21.1731 15.4669 21.0664 15.4669C20.8531 15.4669 20.5864 15.4669 20.4797 15.3069C20.3731 15.2002 20.2131 15.0935 20.0531 15.1469C19.9997 15.2002 20.0531 15.2535 20.1064 15.2535C20.1597 15.2535 20.2131 15.2535 20.2664 15.3069H20.0531C19.9997 15.3602 20.0531 15.4135 20.1064 15.4135C20.1597 15.4135 20.2664 15.3602 20.3197 15.4135H20.1597C20.1064 15.4669 20.1597 15.5202 20.2131 15.5202C20.3197 15.5202 21.2264 16.0535 21.9731 15.4135C22.0797 15.4135 22.8264 15.4135 23.1464 15.2002C23.3597 15.4135 23.3597 15.3602 23.5197 15.4135C23.6797 15.4669 23.7864 15.4669 23.6797 15.5202C23.6264 15.5735 23.4664 15.5202 23.3597 15.5202C23.0397 15.5202 22.9331 15.3069 22.8264 15.4135C22.7731 15.5202 22.8264 15.5202 22.9331 15.5202C22.8264 15.5202 22.7197 15.5202 22.7731 15.6269C22.8264 15.7869 22.9864 15.5735 23.0397 15.6802C22.9864 15.6802 22.9331 15.6802 22.9331 15.7335C22.9331 15.7869 23.0397 15.8402 23.1997 15.7335C23.2531 15.6802 23.3597 15.6802 23.4131 15.6802C23.6264 15.6802 24.1064 15.7869 24.2664 15.6269C24.3197 15.5735 24.2664 15.5202 24.2131 15.4669C24.1597 15.4135 24.1597 15.3602 24.1597 15.2002C24.3197 15.2535 24.5864 15.2535 24.8531 15.2002C25.2264 15.1469 25.3331 15.2535 25.3331 15.4135C25.3331 15.5202 25.2797 15.5202 25.2264 15.5202C25.0131 15.5202 24.9064 15.4669 24.8531 15.4669C24.7997 15.4669 24.7464 15.5735 24.8531 15.5735C24.7997 15.6269 24.7997 15.6802 24.8531 15.6802H25.0131C24.9597 15.7335 24.8531 15.7869 24.9064 15.8402C24.9597 15.8935 25.0131 15.8935 25.0664 15.8402C25.1197 15.7869 25.2264 15.7335 25.3331 15.6802C25.3331 15.6802 25.4931 15.2535 25.3864 14.9869Z" fill="#FFE62E"/>
<path d="M24.8003 9.92007H23.5736L24.6403 8.8534L23.307 9.38673L23.627 7.84007L22.7203 9.06673L22.2403 7.7334L22.1336 9.1734L21.227 8.16006L21.707 9.8134H20.8003C20.8003 9.8134 21.7603 10.5067 21.9736 10.7201H23.467C23.787 10.2934 24.8003 9.92007 24.8003 9.92007Z" fill="#FFE62E"/>
<path d="M20.8531 11.3069C20.8531 11.6269 20.0532 11.8935 19.7332 11.8935C19.4132 11.8935 19.1465 11.6269 19.1465 11.3069C19.1465 10.9869 19.4132 10.7202 19.7332 10.7202C20.0532 10.7202 20.8531 10.9869 20.8531 11.3069Z" fill="#83BF4F"/>
<path d="M20.8531 13.6001C21.0004 13.6001 21.1198 13.3374 21.1198 13.0134C21.1198 12.6894 21.0004 12.4268 20.8531 12.4268C20.7058 12.4268 20.5864 12.6894 20.5864 13.0134C20.5864 13.3374 20.7058 13.6001 20.8531 13.6001Z" fill="#83BF4F"/>
<path d="M23.1461 13.6001C23.2933 13.6001 23.4127 13.3374 23.4127 13.0134C23.4127 12.6894 23.2933 12.4268 23.1461 12.4268C22.9988 12.4268 22.8794 12.6894 22.8794 13.0134C22.8794 13.3374 22.9988 13.6001 23.1461 13.6001Z" fill="#83BF4F"/>
<path d="M24.2667 13.6001C24.4139 13.6001 24.5333 13.3374 24.5333 13.0134C24.5333 12.6894 24.4139 12.4268 24.2667 12.4268C24.1194 12.4268 24 12.6894 24 13.0134C24 13.3374 24.1194 13.6001 24.2667 13.6001Z" fill="#83BF4F"/>
<path d="M24.8532 11.627C24.8532 12.8536 23.8398 12.907 22.6132 12.907C21.3865 12.907 20.3198 12.8003 20.3198 11.627C20.3198 10.8803 21.3332 10.187 22.6132 10.187C23.8398 10.1336 24.8532 10.7203 24.8532 11.627Z" fill="#83BF4F"/>
</svg>
