<svg width="81" height="80" viewBox="0 0 81 80" fill="none" xmlns="http://www.w3.org/2000/svg">
<path opacity="0.6" d="M0.839844 16.0001L16.369 73.9556L45.3468 66.191L37.5822 37.2133L66.56 29.4487L58.7954 0.470918L0.839844 16.0001Z" fill="#3BEFFB"/>
<path fill-rule="evenodd" clip-rule="evenodd" d="M54.1256 31.6982C53.8927 31.6982 53.6586 31.6443 53.4418 31.5344C52.9366 31.2772 52.6168 30.7568 52.6164 30.1886V1.50921C52.6164 0.940996 52.9361 0.420558 53.4418 0.163388C53.9505 -0.093809 54.5578 -0.0442788 55.0161 0.290236L74.6382 14.6301C75.0274 14.9147 75.2572 15.3673 75.2572 15.8491C75.2572 16.3309 75.0274 16.7836 74.6382 17.0681L55.0157 31.4075C54.752 31.6 54.4397 31.6982 54.1256 31.6982ZM71.1898 15.8487L55.6356 4.48156V27.2158L71.1898 15.8487Z" fill="#0F1B2A"/>
<path d="M10.3522 9.81104H49.5976V12.8298H10.3522V9.81104Z" fill="#0F1B2A"/>
<path d="M49.5976 18.8679H10.3522V21.8867H49.5976V18.8679Z" fill="#0F1B2A"/>
<path fill-rule="evenodd" clip-rule="evenodd" d="M29.0845 48.5925C29.5446 48.258 30.1502 48.2085 30.6589 48.4656C31.1646 48.7228 31.4843 49.2428 31.4839 49.811V78.4904C31.4839 79.0586 31.1641 79.579 30.6584 79.8362C30.4421 79.9461 30.2075 80 29.9747 80C29.661 80 29.3482 79.9018 29.0845 79.7094L9.46207 65.3699C9.07283 65.0854 8.843 64.6327 8.843 64.1509C8.843 63.6692 9.07283 63.2165 9.46207 62.9319L29.0845 48.5925ZM12.9114 64.1509L28.4655 75.5181V52.7838L12.9114 64.1509Z" fill="#0F1B2A"/>
<path d="M73.7489 58.1133H34.5036V61.1321H73.7489V58.1133Z" fill="#0F1B2A"/>
<path d="M34.5036 67.1697H73.7489V70.1885H34.5036V67.1697Z" fill="#0F1B2A"/>
<path d="M39.0481 40C39.0481 39.1664 38.373 38.4904 37.5384 38.4904H31.5008C30.6667 38.4904 29.9912 39.1664 29.9912 40C29.9912 40.8337 30.6663 41.5096 31.5008 41.5096H37.5384C38.3725 41.5092 39.0481 40.8337 39.0481 40Z" fill="#0F1B2A"/>
<path d="M17.9155 40C17.9155 39.1664 18.5911 38.4904 19.4251 38.4904H25.4628C26.2973 38.4904 26.9724 39.1664 26.9724 40C26.9724 40.8337 26.2969 41.5096 25.4628 41.5096H19.4251C18.5906 41.5096 17.9155 40.8337 17.9155 40Z" fill="#0F1B2A"/>
<path d="M14.8967 40C14.8967 39.1664 14.2216 38.4904 13.3871 38.4904H7.34945C6.5154 38.4904 5.83984 39.1664 5.83984 40C5.83984 40.8337 6.51492 41.5096 7.34945 41.5096H13.3871C14.2216 41.5092 14.8967 40.8337 14.8967 40Z" fill="#0F1B2A"/>
<path d="M67.7274 38.4904H73.765C74.5991 38.4904 75.2746 39.1664 75.2746 40C75.2746 40.8337 74.5991 41.5096 73.765 41.5096H67.7274C66.8929 41.5096 66.2178 40.8337 66.2178 40C66.2178 39.1664 66.8933 38.4904 67.7274 38.4904Z" fill="#0F1B2A"/>
<path d="M55.6517 38.4904C54.8176 38.4904 54.1421 39.1664 54.1421 40C54.1421 40.8337 54.8172 41.5096 55.6517 41.5096H61.6893C62.5234 41.5096 63.199 40.8337 63.199 40C63.199 39.1664 62.5239 38.4904 61.6893 38.4904H55.6517Z" fill="#0F1B2A"/>
<path d="M43.5765 41.5096C42.742 41.5096 42.0669 40.8337 42.0669 40C42.0669 39.1664 42.742 38.4904 43.576 38.4904H49.6141C50.4486 38.4904 51.1237 39.1664 51.1237 40C51.1237 40.8337 50.4482 41.5096 49.6141 41.5096H43.5765Z" fill="#0F1B2A"/>
</svg>
