<svg width="81" height="80" viewBox="0 0 81 80" fill="none" xmlns="http://www.w3.org/2000/svg">
<path opacity="0.6" d="M0.839844 16.0001L16.369 73.9556L45.3468 66.191L37.5822 37.2133L66.56 29.4487L58.7954 0.470918L0.839844 16.0001Z" fill="#3BEFFB"/>
<path d="M76.6091 69.7241L80.6091 73.7241C81.1303 74.2453 81.1303 75.088 80.6089 75.6094L76.609 79.6094C76.349 79.8694 76.0077 80 75.6663 80C75.3251 80 74.9837 79.8694 74.7237 79.6094C74.2022 79.0881 74.2022 78.2455 74.7237 77.7241L76.4477 76H6.33355C5.59762 76 5.00028 75.4041 5.00028 74.6667V4.55218L3.27623 6.27624C2.75499 6.79764 1.91234 6.79764 1.39093 6.27624C0.869689 5.75499 0.869689 4.91233 1.39093 4.39093L5.3909 0.390937C5.91215 -0.130312 6.75496 -0.130312 7.2762 0.390937L11.2762 4.39093C11.7974 4.91218 11.7974 5.75499 11.2762 6.27624C11.0162 6.53624 10.6748 6.66686 10.3335 6.66686C9.99228 6.66686 9.65087 6.53624 9.39087 6.27624L7.66698 4.55218V73.3335H76.4479L74.7238 71.6094C74.2024 71.0882 74.2024 70.2453 74.7238 69.7241C75.2451 69.2027 76.0877 69.2027 76.6091 69.7241Z" fill="#0F1B2A"/>
<path d="M64.9998 4.00016H56.9999C56.264 4.00016 55.6666 4.59609 55.6666 5.33344C55.6666 6.07078 56.264 6.66672 56.9999 6.66672H61.5598L48.7746 17.1294L33.5133 10.7694C33.0774 10.588 32.5774 10.6508 32.2001 10.9334L16.2002 22.9334C15.6108 23.3748 15.4922 24.2107 15.9335 24.7987C16.1947 25.1493 16.5961 25.3334 17.0014 25.3334C17.2788 25.3334 17.56 25.2467 17.8 25.0667L33.1905 13.524L48.4864 19.8973C48.9423 20.0893 49.4637 20.0106 49.8437 19.7L63.6662 8.39062V12C63.6662 12.7373 64.2636 13.3333 64.9995 13.3333C65.7354 13.3333 66.3328 12.7373 66.3328 12V5.33359C66.3331 4.59625 65.7359 4.00016 64.9998 4.00016Z" fill="#0F1B2A"/>
<path fill-rule="evenodd" clip-rule="evenodd" d="M59.6664 17.3336H70.3331C71.0692 17.3336 71.6665 17.9295 71.6663 18.6668V69.3335C71.6663 70.0708 71.069 70.6667 70.3331 70.6667H59.6664C58.9305 70.6667 58.3332 70.0708 58.3332 69.3335V18.6668C58.3332 17.9295 58.9305 17.3336 59.6664 17.3336ZM60.9999 68H68.9998V20.0001H60.9999V68Z" fill="#0F1B2A"/>
<path fill-rule="evenodd" clip-rule="evenodd" d="M27.6667 24.0575H38.3333C39.0388 24.0575 39.6106 24.6295 39.6106 25.3334V69.3333C39.6106 70.0372 39.0386 70.6093 38.3333 70.6093H27.6667C26.9614 70.6093 26.3893 70.0374 26.3893 69.3333V25.3334C26.3893 24.6295 26.9614 24.0575 27.6667 24.0575ZM28.9429 68.0574H37.0561V26.6095H28.9429V68.0574Z" fill="#0F1B2A"/>
<path fill-rule="evenodd" clip-rule="evenodd" d="M11.6669 36.0001H22.3334C23.0695 36.0001 23.6668 36.5962 23.6668 37.3334V69.3333C23.6668 70.0706 23.0695 70.6666 22.3336 70.6666H11.6669C10.931 70.6666 10.3337 70.0706 10.3337 69.3333V37.3334C10.3337 36.596 10.931 36.0001 11.6669 36.0001ZM13.0002 68H21.0002V38.6668H13.0002V68Z" fill="#0F1B2A"/>
<path fill-rule="evenodd" clip-rule="evenodd" d="M54.3333 30.6668H43.6667C42.9308 30.6668 42.3334 31.2628 42.3334 32.0001V69.3333C42.3334 70.0706 42.9308 70.6666 43.6667 70.6666H54.3333C55.0693 70.6666 55.6666 70.0706 55.6666 69.3333V32.0001C55.6666 31.2628 55.0693 30.6668 54.3333 30.6668ZM52.9999 68H45V33.3335H52.9999V68Z" fill="#0F1B2A"/>
</svg>
