<svg width="81" height="80" viewBox="0 0 81 80" fill="none" xmlns="http://www.w3.org/2000/svg">
<path opacity="0.6" d="M0.839844 16.0001L16.369 73.9556L45.3468 66.191L37.5822 37.2133L66.56 29.4487L58.7954 0.470918L0.839844 16.0001Z" fill="#3BEFFB"/>
<path fill-rule="evenodd" clip-rule="evenodd" d="M48.8719 20.2834C48.6132 20.5421 48.2624 20.6874 47.8966 20.6874H34.1034C33.7376 20.6874 33.3868 20.5421 33.1281 20.2834C32.8695 20.0247 32.7241 19.6739 32.7241 19.3081C32.7241 18.9423 32.8695 18.5914 33.1281 18.3328C33.3868 18.0741 33.7376 17.9288 34.1034 17.9288H35.6759C35.9935 16.76 36.6869 15.7282 37.6491 14.9926C38.6113 14.257 39.7888 13.8584 41 13.8584C42.2112 13.8584 43.3887 14.257 44.3509 14.9926C45.3131 15.7282 46.0065 16.76 46.3241 17.9288H47.8966C48.2624 17.9288 48.6132 18.0741 48.8719 18.3328C49.1305 18.5914 49.2759 18.9423 49.2759 19.3081C49.2759 19.6739 49.1305 20.0247 48.8719 20.2834ZM42.3699 16.9232C41.9537 16.6812 41.4814 16.5524 41 16.5495C40.5186 16.5524 40.0463 16.6812 39.6301 16.9232C39.2139 17.1652 38.8683 17.5118 38.6276 17.9288H43.3724C43.1317 17.5118 42.7861 17.1652 42.3699 16.9232Z" fill="#0F1B2A"/>
<path fill-rule="evenodd" clip-rule="evenodd" d="M78.2414 71.7219H79.6207C79.9865 71.7219 80.3373 71.8672 80.596 72.1259C80.8547 72.3845 81 72.7354 81 73.1012V78.6184C81 78.9843 80.8547 79.3351 80.596 79.5938C80.3373 79.8524 79.9865 79.9977 79.6207 79.9977H2.37931C2.01349 79.9977 1.66266 79.8524 1.40399 79.5938C1.14532 79.3351 1 78.9843 1 78.6184V73.1012C1 72.7354 1.14532 72.3845 1.40399 72.1259C1.66266 71.8672 2.01349 71.7219 2.37931 71.7219H3.75862V67.5839C3.75862 67.2181 3.90394 66.8673 4.16261 66.6086C4.42128 66.35 4.77212 66.2046 5.13793 66.2046H6.51724V33.1012H5.13793C4.77212 33.1012 4.42128 32.9559 4.16261 32.6972C3.90394 32.4385 3.75862 32.0877 3.75862 31.7219V26.2046C3.80195 26.1495 3.85903 26.1066 3.92414 26.0805C3.91245 25.9889 3.91245 25.8962 3.92414 25.8046L4.0069 25.5702L4.15862 25.3633C4.21198 25.2848 4.27712 25.215 4.35172 25.1564L4.43448 25.0736L40.2966 0.246008C40.5274 0.0858318 40.8018 0 41.0828 0C41.3638 0 41.6381 0.0858318 41.869 0.246008L77.731 25.0736L77.8138 25.1564C77.8884 25.215 77.9535 25.2848 78.0069 25.3633L78.1586 25.5702L78.2414 25.8046C78.2531 25.8962 78.2531 25.9889 78.2414 26.0805C78.2478 26.1216 78.2478 26.1635 78.2414 26.2046V31.7219C78.2414 32.0877 78.0961 32.4385 77.8374 32.6972C77.5787 32.9559 77.2279 33.1012 76.8621 33.1012H75.4828V66.2046H76.8621C77.2279 66.2046 77.5787 66.35 77.8374 66.6086C78.0961 66.8673 78.2414 67.2181 78.2414 67.5839V71.7219ZM69.9655 66.2046H72.7241V33.1012H69.9655V66.2046ZM56.1724 33.1012V66.2046H67.2069V33.1012H56.1724ZM34.1034 33.1012V66.2046H47.8966V33.1012H34.1034ZM14.7931 33.1012V66.2046H25.8276V33.1012H14.7931ZM31.3448 33.1012H28.5862V66.2046H31.3448V33.1012ZM53.4138 33.1012H50.6552V66.2046H53.4138V33.1012ZM6.51724 30.3426H75.4828V27.5839H6.51724V30.3426ZM72.4483 24.8253L41 3.0598L9.55172 24.8253H72.4483ZM12.0345 33.1012H9.27586V66.2046H12.0345V33.1012ZM75.4828 71.7219V68.9633H6.51724V71.7219H75.4828ZM3.75862 74.4805V77.2391H78.2414V74.4805H3.75862Z" fill="#0F1B2A"/>
</svg>
