<svg width="81" height="80" viewBox="0 0 81 80" fill="none" xmlns="http://www.w3.org/2000/svg">
<path opacity="0.6" d="M0.839844 16.0001L16.369 73.9556L45.3468 66.191L37.5822 37.2133L66.56 29.4487L58.7954 0.470918L0.839844 16.0001Z" fill="#3BEFFB"/>
<path d="M41.2329 5.00979C40.9245 5.00979 40.6208 5.13504 40.4031 5.35421C40.184 5.57183 40.0587 5.87554 40.0587 6.18396C40.0587 6.49237 40.184 6.79609 40.4031 7.0137C40.6208 7.23288 40.9245 7.35813 41.2329 7.35813C41.5413 7.35813 41.845 7.23288 42.0626 7.0137C42.2818 6.79609 42.4071 6.49394 42.4071 6.18396C42.4071 5.87554 42.2818 5.57183 42.0626 5.35421C41.845 5.13488 41.5413 5.00979 41.2329 5.00979Z" fill="#0F1B2A"/>
<path d="M58.7671 10.0196H66.2818C66.9303 10.0196 67.456 10.5453 67.456 11.1937V73.8161C67.456 74.4645 66.9303 74.9902 66.2818 74.9902H16.184C15.5355 74.9902 15.0098 74.4645 15.0098 73.8161V11.1937C15.0098 10.5453 15.5355 10.0196 16.184 10.0196H23.6986C24.3471 10.0196 24.8728 10.5453 24.8728 11.1937C24.8728 11.8422 24.3471 12.3679 23.6986 12.3679H17.3581V72.6419H65.1076V12.3679H58.7671C58.1187 12.3679 57.593 11.8422 57.593 11.1937C57.593 10.5453 58.1187 10.0196 58.7671 10.0196Z" fill="#0F1B2A"/>
<path fill-rule="evenodd" clip-rule="evenodd" d="M24.9511 59.9609C22.9224 59.9609 21.272 58.3105 21.272 56.2818C21.272 54.2532 22.9224 52.6027 24.9511 52.6027C25.4613 52.6027 25.9476 52.7073 26.3897 52.896L31.7779 46.8343C31.4691 46.296 31.2916 45.6734 31.2916 45.0098C31.2916 42.9811 32.942 41.3307 34.9706 41.3307C36.9993 41.3307 38.6497 42.9811 38.6497 45.0098C38.6497 45.1361 38.6433 45.2607 38.6308 45.3838L46.0617 48.7615C46.7336 48.0432 47.6888 47.593 48.7476 47.593C48.8287 47.593 48.9091 47.5966 48.989 47.6017L55.1025 32.7548C54.3272 32.0798 53.8356 31.0868 53.8356 29.9804C53.8356 27.9518 55.486 26.3014 57.5147 26.3014C59.5433 26.3014 61.1937 27.9518 61.1937 29.9804C61.1937 32.0091 59.5433 33.6595 57.5147 33.6595C57.4336 33.6595 57.3531 33.6559 57.2733 33.6507L51.1598 48.4977C51.935 49.1726 52.4266 50.1656 52.4266 51.272C52.4266 53.3007 50.7762 54.9511 48.7476 54.9511C46.7189 54.9511 45.0685 53.3007 45.0685 51.272C45.0685 51.1457 45.0749 51.0211 45.0874 50.898L37.6565 47.5203C36.9846 48.2386 36.0294 48.6888 34.9706 48.6888C34.4604 48.6888 33.9742 48.5843 33.5321 48.3956L28.1439 54.4573C28.4526 54.9955 28.6301 55.6182 28.6301 56.2818C28.6301 58.3105 26.9797 59.9609 24.9511 59.9609ZM58.8454 29.9804C58.8454 29.2467 58.2485 28.6497 57.5147 28.6497C56.7809 28.6497 56.184 29.2467 56.184 29.9804C56.184 30.7142 56.7809 31.3112 57.5147 31.3112C58.2485 31.3112 58.8454 30.7142 58.8454 29.9804ZM50.0783 51.272C50.0783 50.5382 49.4813 49.9413 48.7476 49.9413C48.0138 49.9413 47.4168 50.5382 47.4168 51.272C47.4168 52.0058 48.0138 52.6027 48.7476 52.6027C49.4813 52.6027 50.0783 52.0058 50.0783 51.272ZM36.3014 45.0098C36.3014 44.276 35.7044 43.6791 34.9706 43.6791C34.2369 43.6791 33.6399 44.276 33.6399 45.0098C33.6399 45.7436 34.2369 46.3405 34.9706 46.3405C35.7044 46.3405 36.3014 45.7436 36.3014 45.0098ZM24.9511 57.6125C25.6849 57.6125 26.2818 57.0156 26.2818 56.2818C26.2818 55.548 25.6849 54.9511 24.9511 54.9511C24.2173 54.9511 23.6204 55.548 23.6204 56.2818C23.6204 57.0156 24.2173 57.6125 24.9511 57.6125Z" fill="#0F1B2A"/>
<path fill-rule="evenodd" clip-rule="evenodd" d="M53.7572 5.00978H66.2818C69.6916 5.00978 72.4657 7.78395 72.4657 11.1937V73.816C72.4657 77.2258 69.6916 80 66.2818 80H16.184C12.7742 80 10 77.2258 10 73.816V11.1937C10 7.78395 12.7742 5.00978 16.184 5.00978H28.7084C28.7166 5.00978 28.7246 5.01032 28.7326 5.01086C28.7362 5.0111 28.7398 5.01134 28.7433 5.01154C28.7455 5.01165 28.7476 5.01175 28.7497 5.01182C29.8774 3.49198 31.6845 2.50489 33.7182 2.50489H36.9558C37.8201 0.97863 39.4483 0 41.2329 0C43.0175 0 44.6456 0.97863 45.51 2.50489H48.7476C50.7812 2.50489 52.5883 3.49198 53.7162 5.01182C53.7218 5.01163 53.7274 5.01125 53.733 5.01087C53.741 5.01033 53.749 5.00978 53.7572 5.00978ZM33.7182 4.85323C31.6033 4.85323 29.8826 6.57393 29.8826 8.68885V12.5245H52.5832V8.68885C52.5832 6.57393 50.8625 4.85323 48.7476 4.85323H44.7601C44.2632 4.85323 43.8201 4.54043 43.6537 4.07233C43.2872 3.0411 42.3144 2.34834 41.2329 2.34834C40.1514 2.34834 39.1786 3.0411 38.8121 4.07233C38.6456 4.54043 38.2026 4.85323 37.7057 4.85323H33.7182ZM66.2818 77.6517C68.3967 77.6517 70.1174 75.931 70.1174 73.816V11.1937C70.1174 9.07883 68.3967 7.35812 66.2818 7.35812H54.7858C54.8802 7.78708 54.9315 8.23202 54.9315 8.68885V13.6986C54.9315 14.3471 54.4058 14.8728 53.7573 14.8728H28.7084C28.06 14.8728 27.5342 14.3471 27.5342 13.6986V8.68885C27.5342 8.23202 27.5856 7.78708 27.68 7.35812H16.184C14.069 7.35812 12.3483 9.07883 12.3483 11.1937V73.816C12.3483 75.931 14.069 77.6517 16.184 77.6517H66.2818Z" fill="#0F1B2A"/>
</svg>
