<svg width="390" height="899" viewBox="0 0 390 899" fill="none" xmlns="http://www.w3.org/2000/svg">
<mask id="mask0_169_882" style="mask-type:alpha" maskUnits="userSpaceOnUse" x="0" y="0" width="390" height="899">
<rect width="390" height="899" fill="white"/>
</mask>
<g mask="url(#mask0_169_882)">
<path d="M89.2792 728.688H85.8062L88.462 713.979L89.8922 703.559L90.0965 701.516L91.5266 700.903L93.3653 702.538L98.4728 694.57L100.72 694.366L100.516 696.409H102.559L101.946 700.086L99.29 705.602L100.107 707.645L98.2685 712.344L98.8814 713.57L96.8384 720.312L94.1825 723.785L91.9352 724.194L89.2792 728.688Z" fill="#DBE5F0"/>
<path d="M452.935 912.151L459.269 913.376L460.494 910.516L458.451 908.065L459.677 904.183L464.376 905.409L469.892 903.979L476.43 906.839L481.537 909.495L485.011 906.022L487.667 906.43L489.301 910.108L494.817 909.29L499.312 904.183L502.989 894.581L509.935 882.527L514.021 881.914L516.677 889.269L522.806 912.151L529.14 914.398L529.344 923.387L520.559 934.215L524.032 938.097L544.667 940.14L545.075 953.419L553.86 944.839L568.365 949.538L587.774 957.505L593.494 965.065L591.656 972.419L605.14 968.333L627.613 975.28L644.978 974.871L662.14 985.699L677.258 1000.41L686.247 1004.09L696.054 1004.7L700.344 1008.79L704.43 1025.54L706.677 1033.51L702.387 1055.16L696.871 1063.74L681.14 1081.92L674.193 1096.84L666.021 1108.08L663.161 1108.48L660.505 1118.09L662.344 1142.6L660.097 1162.83L659.484 1171.41L656.215 1176.72L655.193 1194.29L644.57 1211.25L643.548 1224.94L634.763 1230.45L632.516 1238.42H620.258L602.892 1243.32L595.333 1249.25L583.075 1253.13L570.613 1263.55L562.236 1276.62L561.624 1286.43L564.279 1293.58L563.667 1306.86L562.032 1313.19L555.086 1320.55L545.892 1343.63L537.72 1353.85L531.183 1360.18L528.118 1372.65L522.193 1380L517.903 1372.65L521.581 1366.31L513.817 1357.53L504.011 1350.17L491.14 1341.8L487.258 1342.2L474.387 1331.99L467.441 1333.42L479.699 1315.65L490.527 1302.77L497.269 1297.46L505.849 1290.31L505.032 1279.89L498.494 1272.13L493.183 1274.78L494.613 1267.23L495.226 1259.46L494.613 1252.11L490.322 1249.86L486.236 1251.9L481.946 1251.29L480.312 1246.39L478.064 1234.33L475.613 1230.45L467.645 1226.77L463.15 1229.43L451.097 1226.77L450.279 1209L446.193 1201.85L449.462 1198.99L447.828 1191.63L450.484 1185.91L451.71 1175.49L448.236 1167.32L441.699 1163.65L440.064 1158.54L441.086 1150.98L419.226 1150.37L413.505 1135.04L416.978 1134.84L416.366 1129.32L413.914 1125.44L412.892 1117.88L405.946 1114H398.796L393.688 1110.32L385.72 1107.67L381.021 1102.76L367.946 1100.52L354.667 1088.87L355.279 1080.09L353.441 1074.98L354.258 1065.17L339.344 1067.42L333.419 1072.32L323.613 1077.63L321.366 1081.52L315.441 1081.92L306.86 1080.7L300.322 1082.95L295.011 1081.52L294.806 1061.7L285.817 1069.26L275.602 1069.05L270.903 1061.9L263.14 1061.29L265.183 1055.57L258.441 1047.6L253.129 1035.75L256.193 1033.51L255.785 1027.79L262.731 1024.11L261.301 1016.96L264.161 1012.46L264.774 1006.33L277.645 997.344L287.043 994.892L288.677 992.849L299.097 993.462L303.591 957.505L303.796 951.785L301.957 944.43L296.645 939.527L296.849 929.925L303.387 927.882L305.634 929.312L306.043 924.204L299.301 922.774V914.602L321.774 915.011L325.656 910.312L328.925 914.602L330.968 922.366L333.215 920.731L339.548 927.677L348.538 926.86L350.785 922.774L359.365 919.71L364.269 917.462L365.699 911.946L374.075 908.269L373.462 905.409L363.656 904.387L362.226 896.011L362.839 887.226L357.731 883.957L359.978 882.731L368.355 884.366L377.548 887.634L381.021 884.57L389.398 882.527L402.473 877.624L406.763 872.516L405.333 868.839L411.462 868.43L413.914 871.29L412.279 877.215L416.366 879.054L418.817 885.183L415.548 889.882L413.505 900.914L416.366 907.656L416.978 913.785L424.129 919.914L429.849 920.527L431.075 917.871L434.753 917.258L440.064 915.011L443.742 911.538L450.279 912.763L452.935 912.151Z" fill="#DBE5F0"/>
<path d="M657.441 -81.5699L639.667 -82.1828L611.065 -83L590.022 -81.7742L587.366 -82.5914L566.119 -82.1828L552.839 -81.3656L542.215 -80.1398L532 -76.0538L527.097 -78.3011L519.129 -78.7097L505.237 -75.6452L490.119 -74.4194L481.538 -74.2151L469.28 -72.5806L467.032 -69.9247L472.14 -67.4731L473.774 -64L482.764 -61.1398L508.506 -61.7527L523.42 -60.7312L508.506 -57.4624L504.011 -58.4839L484.807 -58.6882L482.559 -54.1935L488.688 -50.7204L482.968 -47.4516L467.441 -45.2043L457.226 -41.5269L467.237 -39.6882L470.71 -33.5591L455.387 -37.6452L450.076 -37.0323L445.99 -30.086L429.645 -27.8387L425.355 -23.1398L439.247 -22.5269L449.463 -21.3011L473.366 -22.9355L490.731 -20.0753L516.678 -26L518.925 -28.4516L505.645 -28.043L506.667 -30.2903L520.151 -33.3548L527.301 -37.0323L541.398 -39.6882L551.613 -42.957L550.183 -47.6559L556.925 -49.2903L547.936 -50.5161L571.022 -51.3333L577.355 -53.3763L593.903 -54.8065L612.903 -61.957L626.796 -64.4086L648.248 -69.5161H632.925L641.097 -71.3548L659.484 -72.9892L679.506 -76.4624L681.753 -78.5054L671.129 -80.5484L657.441 -81.5699Z" fill="#DBE5F0"/>
<path d="M477.86 -53.5804L483.376 -50.5159L470.097 -47.86L448.441 -40.7095L434.548 -40.0966L420.656 -41.3224L417.387 -45.2041L421.677 -48.4729L430.462 -50.9245H416.978L412.892 -53.989L413.71 -57.8708L423.72 -61.7525L432.097 -64.4084L440.269 -65.0213L439.656 -67.0643L456.613 -67.4729L459.882 -62.9783L469.484 -61.1396L479.29 -59.3009L477.86 -53.5804Z" fill="#DBE5F0"/>
<path d="M365.086 -37.2366L367.333 -41.1183L367.538 -45.6129L352.215 -49.086L339.753 -50.3118L335.258 -46.6344L340.978 -44.3871L330.15 -41.7312L346.086 -41.3226L354.258 -38.2581L365.086 -37.2366Z" fill="#DBE5F0"/>
<path d="M395.527 -38.6667L382.043 -36.6237L378.774 -38.871L380 -42.3441L384.495 -46.2258L393.484 -45.8172L396.957 -45.2043L401.656 -41.9355L395.527 -38.6667Z" fill="#DBE5F0"/>
<path d="M288.269 -41.9353L299.914 -43.774L293.172 -45.6127L289.699 -46.0213L278.054 -43.3654L276.011 -41.9353H288.269Z" fill="#DBE5F0"/>
<path d="M283.978 -35.1934L266 -32.3332L259.258 -35.3977L269.677 -38.4623L281.935 -39.4838L290.312 -38.0537L283.978 -35.1934Z" fill="#DBE5F0"/>
<path d="M400.43 -33.1504L404.108 -33.3547L406.355 -34.5806L403.086 -36.215L388.376 -36.4193L386.946 -33.7633L400.43 -33.1504Z" fill="#DBE5F0"/>
<path d="M238.215 -34.5807L226.366 -27.0216L215.538 -23.5485L207.774 -23.1399L187.548 -18.8496L173.043 -17.2152L165.688 -19.4625L189.591 -27.0216L214.516 -33.3549L225.753 -33.1506L238.215 -34.5807Z" fill="#DBE5F0"/>
<path d="M397.57 -26L392.871 -29.2688L378.161 -29.8817L370.398 -25.7957L375.71 -22.7312L390.011 -21.5054L392.871 -17.0108L388.581 -12.1075L385.312 -6.3871L402.882 -3.11829L414.323 -1.89247L430.667 -2.09678L454.774 -3.73119L463.559 -2.30108L477.247 -4.54839L484.602 -7.4086L486.645 -11.4946L481.946 -15.3764L470.097 -16.1936L453.548 -15.1721L439.043 -13.129L428.624 -13.9462L418.613 -14.3548L416.161 -16.8064L409.828 -19.0538L415.548 -22.7312L412.688 -26H397.57Z" fill="#DBE5F0"/>
<path d="M279.075 -20.2795L277.645 -16.8063L286.635 -18.4408L293.989 -18.0322L289.29 -12.9246L278.871 -8.2257L250.473 -6.59129L225.344 -2.09667L213.086 -1.89236L216.151 -5.16119L238.011 -9.86011L201.441 -8.6343L192.86 -10.473L216.764 -20.2795L227.796 -23.1397L244.753 -19.6666L250.677 -13.7418L263.14 -12.9246L264.57 -22.5268L276.419 -26.2042L282.753 -25.1827L279.075 -20.2795Z" fill="#DBE5F0"/>
<path d="M359.979 -20.8923L359.57 -25.5912L357.527 -24.1611L347.516 -24.774L331.785 -21.3009L324.022 -21.7095L315.237 -13.946L328.721 -14.5589L321.774 -8.63421L328.312 -6.9998L342.409 -8.02131L354.258 -15.7848L359.979 -20.8923Z" fill="#DBE5F0"/>
<path d="M377.549 -7.8174L369.172 -3.93567L358.548 -4.75288L352.011 -7.40879L361.204 -11.9034L375.301 -14.7636L378.161 -11.0862L377.549 -7.8174Z" fill="#DBE5F0"/>
<path d="M94.1829 35.0858L121.764 29.774L127.075 25.2794L145.871 17.7202L174.269 10.3654L187.549 7.70948L184.28 3.21486L180.398 0.354637L160.989 -0.258263L152.409 -2.50557L123.807 -0.871162L122.989 5.46217L107.462 12.4084L92.1399 20.1719L83.1506 24.6665L95.4087 30.3869L94.1829 35.0858Z" fill="#DBE5F0"/>
<path d="M358.344 15.0645L342.409 23.0323L333.419 22.6237L337.097 13.2258L342.409 8.11829L350.989 3.62367L361.613 0.763458L377.753 1.17206L390.419 3.62367L369.785 13.0215L358.344 15.0645Z" fill="#DBE5F0"/>
<path d="M319.527 6.07527L312.172 3.82796L297.463 8.93549L299.301 15.6774L284.183 14.4516L280.71 17.9247L292.764 26.0968L294.602 30.1828L301.549 31L318.71 26.914L329.333 17.3118L321.57 12.8172L334.032 7.70969L335.054 4.64517L319.527 6.07527Z" fill="#DBE5F0"/>
<path d="M415.14 10.9784L415.753 17.516L430.462 9.13969L454.366 4.84937L459.065 15.6773L452.527 22.6236L470.914 19.559L481.742 15.2687L495.634 20.5806L503.194 25.6881L500.946 30.387L517.699 27.9354L521.581 34.8816L538.742 39.1719L543.237 43.4623L545.075 53.8816L526.484 58.9892L542.215 66.344L554.269 68.7956L561.011 79.0107L574.29 79.8279L567.549 87.7956L545.28 101.075L537.108 96.172L529.344 85.1397L517.29 86.5698L512.591 93.3117L518.108 99.8494L527.301 105.161L529.344 108.226L529.14 119.871L521.785 128.247L512.183 124.978L494.613 115.785L501.968 125.796L507.688 132.946L507.075 137.032L484.807 132.333L469.28 125.387L461.516 119.871L466.419 116.398L456.613 110.473L447.011 104.957L445.172 108.226L418.409 110.064L413.505 106.183L424.538 97.6021L441.086 97.3978L460.086 95.9677L459.677 91.8816L466.011 86.1612L483.989 75.1289L484.807 70.0214L483.785 66.344L474.183 60.8279L459.677 57.1504L466.828 54.2902L462.742 47.344L455.796 46.7311L451.914 43.0537L445.172 46.3225L429.032 47.7526L400.43 45.301L385.312 42.0322L373.258 40.3978L369.376 36.516L382.247 31.6128H370.602L377.344 20.7848L391.85 11.387L404.108 7.09667L426.989 4.23647L415.14 10.9784Z" fill="#DBE5F0"/>
<path d="M495.022 14.4514L496.452 11.5912L487.258 5.87077L470.097 4.64497L465.602 5.46217L462.129 9.13958L466.42 14.6557L468.258 15.4729L478.269 14.0428L495.022 14.4514Z" fill="#DBE5F0"/>
<path d="M274.581 8.32259L260.28 15.2688L255.581 7.91399L259.871 6.27959L271.107 5.87098L274.581 8.32259Z" fill="#DBE5F0"/>
<path d="M184.28 16.2902L193.882 11.387L188.161 9.34399L159.151 15.6773L148.527 19.9676L132.592 27.9354L143.624 30.7956L156.495 30.5913L132.592 35.0859V38.9676L144.237 39.1719L162.828 38.3547L176.108 40.8064L163.441 42.8494L152.204 42.2365L137.29 44.0752L130.548 45.301L131.774 54.0859L140.559 52.8601L148.936 55.7203L148.323 61.0322L164.462 60.0107L187.549 58.3762L206.957 54.4945L217.376 53.8816L229.022 56.9461L242.71 58.5806L249.247 54.4945L247.613 50.4085L262.118 49.387L267.43 44.6881L257.215 39.3763L248.635 34.0644L253.538 26.5053L259.054 16.0859L254.559 11.7956L248.43 10.1612L239.645 11.7956L233.925 22.6236L225.14 26.9139L229.635 16.4945L225.957 13.0214L211.043 18.5375L205.731 13.2257L184.28 16.2902Z" fill="#DBE5F0"/>
<path d="M411.463 346.032L406.968 338.677L412.893 321.312L409.624 317.634L402.065 319.677L399.817 316.408L388.581 326.011L382.043 336.021L376.323 341.946L371.215 343.989L367.742 344.602L365.495 347.666H346.495L330.559 347.871L325.043 350.118L311.151 359.107V358.903L309.312 358.086L305.226 359.925L301.344 362.58L297.667 360.333L288.065 361.968L280.097 363.806L276.215 365.441L271.516 369.731L275.194 371.161L278.667 370.344H279.28L278.667 374.226L268.86 375.656L263.14 377.29L259.667 379.333L254.355 378.107L251.086 378.72L245.161 382.398L235.764 386.484L230.247 385.666L234.334 381.172L241.893 374.021L250.269 369.731L252.516 366.054L254.355 359.925L262.119 352.774L263.957 344.602L266.205 352.57L273.968 354.408L278.871 350.118L276.011 340.312L274.172 336.226L266 333.774L258.237 332.344H250.269L243.323 330.71L242.506 327.849L239.645 329.688L237.194 329.279L241.075 324.989L237.398 323.355L241.28 318.451L238.828 314.774L242.301 311.097L231.678 309.258L231.473 301.903L229.839 300.269L223.097 299.86L214.721 297.408L211.656 299.043L207.979 302.107L201.237 304.15L194.903 309.258L183.871 305.785L174.882 307.419L166.914 303.537L157.516 301.494L150.774 300.677L148.731 298.634L150.57 291.688H147.097L144.441 296.591H-137.086L-148.118 284.129L-151.387 278.613L-165.688 273.301L-163.032 262.064L-155.677 254.505L-164.054 248.989L-157.72 238.978L-162.011 229.989L-156.903 223.451L-146.484 217.527L-139.946 209.763L-149.344 202L-146.484 187.903L-144.236 179.322L-147.505 173.806L-149.14 168.903L-147.914 162.57L-161.193 166.451L-176.72 173.193L-177.333 165.43L-178.355 160.118L-184.075 156.849L-192.656 156.441L-119.925 89.6342L-69.6665 47.9568L-57.4084 50.6127L-50.6665 55.9245L-43.1073 56.946L-30.2364 52.4514L-15.9353 48.9783L-5.10733 50.2041L13.0755 45.5052L29.8282 42.8493L30.2367 47.3439L39.4303 44.688L47.398 39.5804L51.6884 40.8062L54.5486 50.6127L73.9572 43.0536L65.9894 51.4299L78.2475 49.5912L84.7852 46.5267L94.183 47.1396L102.151 51.6342L117.473 55.7202L127.075 57.5589L136.065 56.946L141.989 62.6665L124.624 68.1826L137.699 70.4299L162.011 69.2041L171 67.1611L173.86 73.903L188.366 68.3869L184.076 63.4837L193.269 59.8063L203.893 59.1934L211.86 58.1718L216.151 60.8278L219.215 66.7525L229.43 65.9353L240.258 71.0428L254.968 69.2041L267.226 69.4084L272.129 62.4622L281.323 60.6235L291.334 64.3009L282.549 74.9245L295.215 65.9353L301.753 66.3439L314.828 55.1073L311.559 48.3654L305.635 43.8708L316.871 31.817L333.624 24.0536L342.817 25.8923L346.903 30.5912L347.721 42.8493L335.871 48.1611L349.559 50.4084L340.57 61.645L358.753 53.0643L363.248 60.2149L354.463 68.3869L357.119 75.946L372.032 67.9783L385.312 58.1718L394.914 46.1181L406.151 46.9353L417.183 48.5697L424.538 54.0858L421.065 59.602L410.645 65.5267L412.484 71.4514L407.581 76.9676L385.312 84.9353L372.032 86.774L365.495 83.3009L358.753 89.0213L343.635 98.6235L337.506 103.731L321.774 111.494L308.495 112.312L298.075 117.215L292.151 124.978L280.506 126.408L262.731 136.011L243.527 149.29L233.312 158.688L223.301 172.785L235.559 174.828L232.495 186.064L230.86 195.462L245.774 193.011L260.076 198.322L266.817 203.021L270.291 208.742L280.301 212.215L287.656 217.322L303.183 218.14L312.989 219.365L305.635 229.989L302.161 242.451L302.366 256.548L311.355 268.602L320.957 264.516L332.398 251.441L337.097 231.828L333.624 225.29L352.011 219.365L367.334 210.785L377.14 202.204L380.613 194.032L379.796 183.613L373.258 174.419L391.441 161.753L393.484 150.925L401.452 132.537L409.215 129.677L422.903 132.946L431.484 134.172L440.678 130.903L447.011 134.989L454.366 141.935L454.774 146.43L470.506 147.451L465.194 157.462L460.495 172.58L468.258 174.623L471.527 181.774L488.28 175.032L503.602 161.548L512.183 156.032L514.43 166.86L519.742 182.183L523.828 196.892L516.882 204.656L526.688 211.602L532.613 218.548L546.71 221.817L551.613 225.699V236.322L558.559 237.957L560.807 242.656L556.721 256.753L547.936 261.451L539.355 265.946L521.377 270.441L505.237 280.656L487.667 282.903L467.032 280.043H452.119L441.29 280.86L429.645 290.054L414.527 295.774L393.893 312.527L377.753 324.376L387.355 322.333L409.624 305.376L434.753 294.753L450.28 293.527L457.022 299.86L444.559 308.441L443.333 322.129L443.538 331.935L454.979 338.269L472.549 336.43L487.258 321.925L485.215 331.322L490.323 336.021L475.205 344.398L449.871 352.161L438.022 357.269L423.312 366.667L415.753 365.645L418.817 354.817L440.065 343.989L423.516 344.398L411.463 346.032Z" fill="#DBE5F0"/>
<path d="M294.807 58.5807L303.183 54.699L301.753 50.4087L300.936 48.3657L297.667 46.3227L291.538 43.2582L281.527 47.9571L271.312 51.4302L278.258 56.3334L286.226 55.3119L294.807 58.5807Z" fill="#DBE5F0"/>
<path d="M455.387 76.5589L445.376 77.1719L446.807 71.6557L454.57 65.3224L463.355 63.8923L468.054 66.9568L464.989 71.6557L463.151 73.2901L455.387 76.5589Z" fill="#DBE5F0"/>
<path d="M361.817 98.6237L363.656 93.5161L357.935 92.6989L347.516 103.118L340.161 112.312L328.516 118.032L341.387 117.011L339.957 123.753L356.71 117.828L369.581 111.495L371.215 116.806L383.269 119.667L393.484 115.989L389.602 112.108L382.452 112.925L385.312 107.409L377.549 103.936L370.398 99.8495L367.333 96.785L361.817 98.6237Z" fill="#DBE5F0"/>
<path d="M369.989 127.839L355.28 134.376L349.151 133.968V130.903L359.366 125.387L371.624 125.591L369.989 127.839Z" fill="#DBE5F0"/>
<path d="M382.452 140.506L389.807 134.377L388.785 131.925L385.312 131.721L379.592 135.194L378.774 136.011L378.979 139.484L382.452 140.506Z" fill="#DBE5F0"/>
<path d="M546.301 275.14L536.086 286.172L544.054 281.882L549.979 284.742L545.076 289.032L552.839 292.505L558.559 289.441L567.344 293.323L561.624 302.72L569.387 300.473L568.774 307.215L569.796 315.183L562.441 326.624L557.538 327.032L551.613 324.581L556.721 314.161L554.269 312.527L539.355 323.559L533.226 323.151L542.215 317.022L533.226 313.957L521.989 314.774L502.377 314.366L501.968 310.688L509.731 305.989L506.258 302.72L517.29 294.957L534.043 274.731L542.624 267.581L552.839 263.29L557.129 263.699L554.065 267.172L546.301 275.14Z" fill="#DBE5F0"/>
<path d="M482.559 295.161L477.656 295.366L465.806 291.484L458.656 285.355L462.538 284.333L474.591 287.602L483.172 292.914L482.559 295.161Z" fill="#DBE5F0"/>
<path d="M286.634 782.624L279.075 784.871L275.806 791.409L271.107 795.086L267.43 799.989L265.591 809.387L261.914 817.151L267.839 817.968L269.064 823.892L271.516 826.957L272.129 832.064L270.699 836.968L270.903 839.828L273.763 840.849L276.215 845.344L291.129 844.118L297.871 845.753L305.634 857.194L310.333 855.763L318.71 856.376L325.247 854.946L329.333 857.194L326.882 864.14L324.226 868.634L323 878.032L325.247 886.817L328.312 890.699L328.72 893.559L322.796 900.097L326.882 902.957L329.946 907.656L333.215 920.731L330.968 922.366L328.925 914.602L325.656 910.312L321.774 915.011L299.301 914.602V922.774L306.043 924.204L305.634 929.312L303.387 927.882L296.85 929.925L296.645 939.527L301.957 944.43L303.796 951.785L303.591 957.505L299.097 993.462L293.172 986.516L289.699 986.312L296.85 972.828L287.86 966.699L280.914 967.925L276.624 965.677L270.29 969.151L261.71 967.312L254.559 953.624L249.247 950.355L245.57 944.021L237.806 937.892L234.742 939.118L229.839 936.054L224.118 931.763L220.849 933.806L211.043 931.968L208.183 926.247L205.936 926.452L194.495 919.097L193.064 915.011L197.355 913.989L196.946 907.452L199.806 902.548L205.527 901.731L210.634 893.559L215.129 886.613L211.043 883.548L213.495 875.989L211.247 863.935L213.903 860.462L212.473 849.43L207.979 842.28L209.817 835.946L213.495 836.968L215.742 833.086L213.495 825.323L214.925 823.484L220.849 823.892L230.043 814.699L234.946 813.269L235.151 808.978L238.011 797.742L244.957 791.817L252.108 791.409L253.333 788.753L262.323 789.774L271.72 783.237L276.419 780.376L282.344 774.043L286.43 774.86L289.086 778.333L286.634 782.624Z" fill="#DBE5F0"/>
<path d="M144.032 793.656L146.484 800.807L150.57 806.118L155.677 811.634L151.183 812.86L150.978 818.172L153.226 820.011L151.387 821.645L151.796 823.893L150.57 826.548L149.957 829.204L143.828 826.344L141.58 823.484L143.011 821.237L142.806 818.376L139.742 815.312L135.247 812.656L131.57 811.022L130.957 807.14L128.097 804.893L128.505 808.57L126.054 811.839L123.602 808.161L120.129 806.731L118.699 804.28L118.903 800.194L120.742 796.108L117.677 794.269L120.537 791.613L122.376 789.979L129.731 793.452L132.387 791.817L136.064 792.839L137.699 795.495L141.172 796.516L144.032 793.656Z" fill="#DBE5F0"/>
<path d="M205.731 638.591L209.613 643.29L220.236 641.86L223.914 644.925L232.494 653.097L239.032 659.021L242.709 658.817L249.247 661.473L248.021 665.15L256.193 665.763L264.161 671.075L262.527 674.14L254.763 675.774L247 676.387L239.441 675.366L222.892 676.591L231.473 669.441L227.183 665.968L219.828 665.15L216.355 661.269L214.72 653.914L208.183 654.322L197.967 650.849L194.903 647.989L180.398 645.946L176.72 643.495L181.419 640.226L170.387 639.613L161.398 646.355L156.699 646.559L154.656 649.828L148.935 651.258L144.236 649.828L150.774 645.946L153.839 641.043L159.355 638.183L165.484 635.731L174.269 634.505L177.129 632.871L186.731 633.892L195.72 634.097L205.731 638.591Z" fill="#DBE5F0"/>
<path d="M289.29 700.494L289.903 696.817L287.247 692.935L290.312 690.688L291.742 685.581L291.537 678.634L293.172 676.387H301.957L308.494 679.656L311.559 679.451L312.989 684.15L319.322 683.742L318.505 687.624L323.613 688.236L328.72 692.935L324.021 698.247L318.709 695.387L313.398 696L309.72 695.387L307.473 697.839L302.978 698.656L301.548 695.387L297.666 697.226L292.15 706.215L289.494 704.172L289.29 700.494Z" fill="#DBE5F0"/>
<path d="M89.8926 703.559L88.4624 713.978L85.8065 728.688H89.2796L92.7528 731.14L93.9786 729.097L97.0431 730.731L91.3226 735.839L85.3979 739.516L84.3764 741.968L84.9894 744.624L82.3334 747.892L79.4732 748.71L80.0861 750.344L77.6345 751.774L73.5485 755.043L72.9355 756.882L67.2151 754.634L60.0646 754.43L55.1614 751.774L49.4409 746.462L50.2582 742.581L51.8926 739.516L50.4624 737.064L57.2044 726.441H71.914L72.7313 721.946L71.0968 721.129L70.0753 718.269L66.1936 715.204L62.5162 710.914L67.6238 710.71L68.6453 703.355H79.2689L89.8926 703.559Z" fill="#DBE5F0"/>
<path d="M154.247 740.334L150.365 740.129L148.527 741.968L144.441 743.602H141.58L138.924 745.237L136.677 744.828L134.838 742.785L133.613 743.194L131.774 746.258L130.752 746.054L130.344 748.914L126.053 752.387L123.602 754.022L122.376 755.656L119.312 753L116.451 756.473H114L111.344 756.678L110.935 763.215H109.301L107.666 766.28L103.989 766.893L102.355 762.807L98.8814 761.581L100.312 756.269L98.8814 754.839L96.4298 754.022L91.3222 755.452L91.118 753.817L87.8492 751.57L85.6018 749.118L82.333 747.893L84.989 744.624L84.376 741.968L85.3975 739.516L91.3222 735.839L97.0427 730.731L98.2685 731.344L100.924 729.097L104.193 728.893L105.215 729.914L107.053 729.301L112.365 730.527L117.677 730.119L121.355 728.688L122.989 727.258L126.462 727.871L129.118 728.688L132.182 728.484L134.634 727.258L139.742 729.097L141.376 729.506L144.645 731.957L147.709 734.817L151.591 736.86L154.247 740.334Z" fill="#DBE5F0"/>
<path d="M291.537 678.634L291.742 685.581L290.312 690.688L287.247 692.935L289.903 696.817L289.29 700.495L281.935 698.247L276.419 699.065L269.473 698.247L263.957 700.699L258.236 696.613L259.666 692.323L270.086 694.161L278.462 695.183L282.957 692.323L278.258 686.602L279.075 681.495L271.925 679.452L274.989 675.979L281.935 676.387L291.537 678.634Z" fill="#DBE5F0"/>
<path d="M229.635 702.742L225.957 704.989L219.828 702.742L213.903 698.043L215.538 694.978L220.441 694.161L223.097 694.57L230.656 695.796L236.172 698.86L237.807 702.537L229.635 702.742Z" fill="#DBE5F0"/>
<path d="M10.6236 598.14L15.1183 597.731L8.5806 609.376L4.90321 618.774L1.22581 636.344L-1.02151 642.677L-0.204315 649.828L2.45157 656.365L3.26883 666.376L9.39786 676.183L11.0322 683.742L14.5054 690.075L26.1505 693.548L30.0322 699.064L40.6559 695.387L49.4408 694.161L58.4301 691.71L65.7849 689.462L73.7527 684.15L77.4301 676.591L79.8817 665.559L82.3333 661.677L90.5053 658.204L102.968 655.14L112.978 655.753L119.925 654.527L122.376 657.387L121.151 663.72L114 671.484L110.323 679.452L112.161 681.699L109.71 687.419L105.419 697.634L102.968 694.161L100.72 694.365L98.4731 694.57L93.3655 702.538L91.5269 700.903L90.0968 701.516L89.8925 703.559L79.2688 703.355H68.6452L67.6237 710.71L62.5161 710.914L66.1935 715.204L70.0752 718.269L71.0967 721.129L72.7312 721.946L71.9139 726.441H57.2043L50.4623 737.064L51.8925 739.516L50.2581 742.581L49.4408 746.462L38 732.365L32.6882 728.075L23.6989 724.602L17.1613 725.624L7.35484 730.527L1.43007 731.753L-6.12903 728.279L-14.5054 725.828L-24.3118 719.903L-32.6882 718.064L-44.7419 711.935L-53.5269 705.602L-55.7742 702.129L-62.1075 701.312L-73.1398 697.226L-77.0215 691.301L-88.0538 683.742L-92.5484 675.57L-94.1828 669.032L-90.3011 667.806L-90.914 664.129L-87.6451 660.656L-86.828 656.161L-89.8925 650.236V645.129L-92.5484 638.387L-100.312 625.312L-109.71 615.097L-113.591 606.925L-121.968 601.613L-123.398 598.344L-119.925 590.376L-124.828 587.312L-129.935 580.774L-130.344 571.785L-136.065 570.559L-140.763 563.817L-144.237 557.279L-143.624 553.193L-146.688 543.387L-147.301 533.376L-145.667 528.269L-152 522.957L-155.882 523.57L-160.785 520.097L-164.462 525.408L-164.667 531.537L-166.71 541.548L-164.667 546.86L-158.946 555.849L-158.129 559.118L-156.699 559.935L-156.495 564.43L-154.452 564.226V572.806L-151.796 576.075L-150.774 580.774L-145.258 587.312L-144.441 599.57L-142.398 605.29L-140.559 611.419L-141.172 618.365L-135.86 618.774L-132.591 624.699L-129.527 630.624L-130.14 633.075L-135.86 637.774H-137.903L-139.333 629.806L-145.258 622.247L-152.204 615.914L-157.312 612.645L-154.86 603.043L-155.065 595.892L-159.355 591.806L-165.688 586.086L-167.527 587.72L-169.57 584.247L-175.699 581.183L-180.194 573.419L-179.172 572.602L-174.882 573.215L-169.366 568.312L-167.323 562.387L-173.247 552.989L-178.559 549.516L-180.194 541.344L-181.419 532.559L-183.054 522.14L-183.462 510.29L-170.591 509.269L-156.086 507.839L-157.925 510.495L-143.624 516.828L-121.355 526.021H-99.2903H-90.5054L-88.871 520.505H-69.6667L-67.0108 525.204L-62.7205 529.494L-57.8172 535.215L-56.1828 541.957L-55.3656 549.312L-50.6667 553.193L-42.4947 557.075L-32.6882 546.86L-23.4946 546.452L-16.957 551.763L-13.6882 560.753L-11.8495 568.516L-6.94623 575.871L-6.53766 585.064L-4.69896 591.193L3.26883 595.279L10.6236 598.14Z" fill="#DBE5F0"/>
<path d="M154.247 740.333L153.226 741.763L152.204 744.624L153.022 749.322L149.957 753.817L148.323 759.129L147.301 764.849L147.71 768.322L147.505 774.247L145.667 775.473L144.237 781.193L144.645 784.667L142.194 787.935L142.398 791.408L144.032 793.656L141.172 796.516L137.699 795.495L136.065 792.839L132.387 791.817L129.731 793.451L122.376 789.978L120.538 791.613L116.86 787.527L111.753 782.215L109.505 777.925L105.011 773.634L99.9033 767.71L101.333 765.667L102.968 767.71L103.989 766.892L107.667 766.279L109.301 763.215H110.936L111.344 756.677L114 756.473H116.452L119.312 753L122.376 755.656L123.602 754.021L126.054 752.387L130.344 748.914L130.753 746.054L131.774 746.258L133.613 743.193L134.839 742.785L136.678 744.828L138.925 745.236L141.581 743.602H144.441L148.527 741.968L150.366 740.129L154.247 740.333Z" fill="#DBE5F0"/>
<path d="M214.925 823.484L213.495 825.323L215.742 833.086L213.495 836.968L209.817 835.946L207.979 842.28L204.301 838.602L202.258 831.452L205.118 827.979L202.258 827.162L200.419 822.871L194.699 819.194L189.796 820.011L187.14 824.506L182.237 827.774L179.785 828.183L178.559 831.043L183.667 838.194L180.398 839.828L178.763 841.667L173.247 842.484L171.613 834.516L169.979 836.764L166.301 835.946L164.258 830.839L159.559 829.817L156.495 828.387H151.591L151.183 831.248L149.957 829.205L150.57 826.549L151.796 823.893L151.387 821.645L153.226 820.011L150.979 818.172L151.183 812.86L155.677 811.635L159.559 816.334L159.151 819.194L163.645 819.807L164.871 818.581L167.936 821.85L173.656 820.828L178.763 817.559L185.914 814.903L190 811.022L196.333 811.839L195.925 813.065L202.258 813.473L207.161 815.925L210.839 819.807L214.925 823.484Z" fill="#DBE5F0"/>
<path d="M98.8818 761.58L97.4517 764.645L90.7098 764.441L86.6237 763.215L82.1291 760.559L76.0001 759.742L72.9355 756.882L73.5485 755.043L77.6345 751.774L80.0861 750.344L79.4732 748.71L82.3334 747.892L85.6022 749.118L87.8496 751.57L91.1184 753.817L91.3226 755.451L96.4302 754.021L98.8818 754.839L100.312 756.269L98.8818 761.58Z" fill="#DBE5F0"/>
<path d="M418 827.366L408.398 835.129L407.376 839.828L411.054 844.731L408.194 847.183L401.043 849.226V855.355L397.774 859.032L405.333 868.839L406.764 872.516L402.473 877.624L389.398 882.527L381.022 884.57L377.549 887.634L368.355 884.366L359.979 882.731L357.731 883.957L362.839 887.226L362.226 896.011L363.656 904.387L373.463 905.409L374.075 908.269L365.699 911.946L364.269 917.462L359.366 919.71L350.785 922.774L348.538 926.86L339.548 927.677L333.215 920.731L329.946 907.656L326.882 902.957L322.796 900.097L328.721 893.559L328.312 890.699L325.247 886.817L323 878.032L324.226 868.634L326.882 864.14L329.333 857.194L325.247 854.946L318.71 856.376L310.333 855.763L305.635 857.194L297.871 845.753L291.129 844.118L276.215 845.344L273.763 840.849L270.903 839.828L270.699 836.968L272.129 832.064L271.516 826.957L269.065 823.892L267.839 817.968L261.914 817.151L265.591 809.387L267.43 799.989L271.108 795.086L275.807 791.409L279.075 784.871L286.635 782.624L286.226 785.688L279.28 787.323L282.753 793.247L282.14 800.193L276.624 807.753L280.506 818.172L285.613 817.355L288.678 807.753L285.204 803.258V793.247L299.914 787.935L298.688 781.806L302.979 777.516L306.452 786.914L314.624 787.118L321.57 794.269L321.979 798.763H332.194L344.656 797.538L350.989 803.258L359.57 804.892L366.312 800.806L366.516 797.538L381.022 796.72L394.71 796.516L384.699 800.398L388.376 806.731L397.57 807.548L406.151 814.086L407.581 824.505L413.505 824.301L418 827.366Z" fill="#DBE5F0"/>
<path d="M194.903 309.258L182.441 313.344L172.839 318.451L163.441 323.968L162.419 325.806L174.064 323.15L178.355 327.441L187.753 324.376L197.763 320.086L208.796 315.796L202.462 322.537L207.57 324.172L212.677 329.075L223.097 326.215L233.516 325.193L234.129 328.871L237.193 329.279L239.645 329.688L242.71 334.796L233.107 336.021H232.903L225.344 334.591L216.15 337.043L208.591 338.269L198.989 346.645L192.86 351.344L193.677 352.774L204.914 344.398H206.344L196.742 354.408L190.817 363.398L185.71 370.753L184.484 377.086L182.849 380.15L181.624 383.623L181.828 390.365L182.441 391.387L186.118 391.183L189.387 389.753L192.247 388.118L198.989 381.785L202.667 373.204L202.462 365.236L205.322 359.72L210.634 353.387L214.925 348.892L220.441 345.828L219.623 350.118L224.118 343.785L226.774 342.559L230.247 337.656L238.011 340.312L243.731 345.215L242.097 351.14L238.828 357.064L231.064 362.172L230.247 365.441H232.29L241.075 359.925L244.344 361.15L243.322 368.71L241.892 374.021L234.333 381.172L230.247 385.666L224.731 390.57L230.247 393.226L235.355 394.043L243.527 392.204L251.086 388.731L257.215 386.892L266.613 383.215L278.462 375.451L278.667 374.226L279.279 370.344L284.796 368.71L292.763 369.322L300.935 370.344L310.333 366.054L311.559 360.946L311.15 359.107L325.043 350.118L330.559 347.871L346.495 347.667H365.495L367.742 344.602L371.215 343.989L376.322 341.946L382.043 336.021L388.581 326.011L399.817 316.408L402.064 319.677L409.623 317.634L412.892 321.312L406.968 338.677L411.462 346.032L411.871 350.322L398.796 356.451L386.537 360.946L374.279 364.828L366.107 372.591L363.451 375.451L361 382.398L362.43 389.14L366.72 389.548L367.129 384.849L369.376 387.71L367.333 391.387L359.57 393.43L354.462 393.226L345.882 395.473L341.183 396.086L334.849 396.699L324.634 400.58L341.183 398.129L343.43 400.58L327.29 404.462H320.548L321.366 402.828L317.075 406.505L319.935 407.118L314.828 416.516L304 426.527L304.204 423.054L301.957 422.441L299.505 419.172V426.322L301.548 428.57L300.322 433.473L295.419 438.58L286.226 449L285.408 448.591L291.333 439.602L287.247 434.699L289.29 423.667L285.408 429.387V437.763L278.871 435.72L285 439.806L281.935 452.269L284.796 453.29V457.785L282.753 470.86L273.355 480.462L260.892 484.344L251.903 492.107L246.183 492.925L239.236 497.828L236.581 502.118L222.484 510.699L214.72 517.032L207.57 524.796L203.688 533.989V543.183L204.914 554.419L207.978 563.613L206.957 569.333L209.613 584.452L207.57 593.441L206.344 598.548L202.258 606.516L198.581 608.15L193.269 606.516L192.451 600.796L188.774 597.731L184.688 586.495L181.419 576.484L180.602 571.376L184.688 562.591L183.054 555.441L176.72 544.408L172.839 542.365L160.376 548.494L158.538 547.677L154.452 541.548L148.322 538.279L135.247 540.118L125.849 538.484L117.064 539.505L111.957 541.548L113.183 545.021L111.753 550.333L113.387 552.989L110.935 554.624L107.258 552.785L102.559 555.236L94.5912 554.828L87.8493 547.882L77.8386 549.516L70.4837 546.451L63.3332 547.473L53.1182 550.538L40.6558 560.14L28.1934 565.86L20.6343 571.989L16.7525 577.914L14.7095 587.107L13.8923 593.236L15.1181 597.731L10.6235 598.14L3.26869 595.279L-4.6991 591.193L-6.5378 585.064L-6.94637 575.871L-11.8496 568.516L-13.6883 560.753L-16.9572 551.763L-23.4948 546.451L-32.6883 546.86L-42.4948 557.075L-50.6668 553.193L-55.3657 549.312L-56.1829 541.957L-57.8174 535.215L-62.7206 529.494L-67.0109 525.204L-69.6668 520.505H-88.8711L-90.5056 526.021H-99.2905H-121.355L-143.624 516.828L-157.925 510.494L-156.086 507.839L-170.592 509.269L-183.463 510.29L-182.85 503.753L-187.14 496.193L-191.635 494.559L-191.43 490.882L-197.355 490.064L-199.807 486.591L-209.613 485.365L-211.452 483.118L-209.817 475.968L-214.925 462.892L-215.946 444.71L-214.108 441.645L-216.764 437.355L-219.828 426.322L-216.151 415.699L-217.989 408.548L-210.022 397.72L-204.301 386.688L-202.054 376.677L-190.817 364.419L-182.645 352.774L-174.473 341.129L-165.688 323.763L-162.011 312.935L-161.194 307.011L-158.333 304.355L-146.484 308.849L-148.527 320.903L-144.032 317.43L-138.925 307.011L-135.656 296.591H-106.85H-76.8174H-67.0109H-36.1615H-6.12917H24.1074H54.5482H88.8708H123.602H144.441L147.097 291.688H150.57L148.731 298.634L150.774 300.677L157.516 301.494L166.914 303.537L174.882 307.419L183.871 305.785L194.903 309.258Z" fill="#DBE5F0"/>
<path d="M304 774.043L302.979 773.634L301.957 772.613L302.161 771.387L302.57 772L303.387 772.817L304 773.839V774.043Z" fill="#DBE5F0"/>
<path d="M388.376 698.247H387.968L388.581 697.43H389.194L388.785 698.043L388.376 698.247Z" fill="#DBE5F0"/>
<path d="M278.462 659.634L277.645 660.656L277.236 661.677L276.011 662.29H274.989L274.785 662.086L273.968 662.494L272.946 662.699L271.72 662.29L270.903 662.494L270.699 661.473L271.312 661.064L271.72 660.451L272.537 660.043L273.15 659.226H273.968L274.581 658.817L274.989 659.43L276.011 659.839L277.032 659.43L278.462 657.387H279.075V657.796L278.462 659.634Z" fill="#DBE5F0"/>
<path d="M278.871 656.161L278.462 654.935L279.688 654.323L280.301 654.935V655.344L279.688 655.548L278.871 656.161Z" fill="#DBE5F0"/>
<path d="M279.688 642.882L280.097 642.678L281.118 643.291H281.936L282.753 643.495L283.366 643.903V644.516L282.957 644.721L281.936 643.903H281.118L280.914 643.699L279.893 644.108L278.871 643.699V643.495L279.28 642.473L279.688 642.882Z" fill="#DBE5F0"/>
<path d="M271.72 639.204L271.312 640.022V641.452L271.108 642.269L270.29 642.882L269.882 643.699L269.064 644.312L267.634 644.925L267.43 645.333L267.021 644.925L267.226 644.516L268.043 644.312L268.452 643.903V643.495L269.269 643.29L269.677 642.473L270.495 642.269L271.108 641.452L270.699 640.839H269.882L269.473 640.43L270.29 639.409L270.495 639.204H271.72Z" fill="#DBE5F0"/>
<path d="M267.839 638.591L268.043 638.796H268.86L269.677 639.204L268.86 640.021L268.656 639.613H268.247L267.43 639.409L266.613 639L266 637.774L266.613 637.57L267.43 637.774L267.839 638.591Z" fill="#DBE5F0"/>
<path d="M249.043 626.538L250.268 627.968L250.881 628.377L251.494 629.398L250.881 629.194L250.677 628.785L250.064 628.581L249.247 627.764L248.838 627.559L248.43 626.742L249.043 626.538Z" fill="#DBE5F0"/>
<path d="M256.602 626.538L257.215 627.764L257.623 628.785V629.602L258.032 630.011L258.44 631.441V633.28L258.849 633.893L259.871 634.301L260.688 635.527V637.162L259.871 635.731V635.323L259.258 634.506L258.032 634.097L258.44 633.688L257.828 633.076V632.463L258.236 631.85L258.032 630.828L257.419 630.011L257.623 629.807L257.01 628.989L256.806 627.764L256.397 627.968L256.602 626.538Z" fill="#DBE5F0"/>
<path d="M262.527 626.538L261.914 626.946L261.301 626.742L261.097 626.333L262.322 625.925L262.527 626.538Z" fill="#DBE5F0"/>
<path d="M245.774 622.656L245.57 622.452L244.957 621.022H245.366L245.774 622.656Z" fill="#DBE5F0"/>
<path d="M267.226 621.635L266.409 622.86H265.591L266 622.247L266.204 621.022L267.021 620.409L267.226 621.226V621.635Z" fill="#DBE5F0"/>
<path d="M229.43 619.183L228.817 619.387L228.409 620L227.796 619.796L229.022 618.979L229.43 619.183Z" fill="#DBE5F0"/>
<path d="M229.839 620.613L230.656 621.022L231.065 620.613L231.269 619.592L231.677 619.387L232.086 620.613V621.635L231.882 622.247L232.086 623.473V624.086L231.269 625.721L230.86 625.925L230.043 625.516L230.452 624.903L231.269 624.495L231.065 624.291L229.839 625.108L229.43 624.699L230.247 624.086H229.43L229.022 624.291L228.613 623.882V622.452L228.817 622.043L228 621.022V620.613L228.817 620.204L229.022 619.592L229.634 619.387L229.839 618.979L231.065 618.366L231.269 619.183L230.247 620L229.839 620.613Z" fill="#DBE5F0"/>
<path d="M257.419 619.387L257.623 620.409L257.215 620.204L256.193 620.409L255.376 620.613L255.172 620.204L255.785 619.796L256.602 619.183V618.774L255.785 618.365L255.376 617.14L255.172 615.914L254.355 615.097V614.688L253.333 613.667L253.946 613.054L254.763 613.871V614.892L255.172 615.505L255.376 616.527L255.989 617.548L256.806 618.161L257.011 618.774L257.419 619.387Z" fill="#DBE5F0"/>
<path d="M236.376 608.151L236.989 608.559L235.763 609.172L235.15 608.968L234.742 609.376L233.72 609.172L234.129 608.559L234.946 608.151H236.376Z" fill="#DBE5F0"/>
<path d="M227.796 607.129L228.613 606.72L229.226 607.333L229.022 607.742L229.226 608.15L228.817 608.968L229.43 609.581L229.839 611.419L230.247 612.032L231.065 613.054L230.656 614.484L230.86 615.71L230.452 616.323L229.839 616.527L229.022 617.344L228.409 617.753H227.796L227.183 618.161H226.57V617.344L225.957 616.935L226.161 615.71L225.548 616.323L225.14 616.118L223.914 615.301L223.301 614.688L222.893 614.075L224.323 613.462L225.344 614.892L225.548 613.667L224.936 613.462L224.731 612.849L224.936 612.237L226.161 611.011L226.57 610.194L226.366 609.989L226.979 609.172V608.15L226.57 606.72L226.774 606.516H227.387L227.796 607.129Z" fill="#DBE5F0"/>
<path d="M244.344 601.817L244.548 602.226L245.161 603.043L246.795 604.473L247.817 604.677L248.021 604.882L248.43 605.699L249.043 606.516L250.064 607.333V607.742L249.656 609.376L249.451 609.785V610.398L249.247 611.419L248.838 612.032L248.634 613.462L248.43 613.667L248.021 612.441L247.204 611.828L247.408 611.419L248.43 611.624L248.838 611.215L248.634 610.806L248.838 609.989L249.451 609.172L249.656 608.15V607.538L248.634 606.72L247.817 605.29L247.204 604.882L245.978 604.269L245.365 603.656L244.139 603.247L243.322 603.656L244.139 601.817H244.344Z" fill="#DBE5F0"/>
<path d="M226.366 586.495L227.387 586.903H227.591L229.022 587.107L229.43 586.699L229.839 586.903H230.86L231.677 586.495H232.495L233.108 586.086L233.312 587.107L233.108 587.516H232.495H231.677L229.43 587.925H228.817L225.753 588.742L224.323 589.559H223.505L223.097 589.355L222.484 588.742L221.462 587.516L222.688 588.129L222.893 588.538H223.914L224.936 588.129L225.753 586.903L225.14 586.699L225.548 586.086L225.753 585.473L226.366 586.495Z" fill="#DBE5F0"/>
<path d="M235.15 583.839L236.785 584.247L237.193 584.043L238.011 584.656L239.849 586.699L240.258 587.925L241.075 588.129L242.505 589.15V589.559L242.097 590.581L242.505 592.011H241.688L240.667 592.828L240.462 593.236L239.849 595.279L239.645 597.118L239.236 597.527L238.624 597.118L238.419 596.301L237.602 596.097L238.215 595.075H238.624L239.645 594.258L239.441 593.441L239.849 592.624V592.011L240.258 591.398V590.172L240.667 589.968L241.075 589.355L241.279 588.742L240.667 588.538L239.645 588.333L239.441 587.72V587.312L238.624 586.903V586.29L238.011 584.86L237.602 584.656L236.989 584.86L235.968 584.656H235.355L234.129 583.839H235.15Z" fill="#DBE5F0"/>
<path d="M316.462 779.151H315.85L315.032 778.538L314.419 778.333L313.807 777.721L313.602 777.312L312.989 777.108L312.581 776.29L311.968 775.678L312.172 774.656L313.194 775.269L313.398 776.29L314.215 777.108L315.645 777.516L316.054 778.129L316.667 778.946L316.462 779.151Z" fill="#DBE5F0"/>
<path d="M198.581 678.634L198.785 678.839L199.807 678.634L200.215 678.021L198.581 678.634Z" fill="#DBE5F0"/>
<path d="M197.559 678.635L196.129 679.247L196.538 678.635H197.559Z" fill="#DBE5F0"/>
<path d="M181.011 683.742L181.624 683.946L182.032 683.129L182.849 683.333H183.871L184.075 683.742L183.667 684.151L183.258 683.946L182.441 684.151L182.032 684.355H180.602L181.011 683.742Z" fill="#DBE5F0"/>
<path d="M391.236 709.688L391.032 710.301H390.623L389.806 709.893L389.397 709.484L390.01 708.667L391.032 709.484L391.236 709.688Z" fill="#DBE5F0"/>
<path d="M388.376 700.495L387.559 700.29L387.968 699.677L388.581 699.473L388.376 700.495Z" fill="#DBE5F0"/>
<path d="M333.011 700.29L332.398 699.882L332.602 699.473H333.215L333.419 699.677L333.011 700.29Z" fill="#DBE5F0"/>
<path d="M362.838 699.269H362.43L360.591 699.882H359.365L359.774 699.473L360.591 699.064L361.408 698.86L362.634 699.064L362.838 699.269Z" fill="#DBE5F0"/>
<path d="M343.43 694.365L344.656 694.57H345.881L346.494 694.774L347.72 694.57L348.333 694.774L349.15 694.57L349.559 694.774L350.58 694.57L351.397 694.774H352.01L353.645 695.183V694.774L354.871 695.183L355.075 694.978L356.709 695.183L357.118 695.591H357.526L358.752 696.204L359.161 696L358.957 697.43L359.365 698.043L357.526 698.656L356.914 699.473L356.301 700.699L355.688 701.107L355.075 701.312H354.258L353.032 701.516L352.419 701.925L350.989 701.72L350.58 701.312L349.559 701.72L348.946 701.107L347.516 701.516L345.677 701.312L345.064 701.516L343.838 701.72L343.43 701.925L343.021 701.516L342.204 701.312L341.591 701.72L340.365 701.516L340.978 700.086V699.269L341.387 698.451L340.978 697.226L340.569 697.021L340.365 696.204L341.182 695.796L341.591 695.591V694.57L342.408 694.161L343.43 694.365Z" fill="#DBE5F0"/>
<path d="M388.376 700.494V700.699L387.559 700.494V700.29L388.376 700.494Z" fill="#DBE5F0"/>
<path d="M293.376 650.645H294.807L295.419 651.463H294.807L294.194 651.258L293.172 651.463L292.968 650.85L293.376 650.645Z" fill="#DBE5F0"/>
<path d="M287.86 650.441L288.473 651.258L289.699 651.054L289.29 651.462H288.064L287.247 651.054L287.86 650.441Z" fill="#DBE5F0"/>
<path d="M292.355 649.215V650.237L291.333 649.828L291.129 649.215L291.333 649.011L292.355 649.215Z" fill="#DBE5F0"/>
<path d="M371.827 695.183L371.01 695.592H370.806L370.193 696L369.989 695.796L370.193 695.183L371.419 694.979L371.827 695.183Z" fill="#DBE5F0"/>
<path d="M368.559 704.172L369.172 704.785L366.925 705.194L366.72 704.172L368.15 703.764L368.559 704.172Z" fill="#DBE5F0"/>
<path d="M369.989 696.408L369.581 696.817H368.559V696.408L369.172 696.204L369.989 696.408Z" fill="#DBE5F0"/>
<path d="M367.129 696L367.946 696.613L367.537 697.022L366.924 696.613H365.903L366.311 696.204L367.129 696Z" fill="#DBE5F0"/>
<path d="M322.591 779.355H322.183L321.978 778.333L322.183 777.721L321.978 777.108L321.161 776.903L320.548 776.29L320.753 775.677L323.204 776.903L323 777.312V778.129L322.591 778.538V779.355Z" fill="#DBE5F0"/>
<path d="M388.581 707.849L388.172 708.054V707.645L388.376 707.441L388.581 707.849Z" fill="#DBE5F0"/>
<path d="M385.516 706.011H385.312L385.516 705.602L385.72 705.806L385.516 706.011Z" fill="#DBE5F0"/>
<rect y="739" width="390" height="160" fill="url(#paint0_linear_169_882)"/>
</g>
<defs>
<linearGradient id="paint0_linear_169_882" x1="195" y1="739" x2="195" y2="899" gradientUnits="userSpaceOnUse">
<stop stop-color="white" stop-opacity="0"/>
<stop offset="0.800283" stop-color="white"/>
</linearGradient>
</defs>
</svg>
