<svg width="768" height="997" viewBox="0 0 768 997" fill="none" xmlns="http://www.w3.org/2000/svg">
<mask id="mask0_221_1407" style="mask-type:alpha" maskUnits="userSpaceOnUse" x="-601" y="0" width="1512" height="997">
<rect x="-601" width="1512" height="997" fill="white"/>
</mask>
<g mask="url(#mask0_221_1407)">
<path d="M392.457 864.891H388.102L391.432 846.445L393.226 833.378L393.482 830.816L395.275 830.048L397.581 832.097L403.986 822.105L406.804 821.849L406.548 824.411H409.11L408.342 829.023L405.011 835.94L406.036 838.502L403.73 844.395L404.498 845.932L401.936 854.387L398.606 858.742L395.788 859.255L392.457 864.891Z" fill="#DBE5F0"/>
<path d="M96.8 330.71L88.8577 333.016L72.717 325.842V320.206L65.2871 314.569L66.0557 309.957L55.0391 307.139L56.5763 298.428L60.4193 294.842L70.9235 298.172L77.0725 300.734L87.5767 302.271L88.0891 307.908L89.1139 315.338L97.3124 321.999L96.8 330.71Z" fill="#DBE5F0"/>
<path d="M43.2535 241.295L47.0965 243.345L59.9066 242.064L41.46 259.742L42.2287 272.552H37.3608L35.5674 265.378L36.8484 257.948L34.7988 253.08L38.1294 246.163L43.2535 241.295Z" fill="#DBE5F0"/>
<path d="M1104.96 -151.207L1082.67 -151.975L1046.8 -153L1020.41 -151.463L1017.08 -152.488L990.433 -151.975L973.78 -150.95L960.458 -149.413L947.648 -144.289L941.499 -147.107L931.507 -147.62L914.085 -143.777L895.126 -142.24L884.366 -141.983L868.993 -139.934L866.175 -136.603L872.58 -133.529L874.63 -129.173L885.903 -125.586L918.184 -126.355L936.887 -125.074L918.184 -120.975L912.548 -122.256L888.465 -122.512L885.647 -116.875L893.333 -112.52L886.159 -108.421L866.688 -105.603L853.878 -100.991L866.431 -98.6851L870.787 -90.9991L851.572 -96.1231L844.911 -95.3545L839.786 -86.6436L819.29 -83.8254L813.91 -77.9328L831.332 -77.1642L844.142 -75.627L874.117 -77.6766L895.895 -74.0897L928.432 -81.5196L931.251 -84.594L914.597 -84.0816L915.878 -86.8998L932.788 -90.7429L941.755 -95.3545L959.433 -98.6851L972.243 -102.784L970.45 -108.677L978.904 -110.727L967.631 -112.264L996.582 -113.289L1004.52 -115.851L1025.28 -117.644L1049.1 -126.611L1066.53 -129.686L1093.43 -136.091H1074.21L1084.46 -138.396L1107.52 -140.446L1132.63 -144.802L1135.44 -147.364L1122.12 -149.926L1104.96 -151.207Z" fill="#DBE5F0"/>
<path d="M879.754 -116.107L886.671 -112.264L870.018 -108.933L842.86 -99.9659L825.439 -99.1973L808.017 -100.735L803.918 -105.602L809.298 -109.702L820.315 -112.776H803.405L798.281 -116.619L799.306 -121.487L811.86 -126.355L822.364 -129.685L832.612 -130.454L831.844 -133.016L853.109 -133.528L857.208 -127.892L869.249 -125.586L881.547 -123.28L879.754 -116.107Z" fill="#DBE5F0"/>
<path d="M738.33 -95.6107L741.148 -100.479L741.404 -106.115L722.189 -110.47L706.561 -112.008L700.924 -107.396L708.098 -104.578L694.519 -101.247L714.503 -100.735L724.751 -96.8917L738.33 -95.6107Z" fill="#DBE5F0"/>
<path d="M776.504 -97.4041L759.595 -94.8421L755.496 -97.6603L757.033 -102.016L762.669 -106.884L773.942 -106.371L778.298 -105.603L784.19 -101.503L776.504 -97.4041Z" fill="#DBE5F0"/>
<path d="M641.998 -101.503L656.602 -103.809L648.147 -106.115L643.792 -106.627L629.188 -103.297L626.626 -101.503H641.998Z" fill="#DBE5F0"/>
<path d="M636.618 -93.0486L614.072 -89.4617L605.617 -93.3048L618.684 -97.1478L634.056 -98.4288L644.56 -96.6354L636.618 -93.0486Z" fill="#DBE5F0"/>
<path d="M782.653 -90.4866L787.265 -90.7428L790.083 -92.28L785.984 -94.3296L767.537 -94.5858L765.744 -91.2552L782.653 -90.4866Z" fill="#DBE5F0"/>
<path d="M579.229 -92.2802L564.369 -82.8007L550.79 -78.4453L541.054 -77.9329L515.69 -72.5526L497.5 -70.503L488.277 -73.3213L518.252 -82.8007L549.509 -90.743L563.6 -90.4868L579.229 -92.2802Z" fill="#DBE5F0"/>
<path d="M779.066 -81.5196L773.174 -85.6188L754.727 -86.3874L744.991 -81.2634L751.653 -77.4204L769.587 -75.8832L773.174 -70.2467L767.793 -64.0979L763.694 -56.9242L785.728 -52.825L800.075 -51.2877L820.571 -51.544L850.803 -53.5936L861.82 -51.8001L878.985 -54.6184L888.208 -58.2052L890.77 -63.3293L884.878 -68.1971L870.018 -69.2219L849.266 -67.9409L831.075 -65.3789L818.009 -66.4037L805.455 -66.9161L802.381 -69.9905L794.438 -72.8087L801.612 -77.4204L798.025 -81.5196H779.066Z" fill="#DBE5F0"/>
<path d="M630.469 -74.3458L628.676 -69.9904L639.949 -72.04L649.172 -71.5276L643.279 -65.1225L630.213 -59.2299L594.601 -57.1803L563.088 -51.5438L547.716 -51.2876L551.559 -55.3868L578.972 -61.2795L533.112 -59.7423L522.352 -62.0481L552.328 -74.3458L566.162 -77.9326L587.427 -73.5772L594.857 -66.1473L610.485 -65.1225L612.279 -77.164L627.139 -81.7757L635.081 -80.4947L630.469 -74.3458Z" fill="#DBE5F0"/>
<path d="M731.925 -75.1143L731.413 -81.007L728.851 -79.2135L716.297 -79.9821L696.569 -75.6267L686.834 -76.1391L675.817 -66.4034L692.726 -67.172L684.015 -59.7422L692.214 -57.6926L709.892 -58.9736L724.752 -68.7092L731.925 -75.1143Z" fill="#DBE5F0"/>
<path d="M753.959 -58.7178L743.454 -53.85L730.132 -54.8748L721.933 -58.2054L733.462 -63.8419L751.14 -67.4287L754.727 -62.8171L753.959 -58.7178Z" fill="#DBE5F0"/>
<path d="M398.606 -4.91539L433.194 -11.5766L439.855 -17.2131L463.425 -26.6926L499.038 -35.9159L515.691 -39.2465L511.591 -44.8829L506.724 -48.4698L482.384 -49.2384L471.624 -52.0566L435.756 -50.007L434.731 -42.0647L415.259 -33.3538L396.044 -23.6181L384.771 -17.9817L400.143 -10.808L398.606 -4.91539Z" fill="#DBE5F0"/>
<path d="M729.876 -30.0229L709.892 -20.0311L698.619 -20.5435L703.231 -32.3288L709.892 -38.7338L720.652 -44.3703L733.975 -47.9571L754.215 -47.4447L770.099 -44.3703L744.223 -32.585L729.876 -30.0229Z" fill="#DBE5F0"/>
<path d="M681.197 -41.2959L671.974 -44.1141L653.527 -37.709L655.833 -29.2544L636.874 -30.7916L632.519 -26.4361L647.635 -16.188L649.94 -11.064L658.651 -10.0392L680.172 -15.1632L693.495 -27.2047L683.759 -32.8412L699.388 -39.2462L700.669 -43.0893L681.197 -41.2959Z" fill="#DBE5F0"/>
<path d="M801.1 -35.1471L801.868 -26.9487L820.315 -37.4529L850.291 -42.8332L856.183 -29.2545L847.985 -20.5436L871.043 -24.3866L884.622 -29.7669L902.043 -23.1056L911.523 -16.7006L908.705 -10.8079L929.713 -13.8824L934.581 -5.17148L956.102 0.208771L961.739 5.58902L964.044 18.6553L940.73 25.0604L960.457 34.2837L975.573 37.3581L984.028 50.1682L1000.68 51.193L992.227 61.1849L964.3 77.838L954.052 71.6892L944.317 57.8543L929.201 59.6477L923.308 68.1024L930.226 76.3008L941.755 82.9621L944.317 86.8051L944.06 101.409L934.837 111.913L922.796 107.814L900.762 96.2846L909.986 108.838L917.159 117.806L916.391 122.93L888.465 117.037L868.993 108.326L859.258 101.409L865.407 97.0532L853.109 89.6233L841.067 82.7059L838.761 86.8051L805.199 89.1109L799.05 84.2431L812.885 73.4826L833.637 73.2264L857.464 71.433L856.952 66.3089L864.894 59.1353L887.44 45.3004L888.465 38.8953L887.184 34.2837L875.142 27.3662L856.952 22.7545L865.919 19.1677L860.795 10.4569L852.084 9.68825L847.216 5.0766L838.761 9.17586L818.521 10.9693L782.653 7.89484L763.694 3.79559L748.578 1.74599L743.711 -3.12186L759.851 -9.27071H745.248L753.702 -22.8494L771.893 -34.6347L787.265 -40.015L815.959 -43.6018L801.1 -35.1471Z" fill="#DBE5F0"/>
<path d="M901.275 -30.7918L903.068 -34.3787L891.539 -41.5523L870.018 -43.0895L864.382 -42.0647L860.026 -37.4531L865.407 -30.5356L867.712 -29.5108L880.266 -31.3042L901.275 -30.7918Z" fill="#DBE5F0"/>
<path d="M624.833 -38.4776L606.898 -29.7667L601.006 -38.99L606.386 -41.0396L620.477 -41.552L624.833 -38.4776Z" fill="#DBE5F0"/>
<path d="M511.591 -28.4859L523.633 -34.6347L516.459 -37.1967L480.078 -29.2545L466.756 -23.8742L446.772 -13.8824L460.607 -10.2955L476.748 -10.5517L446.772 -4.91528V-0.0474396L461.376 0.208771L484.69 -0.81604L501.343 2.25838L485.459 4.82039L471.368 4.0518L452.665 6.35762L444.21 7.89484L445.747 18.9115L456.764 17.3743L467.268 20.9612L466.5 27.6224L486.74 26.3414L515.691 24.2918L540.03 19.4239L553.096 18.6553L567.7 22.4984L584.865 24.548L593.064 19.4239L591.014 14.2999L609.204 13.0189L615.866 7.12622L603.055 0.464966L592.295 -6.19629L598.444 -15.6758L605.361 -28.7421L599.725 -34.1223L592.039 -36.1719L581.022 -34.1223L573.848 -20.5436L562.832 -15.1634L568.468 -28.2297L563.857 -32.5851L545.154 -25.6677L538.493 -32.3289L511.591 -28.4859Z" fill="#DBE5F0"/>
<path d="M796.488 385.024L790.852 375.801L798.282 354.024L794.182 349.412L784.703 351.974L781.885 347.875L767.794 359.916L759.595 372.47L752.421 379.9L746.016 382.462L741.661 383.231L738.843 387.074H715.016L695.032 387.33L688.115 390.148L670.693 401.421V401.165L668.387 400.14L663.263 402.446L658.395 405.777L653.784 402.958L641.742 405.008L631.75 407.314L626.882 409.364L620.99 414.744L625.601 416.537L629.957 415.512H630.725L629.957 420.38L617.659 422.174L610.486 424.223L606.13 426.785L599.469 425.248L595.37 426.017L587.94 430.628L576.154 435.752L569.237 434.728L574.361 429.091L583.84 420.124L594.345 414.744L597.163 410.132L599.469 402.446L609.205 393.479L611.51 383.231L614.329 393.223L624.064 395.529L630.213 390.148L626.626 377.851L624.32 372.727L614.072 369.652L604.337 367.859H594.345L585.634 365.809L584.609 362.222L581.022 364.528L577.948 364.016L582.816 358.635L578.204 356.586L583.072 350.437L579.997 345.825L584.353 341.214L571.03 338.908L570.774 329.685L568.724 327.635L560.27 327.123L549.766 324.048L545.923 326.098L541.311 329.941L532.856 332.503L524.914 338.908L511.079 334.552L499.806 336.602L489.814 331.734L478.029 329.172L469.574 328.147L467.012 325.585L469.318 316.875H464.963L461.632 323.023H108.585L94.7506 307.395L90.6513 300.478L72.7172 293.816L76.0477 279.725L85.271 270.246L74.7667 263.328L82.709 250.774L77.3288 239.501L83.7338 231.303L96.8001 223.873L104.999 214.137L93.2133 204.402L96.8001 186.724L99.6184 175.963L95.5191 169.046L93.4695 162.897L95.0068 154.955L78.3536 159.823L58.8823 168.277L58.1136 158.542L56.8326 151.88L49.659 147.781L38.8984 147.269L130.106 63.4906L193.132 11.2253L208.504 14.556L216.959 21.2172L226.438 22.4982L242.579 16.8618L260.513 12.5063L274.092 14.0436L296.894 8.15091L317.903 4.82028L318.415 10.4567L329.944 7.1261L339.936 0.721039L345.316 2.25826L348.903 14.556L373.242 5.07648L363.25 15.5808L378.623 13.275L386.821 9.43193L398.606 10.2005L408.598 15.837L427.813 20.961L439.855 23.2668L451.128 22.4982L458.558 29.6719L436.78 36.5894L453.177 39.4076L483.665 37.8704L494.938 35.3083L498.525 43.763L516.715 36.8456L511.335 30.6967L522.864 26.0851L536.187 25.3165L546.179 24.0354L551.559 27.3661L555.402 34.7959L568.212 33.7711L581.791 40.1762L600.237 37.8704L615.61 38.1266L621.758 29.4157L633.287 27.1099L645.841 31.7215L634.825 45.044L650.709 33.7711L658.908 34.2835L675.305 20.1924L671.205 11.7377L663.776 6.10129L677.867 -9.01463L698.875 -18.7503L710.404 -16.4445L715.528 -10.5518L716.553 4.82028L701.693 11.4815L718.859 14.2998L707.586 28.3909L730.388 17.6304L736.025 26.5975L725.008 36.8456L728.339 46.325L747.041 36.3332L763.694 24.0354L775.736 8.91951L789.827 9.94432L803.662 11.9939L812.885 18.9114L808.53 25.8289L795.463 33.2587L797.769 40.6886L791.62 47.606L763.694 57.5979L747.041 59.9037L738.843 55.5483L730.388 62.722L711.429 74.7635L703.743 81.1685L684.015 90.9042L667.362 91.929L654.296 98.0779L646.866 107.814L632.263 109.607L609.973 121.648L585.89 138.302L573.08 150.087L560.526 167.765L575.898 170.327L572.055 184.418L570.005 196.203L588.708 193.129L606.643 199.79L615.097 205.683L619.453 212.856L632.006 217.212L641.23 223.617L660.701 224.642L672.999 226.179L663.776 239.501L659.42 255.13L659.676 272.808L670.949 287.924L682.991 282.8L697.338 266.403L703.231 241.807L698.875 233.609L721.933 226.179L741.149 215.418L753.446 204.658L757.802 194.41L756.777 181.344L748.578 169.814L771.38 153.93L773.943 140.351L783.934 117.293L793.67 113.706L810.836 117.805L821.596 119.343L833.125 115.243L841.068 120.367L850.291 129.078L850.803 134.715L870.531 135.996L863.869 148.55L857.977 167.509L867.712 170.071L871.812 179.038L892.82 170.583L912.035 153.674L922.796 146.756L925.614 160.335L932.275 179.55L937.399 197.997L928.689 207.732L940.986 216.443L948.416 225.154L966.094 229.253L972.243 234.121V247.444L980.954 249.493L983.772 255.386L978.648 273.064L967.631 278.957L956.871 284.593L934.325 290.229L914.085 303.04L892.052 305.858L866.175 302.271H847.473L833.894 303.296L819.29 314.825L800.331 321.999L774.455 343.007L754.215 357.867L766.256 355.305L794.182 334.04L825.695 320.718L845.167 319.18L853.621 327.123L837.993 337.883L836.456 355.049L836.712 367.346L851.059 375.289L873.093 372.983L891.539 354.792L888.977 366.578L895.382 372.47L876.423 382.975L844.654 392.71L829.795 399.115L811.348 410.901L801.868 409.62L805.711 396.041L832.357 382.462L811.604 382.975L796.488 385.024Z" fill="#DBE5F0"/>
<path d="M650.197 24.5482L660.701 19.6804L658.908 14.3001L657.883 11.7381L653.784 9.17612L646.097 5.33307L633.544 11.2257L620.734 15.5812L629.444 21.73L639.436 20.449L650.197 24.5482Z" fill="#DBE5F0"/>
<path d="M851.572 47.0936L839.018 47.8623L840.811 40.9448L850.547 33.0025L861.564 31.2091L867.456 35.0522L863.613 40.9448L861.307 42.9944L851.572 47.0936Z" fill="#DBE5F0"/>
<path d="M734.231 74.7637L736.537 68.3587L729.363 67.3339L716.297 80.4002L707.073 91.9293L692.47 99.103L708.611 97.8219L706.817 106.277L727.826 98.8467L743.967 90.9045L746.016 97.5658L761.132 101.153L773.942 96.5409L769.074 91.6731L760.107 92.6979L763.694 85.7804L753.959 81.425L744.992 76.3009L741.148 72.4579L734.231 74.7637Z" fill="#DBE5F0"/>
<path d="M744.479 111.401L726.032 119.599L718.346 119.087V115.244L731.157 108.326L746.529 108.582L744.479 111.401Z" fill="#DBE5F0"/>
<path d="M760.107 127.285L769.331 119.599L768.05 116.525L763.694 116.269L756.521 120.624L755.496 121.649L755.752 126.004L760.107 127.285Z" fill="#DBE5F0"/>
<path d="M965.582 296.122L952.772 309.957L962.764 304.577L970.193 308.164L964.045 313.544L973.78 317.9L980.954 314.057L991.971 318.924L984.797 330.71L994.533 327.891L993.764 336.346L995.045 346.338L985.822 360.685L979.673 361.198L972.243 358.123L978.648 345.057L975.574 343.007L956.871 356.842L949.185 356.33L960.458 348.644L949.185 344.801L935.094 345.826L910.498 345.313L909.986 340.702L919.721 334.809L915.366 330.71L929.201 320.974L950.21 295.61L960.97 286.643L973.78 281.263L979.16 281.775L975.317 286.13L965.582 296.122Z" fill="#DBE5F0"/>
<path d="M885.646 321.23L879.498 321.487L864.638 316.619L855.671 308.933L860.539 307.652L875.655 311.751L886.415 318.412L885.646 321.23Z" fill="#DBE5F0"/>
<path d="M639.948 932.528L630.469 935.347L626.369 943.545L620.477 948.157L615.865 954.306L613.559 966.091L608.948 975.827L616.378 976.851L617.915 984.281L620.989 988.124L621.758 994.529L619.964 1000.68L620.221 1004.27L623.807 1005.55L626.882 1011.18L645.584 1009.65L654.039 1011.69L663.775 1026.04L669.668 1024.25L680.172 1025.02L688.37 1023.22L693.494 1026.04L690.42 1034.75L687.089 1040.39L685.552 1052.17L688.37 1063.19L692.213 1068.06L692.726 1071.65L685.296 1079.84L690.42 1083.43L694.263 1089.32L698.362 1105.72L695.544 1107.77L692.982 1098.04L688.883 1092.65L684.015 1098.55L655.833 1098.04V1108.28L664.287 1110.08L663.775 1116.48L660.957 1114.69L652.758 1117.25L652.502 1129.29L659.163 1135.44L661.469 1144.66L661.213 1151.84L655.576 1196.93L648.146 1188.22L643.791 1187.96L652.758 1171.05L641.485 1163.37L632.774 1164.9L627.394 1162.09L619.452 1166.44L608.691 1164.14L599.724 1146.97L593.063 1142.87L588.451 1134.93L578.716 1127.24L574.873 1128.78L568.724 1124.94L561.55 1119.56L557.451 1122.12L545.153 1119.81L541.566 1112.64L538.748 1112.89L524.401 1103.67L522.607 1098.55L527.988 1097.27L527.475 1089.07L531.062 1082.92L538.236 1081.89L544.641 1071.65L550.277 1062.94L545.153 1059.09L548.228 1049.61L545.409 1034.5L548.74 1030.14L546.947 1016.31L541.31 1007.34L543.616 999.397L548.228 1000.68L551.046 995.81L548.228 986.075L550.021 983.769L557.451 984.281L568.98 972.752L575.129 970.959L575.385 965.579L578.972 951.487L587.683 944.058L596.65 943.545L598.187 940.215L609.46 941.496L621.245 933.297L627.138 929.71L634.568 921.768L639.692 922.793L643.022 927.148L639.948 932.528Z" fill="#DBE5F0"/>
<path d="M461.119 946.364L464.194 955.331L469.318 961.992L475.723 968.909L470.086 970.447L469.83 977.108L472.648 979.414L470.343 981.463L470.855 984.281L469.318 987.612L468.549 990.943L460.863 987.356L458.045 983.769L459.838 980.951L459.582 977.364L455.739 973.521L450.103 970.19L445.491 968.141L444.722 963.273L441.136 960.455L441.648 965.066L438.574 969.165L435.499 964.554L431.144 962.76L429.35 959.686L429.606 954.562L431.912 949.438L428.069 947.132L431.656 943.801L433.962 941.752L443.185 946.107L446.516 944.058L451.128 945.339L453.177 948.669L457.533 949.95L461.119 946.364Z" fill="#DBE5F0"/>
<path d="M538.492 751.906L543.36 757.799L556.682 756.005L561.294 759.848L572.054 770.096L580.253 777.526L584.864 777.27L593.063 780.6L591.526 785.212L601.774 785.981L611.766 792.642L609.716 796.485L599.98 798.535L590.245 799.303L580.765 798.022L560.013 799.559L570.773 790.592L565.393 786.237L556.17 785.212L551.814 780.344L549.765 771.121L541.566 771.633L528.756 767.278L524.913 763.691L506.723 761.129L502.111 758.055L508.004 753.955L494.169 753.187L482.896 761.642L477.003 761.898L474.441 765.997L467.268 767.79L461.375 765.997L469.574 761.129L473.417 754.98L480.334 751.393L488.02 748.319L499.037 746.782L502.623 744.732L514.665 746.013L525.938 746.269L538.492 751.906Z" fill="#DBE5F0"/>
<path d="M643.279 829.535L644.047 824.923L640.717 820.056L644.56 817.237L646.353 810.832L646.097 802.121L648.147 799.303H659.163L667.362 803.402L671.205 803.146L672.998 809.039L680.941 808.526L679.916 813.394L686.321 814.163L692.726 820.056L686.833 826.717L680.172 823.13L673.511 823.899L668.899 823.13L666.081 826.204L660.444 827.229L658.651 823.13L653.783 825.436L646.866 836.709L643.535 834.147L643.279 829.535Z" fill="#DBE5F0"/>
<path d="M393.226 833.378L391.433 846.444L388.102 864.891H392.457L396.813 867.965L398.35 865.403L402.193 867.453L395.019 873.858L387.59 878.47L386.309 881.544L387.077 884.875L383.747 888.974L380.16 889.999L380.928 892.048L377.854 893.842L372.73 897.941L371.961 900.247L364.788 897.429L355.821 897.172L349.672 893.842L342.498 887.181L343.523 882.313L345.573 878.47L343.779 875.395L352.234 862.073H370.68L371.705 856.436L369.655 855.411L368.374 851.825L363.507 847.982L358.895 842.601L365.3 842.345L366.581 833.122H379.904L393.226 833.378Z" fill="#DBE5F0"/>
<path d="M473.929 879.495L469.061 879.239L466.756 881.545L461.632 883.594H458.045L454.714 885.644L451.896 885.131L449.59 882.569L448.053 883.082L445.747 886.925L444.466 886.669L443.954 890.255L438.573 894.611L435.499 896.661L433.962 898.71L430.119 895.38L426.532 899.735H423.457L420.127 899.991L419.614 908.19H417.565L415.515 912.033L410.904 912.801L408.854 907.677L404.498 906.14L406.292 899.479L404.498 897.685L401.424 896.661L395.019 898.454L394.763 896.404L390.664 893.586L387.845 890.512L383.746 888.974L387.077 884.875L386.308 881.545L387.589 878.47L395.019 873.858L402.193 867.453L403.73 868.222L407.061 865.404L411.16 865.148L412.441 866.429L414.747 865.66L421.408 867.197L428.069 866.685L432.681 864.891L434.73 863.098L439.086 863.867L442.416 864.891L446.259 864.635L449.334 863.098L455.739 865.404L457.788 865.916L461.888 868.991L465.731 872.577L470.599 875.139L473.929 879.495Z" fill="#DBE5F0"/>
<path d="M646.097 802.122L646.353 810.833L644.56 817.238L640.717 820.056L644.047 824.924L643.279 829.535L634.055 826.717L627.138 827.742L618.427 826.717L611.51 829.791L604.336 824.667L606.129 819.287L619.196 821.593L629.7 822.874L635.336 819.287L629.444 812.114L630.469 805.709L621.502 803.146L625.345 798.791L634.055 799.303L646.097 802.122Z" fill="#DBE5F0"/>
<path d="M568.468 832.353L563.856 835.172L556.17 832.353L548.74 826.461L550.79 822.618L556.939 821.593L560.269 822.105L569.749 823.642L576.666 827.485L578.716 832.097L568.468 832.353Z" fill="#DBE5F0"/>
<path d="M293.82 701.178L299.456 700.665L291.258 715.269L286.646 727.054L282.035 749.088L279.216 757.03L280.241 765.997L283.572 774.195L284.597 786.749L292.283 799.047L294.332 808.527L298.688 816.469L313.291 820.824L318.159 827.742L331.482 823.13L342.498 821.593L353.771 818.518L362.994 815.7L372.986 809.039L377.598 799.559L380.672 785.725L383.747 780.857L393.995 776.501L409.623 772.658L422.177 773.427L430.888 771.89L433.962 775.476L432.425 783.419L423.458 793.154L418.846 803.146L421.152 805.964L418.078 813.138L412.698 825.948L409.623 821.593L406.805 821.849L403.987 822.105L397.582 832.097L395.276 830.048L393.483 830.816L393.226 833.378L379.904 833.122H366.581L365.3 842.345L358.895 842.601L363.507 847.982L368.375 851.825L369.656 855.412L371.705 856.436L370.68 862.073H352.234L343.779 875.395L345.573 878.47L343.523 882.313L342.498 887.181L328.151 869.503L321.49 864.122L310.217 859.767L302.018 861.048L289.721 867.197L282.291 868.734L272.811 864.379L262.307 861.304L250.009 853.874L239.505 851.569L224.389 843.882L213.372 835.94L210.554 831.585L202.612 830.56L188.777 825.436L183.909 818.006L170.074 808.527L164.438 798.278L162.388 790.08L167.256 788.543L166.487 783.931L170.587 779.576L171.611 773.939L167.768 766.509V760.104L164.438 751.65L154.702 735.253L142.917 722.443L138.049 712.195L127.545 705.533L125.751 701.434L130.107 691.442L123.958 687.599L117.553 679.401L117.04 668.128L109.867 666.591L103.974 658.136L99.6186 649.937L100.387 644.813L96.5441 632.516L95.7756 619.962L97.8251 613.557L89.8829 606.895L85.015 607.664L78.8662 603.309L74.2546 609.97L73.9984 617.656L71.4363 630.21L73.9984 636.871L81.172 648.144L82.1969 652.243L83.9902 653.268L84.2465 658.904L86.8085 658.648V669.409L90.1391 673.508L91.4201 679.401L98.3376 687.599L99.3624 702.971L101.924 710.145L104.23 717.831L103.462 726.542L110.123 727.054L114.222 734.484L118.065 741.914L117.297 744.988L110.123 750.881H107.561L105.767 740.889L98.3376 731.41L89.6267 723.467L83.2217 719.368L86.296 707.327L86.0399 698.36L80.6596 693.236L72.7174 686.062L70.4116 688.112L67.8495 683.756L60.1635 679.913L54.527 670.177L55.808 669.153L61.1883 669.921L68.1057 663.772L70.6678 656.342L63.2378 644.557L56.5766 640.202L54.527 629.954L52.9898 618.937L50.9402 605.871L50.4277 591.011L66.5685 589.73L84.7589 587.937L82.453 591.267L100.387 599.209L128.313 610.738H155.983H167L169.049 603.821H193.132L196.463 609.714L201.843 615.094L207.992 622.268L210.042 630.722L211.067 639.946L216.959 644.813L227.207 649.681L239.505 636.871L251.034 636.359L259.232 643.02L263.332 654.293L265.638 664.029L271.786 673.252L272.299 684.781L274.605 692.467L284.597 697.591L293.82 701.178Z" fill="#DBE5F0"/>
<path d="M473.929 879.494L472.648 881.288L471.367 884.875L472.392 890.767L468.549 896.404L466.499 903.065L465.218 910.239L465.731 914.594L465.474 922.024L463.169 923.561L461.375 930.735L461.888 935.09L458.813 939.19L459.069 943.545L461.119 946.363L457.532 949.95L453.177 948.669L451.127 945.338L446.515 944.057L443.185 946.107L433.962 941.752L431.656 943.801L427.044 938.677L420.639 932.016L417.821 926.636L412.184 921.255L405.779 913.826L407.573 911.264L409.622 913.826L410.903 912.801L415.515 912.032L417.565 908.189H419.614L420.127 899.991L423.457 899.734H426.532L430.119 895.379L433.962 898.71L435.499 896.66L438.573 894.61L443.953 890.255L444.466 886.668L445.747 886.924L448.053 883.081L449.59 882.569L451.896 885.131L454.714 885.643L458.045 883.594H461.631L466.755 881.544L469.061 879.238L473.929 879.494Z" fill="#DBE5F0"/>
<path d="M550.021 983.769L548.228 986.075L551.046 995.811L548.228 1000.68L543.616 999.397L541.31 1007.34L536.699 1002.73L534.137 993.761L537.723 989.406L534.137 988.381L531.831 983.001L524.657 978.389L518.508 979.414L515.178 985.05L509.029 989.149L505.954 989.662L504.417 993.249L510.822 1002.22L506.723 1004.27L504.673 1006.57L497.756 1007.6L495.706 997.604L493.657 1000.42L489.045 999.397L486.483 992.992L480.59 991.711L476.747 989.918H470.598L470.086 993.505L468.549 990.943L469.317 987.612L470.855 984.282L470.342 981.463L472.648 979.414L469.83 977.108L470.086 970.447L475.722 968.909L480.59 974.802L480.078 978.389L485.714 979.158L487.252 977.62L491.095 981.72L498.268 980.439L504.673 976.339L513.64 973.009L518.764 968.141L526.707 969.166L526.194 970.703L534.137 971.215L540.285 974.29L544.897 979.158L550.021 983.769Z" fill="#DBE5F0"/>
<path d="M404.499 906.139L402.705 909.983L394.251 909.726L389.127 908.189L383.49 904.858L375.804 903.834L371.961 900.247L372.73 897.941L377.854 893.842L380.928 892.048L380.159 889.999L383.746 888.974L387.846 890.511L390.664 893.586L394.763 896.404L395.019 898.453L401.424 896.66L404.499 897.685L406.292 899.478L404.499 906.139Z" fill="#DBE5F0"/>
<path d="M804.687 988.637L792.645 998.372L791.364 1004.27L795.976 1010.41L792.389 1013.49L783.422 1016.05V1023.74L779.323 1028.35L788.802 1040.65L790.596 1045.26L785.215 1051.66L768.818 1057.81L758.314 1060.37L753.959 1064.22L742.43 1060.12L731.925 1058.07L729.107 1059.6L735.512 1063.7L734.744 1074.72L736.537 1085.22L748.835 1086.51L749.603 1090.09L739.099 1094.7L737.306 1101.62L731.157 1104.44L720.396 1108.28L717.578 1113.41L706.305 1114.43L698.363 1105.72L694.264 1089.32L690.42 1083.43L685.296 1079.84L692.726 1071.65L692.214 1068.06L688.371 1063.19L685.553 1052.17L687.09 1040.39L690.42 1034.75L693.495 1026.04L688.371 1023.22L680.172 1025.02L669.668 1024.25L663.776 1026.04L654.04 1011.69L645.585 1009.65L626.882 1011.18L623.808 1005.55L620.221 1004.27L619.965 1000.68L621.758 994.529L620.99 988.124L617.915 984.281L616.378 976.851L608.948 975.827L613.56 966.091L615.866 954.306L620.477 948.157L626.37 943.545L630.469 935.347L639.949 932.528L639.436 936.372L630.725 938.421L635.081 945.851L634.312 954.562L627.395 964.041L632.263 977.108L638.668 976.083L642.511 964.041L638.155 958.405V945.851L656.602 939.19L655.065 931.504L660.445 926.123L664.8 937.909L675.048 938.165L683.759 947.132L684.272 952.768H697.082L712.71 951.231L720.652 958.405L731.413 960.454L739.868 955.33L740.124 951.231L758.314 950.206L775.48 949.95L762.926 954.818L767.537 962.76L779.067 963.785L789.827 971.984L791.62 985.05L799.05 984.794L804.687 988.637Z" fill="#DBE5F0"/>
<path d="M524.914 338.908L509.285 344.032L497.244 350.437L485.458 357.354L484.177 359.66L498.781 356.33L504.161 361.71L515.947 357.867L528.501 352.487L542.335 347.106L534.393 355.561L540.798 357.611L547.203 363.76L560.27 360.173L573.336 358.892L574.104 363.503L577.948 364.016L581.022 364.528L584.865 370.933L572.823 372.47H572.567L563.088 370.677L551.559 373.751L542.079 375.289L530.038 385.793L522.352 391.686L523.377 393.479L537.468 382.975H539.261L527.22 395.529L519.79 406.801L513.385 416.025L511.847 423.967L509.798 427.81L508.26 432.165L508.517 440.62L509.285 441.901L513.897 441.645L517.996 439.852L521.583 437.802L530.038 429.86L534.649 419.099L534.393 409.107L537.98 402.19L544.641 394.248L550.021 388.611L556.939 384.768L555.914 390.148L561.551 382.206L564.881 380.669L569.237 374.52L578.972 377.851L586.146 384L584.096 391.429L579.997 398.859L570.261 405.264L569.237 409.364H571.799L582.815 402.446L586.915 403.983L585.634 413.463L583.84 420.124L574.361 429.091L569.237 434.728L562.319 440.876L569.237 444.207L575.642 445.232L585.89 442.926L595.369 438.571L603.055 436.265L614.841 431.653L629.7 421.917L629.957 420.38L630.725 415.512L637.643 413.463L647.635 414.231L657.883 415.512L669.668 410.132L671.205 403.727L670.693 401.421L688.114 390.148L695.032 387.33L715.016 387.074H738.842L741.661 383.231L746.016 382.462L752.421 379.9L759.595 372.47L767.793 359.916L781.884 347.875L784.703 351.974L794.182 349.412L798.281 354.024L790.852 375.801L796.488 385.024L797 390.405L780.603 398.091L765.231 403.727L749.859 408.595L739.611 418.331L736.28 421.917L733.206 430.628L734.999 439.083L740.38 439.595L740.892 433.703L743.71 437.29L741.148 441.901L731.413 444.463L725.008 444.207L714.247 447.025L708.354 447.794L700.412 448.562L687.602 453.43L708.354 450.356L711.173 453.43L690.933 458.298H682.478L683.503 456.249L678.122 460.86L681.709 461.629L675.304 473.414L661.726 485.968L661.982 481.613L659.164 480.844L656.089 476.745V485.712L658.651 488.53L657.114 494.679L650.965 501.084L639.436 514.15L638.411 513.638L645.841 502.365L640.717 496.216L643.279 482.381L638.411 489.555V500.059L630.213 497.497L637.899 502.621L634.056 518.249L637.643 519.53V525.167L635.081 541.564L623.295 553.605L607.667 558.473L596.394 568.209L589.22 569.234L580.51 575.382L577.179 580.763L559.501 591.523L549.765 599.466L540.798 609.201L535.93 620.73V632.259L537.468 646.351L541.311 657.88L540.03 665.053L543.36 684.012L540.798 695.285L539.261 701.69L534.137 711.682L529.525 713.732L522.864 711.682L521.839 704.508L517.228 700.665L512.104 686.574L508.004 674.02L506.979 667.615L512.104 656.599L510.054 647.632L502.112 633.797L497.244 631.235L481.615 638.921L479.31 637.896L474.186 630.21L466.5 626.111L450.103 628.416L438.317 626.367L427.301 627.648L420.896 630.21L422.433 634.565L420.639 641.226L422.689 644.557L419.615 646.607L415.003 644.301L409.11 647.375L399.118 646.863L390.664 638.152L378.11 640.202L368.887 636.359L359.919 637.64L347.109 641.483L331.481 653.524L315.853 660.698L306.373 668.384L301.505 675.814L298.943 687.343L297.919 695.029L299.456 700.665L293.819 701.178L284.596 697.591L274.604 692.467L272.298 684.781L271.786 673.252L265.637 664.028L263.331 654.293L259.232 643.02L251.034 636.359L239.504 636.871L227.207 649.681L216.959 644.813L211.066 639.945L210.041 630.722L207.992 622.268L201.843 615.094L196.462 609.714L193.132 603.821H169.049L166.999 610.738H155.983H128.313L100.387 599.209L82.4525 591.267L84.7584 587.936L66.568 589.73L50.4272 591.011L51.1959 582.812L45.8156 573.333L40.1791 571.283L40.4353 566.672L33.0055 565.647L29.931 561.291L17.6334 559.754L15.3275 556.936L17.3771 547.969L10.9721 531.572L9.69107 508.77L11.9969 504.927L8.66627 499.547L4.82324 485.712L9.43485 472.389L7.12905 463.422L17.1209 449.843L24.2946 436.009L27.1129 423.455L41.204 408.083L51.4521 393.479L61.7002 378.875L72.7168 357.098L77.3284 343.52L78.3533 336.09L81.9401 332.759L96.7998 338.396L94.2378 353.511L99.8743 349.156L106.279 336.09L110.379 323.023H146.503H184.165H196.462H235.149H272.811H310.729H348.903H391.945H435.499H461.632L464.962 316.875H469.318L467.012 325.585L469.574 328.147L478.029 329.172L489.814 331.734L499.806 336.602L511.079 334.552L524.914 338.908Z" fill="#DBE5F0"/>
<path d="M193.132 11.2253L130.106 63.4906L38.8982 147.269L49.6587 147.781L56.8323 151.88L58.1133 158.542L58.882 168.277L78.3534 159.823L95.0065 154.955L93.4693 162.897L95.5189 169.046L99.6181 175.963L96.7999 186.724L93.213 204.402L104.998 214.137L96.7999 223.873L83.7336 231.303L82.1964 225.667L75.7914 220.542L84.246 207.22L80.1467 194.666L87.0642 180.319L76.5599 179.294L58.3695 179.038L48.6339 174.426L40.1792 158.798L31.7245 155.98L17.121 150.599L-0.30072 151.88L-15.6729 144.963L-22.5904 138.558L-38.731 141.632L-47.6982 152.136L-55.128 153.161L-72.0374 156.236L-87.9219 161.36L-104.319 164.69L-96.1203 155.723L-74.5994 140.864L-57.1776 136.252L-56.1528 132.665L-80.2358 140.864L-99.1948 150.855L-127.889 161.616L-127.377 169.046L-150.435 179.806L-170.163 186.211L-187.072 191.079L-197.32 197.74L-224.478 205.683L-236.007 212.856L-257.015 219.518L-263.933 218.493L-279.817 222.592L-297.751 227.972L-313.38 233.096L-339 237.708L-337.975 234.89L-316.967 227.716L-300.057 222.848L-278.024 214.394L-261.371 212.856L-248.561 206.451L-221.916 197.228L-216.023 194.154L-201.419 188.773L-186.56 177.244L-170.675 168.277L-189.378 172.889L-190.147 170.071L-202.7 175.707L-201.676 168.021L-210.899 173.401L-206.8 165.971L-225.502 171.864H-232.676L-223.197 162.897L-214.742 157.261L-215.767 151.88L-234.213 154.955L-235.751 147.781L-239.081 144.194L-228.833 135.74L-229.858 129.335L-214.742 120.88L-195.014 112.425L-181.436 104.995L-170.931 103.97L-166.32 106.276L-148.129 99.1027L-141.724 100.384L-127.377 95.772L-120.972 89.1108L-123.79 86.5487L-108.418 80.9123L-115.592 81.1685L-131.476 84.2429L-138.906 87.5736L-143.518 84.2429L-161.196 86.0363L-172.981 82.4495L-169.907 76.5569L-172.469 68.3584L-148.898 62.2095L-115.079 55.2921H-106.112L-117.129 62.4657L-93.5583 61.9533L-90.4839 52.9863L-96.3766 47.606L-94.327 40.4324L-96.1203 34.5397L-104.575 30.1843L-87.9219 22.7544L-68.7068 22.242L-46.1609 16.0932L-33.8632 9.4319L-13.6233 2.77064L-1.32553 1.23343L27.3691 -4.91542L35.3113 -3.89061L61.9564 -11.0643L73.2293 -8.24605L71.9483 -2.09719L80.403 -4.65922L96.5437 -3.89061L91.6758 -0.816184L104.23 1.48963L116.784 0.208619L132.668 4.30786L151.115 5.84507L156.751 7.38228L173.661 5.33267L184.165 9.4319L193.132 11.2253Z" fill="#DBE5F0"/>
<path d="M661.726 921.768L660.445 921.255L659.164 919.974L659.42 918.437L659.933 919.206L660.957 920.231L661.726 921.512V921.768Z" fill="#DBE5F0"/>
<path d="M767.537 826.717H767.024L767.793 825.692H768.562L768.049 826.461L767.537 826.717Z" fill="#DBE5F0"/>
<path d="M629.701 778.295L628.676 779.576L628.163 780.857L626.626 781.625H625.345L625.089 781.369L624.064 781.881L622.783 782.138L621.246 781.625L620.221 781.881L619.965 780.6L620.734 780.088L621.246 779.319L622.271 778.807L623.039 777.782H624.064L624.833 777.27L625.345 778.038L626.626 778.551L627.907 778.038L629.701 775.476H630.469V775.989L629.701 778.295Z" fill="#DBE5F0"/>
<path d="M630.212 773.939L629.7 772.402L631.237 771.633L632.006 772.402V772.914L631.237 773.171L630.212 773.939Z" fill="#DBE5F0"/>
<path d="M631.238 757.287L631.75 757.03L633.031 757.799H634.056L635.081 758.055L635.849 758.568V759.336L635.337 759.592L634.056 758.568H633.031L632.775 758.311L631.494 758.824L630.213 758.311V758.055L630.725 756.774L631.238 757.287Z" fill="#DBE5F0"/>
<path d="M621.245 752.675L620.733 753.699V755.493L620.477 756.518L619.452 757.286L618.939 758.311L617.915 759.08L616.121 759.848L615.865 760.361L615.353 759.848L615.609 759.336L616.634 759.08L617.146 758.567V758.055L618.171 757.799L618.683 756.774L619.708 756.518L620.477 755.493L619.964 754.724H618.939L618.427 754.212L619.452 752.931L619.708 752.675H621.245Z" fill="#DBE5F0"/>
<path d="M616.378 751.906L616.634 752.162H617.659L618.684 752.675L617.659 753.699L617.403 753.187H616.891L615.866 752.931L614.841 752.418L614.072 750.881L614.841 750.625L615.866 750.881L616.378 751.906Z" fill="#DBE5F0"/>
<path d="M592.807 736.79L594.344 738.584L595.113 739.096L595.881 740.377L595.113 740.121L594.856 739.609L594.088 739.352L593.063 738.328L592.551 738.071L592.038 737.047L592.807 736.79Z" fill="#DBE5F0"/>
<path d="M602.287 736.79L603.055 738.328L603.568 739.609V740.633L604.08 741.146L604.592 742.939V745.245L605.105 746.014L606.386 746.526L607.411 748.063V750.113L606.386 748.319V747.807L605.617 746.782L604.08 746.27L604.592 745.757L603.824 744.989V744.22L604.336 743.452L604.08 742.171L603.311 741.146L603.568 740.89L602.799 739.865L602.543 738.328L602.03 738.584L602.287 736.79Z" fill="#DBE5F0"/>
<path d="M609.716 736.79L608.948 737.302L608.179 737.046L607.923 736.534L609.46 736.021L609.716 736.79Z" fill="#DBE5F0"/>
<path d="M588.707 731.923L588.451 731.666L587.683 729.873H588.195L588.707 731.923Z" fill="#DBE5F0"/>
<path d="M615.609 730.641L614.584 732.179H613.56L614.072 731.41L614.328 729.873L615.353 729.104L615.609 730.129V730.641Z" fill="#DBE5F0"/>
<path d="M568.212 727.567L567.443 727.823L566.931 728.592L566.162 728.336L567.699 727.311L568.212 727.567Z" fill="#DBE5F0"/>
<path d="M568.724 729.36L569.749 729.873L570.261 729.36L570.517 728.079L571.03 727.823L571.542 729.36V730.641L571.286 731.41L571.542 732.947V733.716L570.517 735.766L570.005 736.022L568.98 735.509L569.492 734.741L570.517 734.228L570.261 733.972L568.724 734.997L568.211 734.485L569.236 733.716H568.211L567.699 733.972L567.187 733.46V731.666L567.443 731.154L566.418 729.873V729.36L567.443 728.848L567.699 728.079L568.468 727.823L568.724 727.311L570.261 726.542L570.517 727.567L569.236 728.592L568.724 729.36Z" fill="#DBE5F0"/>
<path d="M603.312 727.823L603.568 729.104L603.055 728.848L601.774 729.104L600.75 729.36L600.493 728.848L601.262 728.335L602.287 727.567V727.054L601.262 726.542L600.75 725.005L600.493 723.467L599.469 722.443V721.93L598.188 720.649L598.956 719.881L599.981 720.905V722.186L600.493 722.955L600.75 724.236L601.518 725.517L602.543 726.286L602.799 727.054L603.312 727.823Z" fill="#DBE5F0"/>
<path d="M576.922 713.732L577.691 714.244L576.154 715.013L575.385 714.757L574.873 715.269L573.592 715.013L574.104 714.244L575.129 713.732H576.922Z" fill="#DBE5F0"/>
<path d="M566.162 712.451L567.187 711.938L567.956 712.707L567.7 713.219L567.956 713.732L567.443 714.757L568.212 715.525L568.724 717.831L569.237 718.6L570.262 719.881L569.749 721.674L570.005 723.211L569.493 723.98L568.724 724.236L567.7 725.261L566.931 725.773H566.162L565.394 726.286H564.625V725.261L563.857 724.749L564.113 723.211L563.344 723.98L562.832 723.724L561.295 722.699L560.526 721.93L560.014 721.162L561.807 720.393L563.088 722.187L563.344 720.649L562.576 720.393L562.319 719.625L562.576 718.856L564.113 717.319L564.625 716.294L564.369 716.038L565.138 715.013V713.732L564.625 711.938L564.881 711.682H565.65L566.162 712.451Z" fill="#DBE5F0"/>
<path d="M586.915 705.79L587.171 706.302L587.94 707.327L589.989 709.12L591.27 709.376L591.526 709.633L592.039 710.657L592.807 711.682L594.088 712.707V713.219L593.576 715.269L593.32 715.781V716.55L593.064 717.831L592.551 718.6L592.295 720.393L592.039 720.649L591.526 719.112L590.502 718.343L590.758 717.831L592.039 718.087L592.551 717.575L592.295 717.062L592.551 716.038L593.32 715.013L593.576 713.732V712.963L592.295 711.938L591.27 710.145L590.502 709.633L588.964 708.864L588.196 708.095L586.659 707.583L585.634 708.095L586.659 705.79H586.915Z" fill="#DBE5F0"/>
<path d="M564.369 686.574L565.65 687.087H565.906L567.699 687.343L568.212 686.83L568.724 687.087H570.005L571.03 686.574H572.055L572.823 686.062L573.079 687.343L572.823 687.855H572.055H571.03L568.212 688.368H567.443L563.6 689.392L561.807 690.417H560.782L560.269 690.161L559.501 689.392L558.22 687.855L559.757 688.624L560.013 689.136H561.294L562.575 688.624L563.6 687.087L562.831 686.83L563.344 686.062L563.6 685.293L564.369 686.574Z" fill="#DBE5F0"/>
<path d="M575.386 683.244L577.435 683.756L577.948 683.5L578.972 684.268L581.278 686.83L581.791 688.368L582.815 688.624L584.609 689.905V690.417L584.096 691.698L584.609 693.492H583.584L582.303 694.517L582.047 695.029L581.278 697.591L581.022 699.897L580.51 700.409L579.741 699.897L579.485 698.872L578.46 698.616L579.229 697.335H579.741L581.022 696.31L580.766 695.285L581.278 694.26V693.492L581.791 692.723V691.186L582.303 690.93L582.815 690.161L583.072 689.392L582.303 689.136L581.022 688.88L580.766 688.111V687.599L579.741 687.087V686.318L578.972 684.525L578.46 684.268L577.691 684.525L576.41 684.268H575.642L574.104 683.244H575.386Z" fill="#DBE5F0"/>
<path d="M677.354 928.173H676.586L675.561 927.405L674.792 927.148L674.024 926.38L673.767 925.867L672.999 925.611L672.486 924.586L671.718 923.818L671.974 922.537L673.255 923.305L673.511 924.586L674.536 925.611L676.329 926.124L676.842 926.892L677.61 927.917L677.354 928.173Z" fill="#DBE5F0"/>
<path d="M529.525 802.122L529.782 802.378L531.063 802.122L531.575 801.353L529.525 802.122Z" fill="#DBE5F0"/>
<path d="M528.244 802.122L526.451 802.89L526.963 802.122H528.244Z" fill="#DBE5F0"/>
<path d="M507.492 808.527L508.261 808.783L508.773 807.758L509.798 808.014H511.079L511.335 808.527L510.823 809.039L510.31 808.783L509.285 809.039L508.773 809.295H506.979L507.492 808.527Z" fill="#DBE5F0"/>
<path d="M767.538 829.535L766.513 829.279L767.025 828.51L767.794 828.254L767.538 829.535Z" fill="#DBE5F0"/>
<path d="M698.106 829.279L697.338 828.767L697.594 828.254H698.363L698.619 828.51L698.106 829.279Z" fill="#DBE5F0"/>
<path d="M735.512 827.998H734.999L732.693 828.766H731.156L731.669 828.254L732.693 827.742L733.718 827.485L735.255 827.742L735.512 827.998Z" fill="#DBE5F0"/>
<path d="M711.172 821.849L712.709 822.105H714.247L715.015 822.361L716.552 822.105L717.321 822.361L718.346 822.105L718.858 822.361L720.139 822.105L721.164 822.361H721.933L723.982 822.874V822.361L725.519 822.874L725.776 822.618L727.825 822.874L728.338 823.386H728.85L730.387 824.155L730.9 823.899L730.643 825.692L731.156 826.461L728.85 827.229L728.081 828.254L727.313 829.791L726.544 830.304L725.776 830.56H724.751L723.214 830.816L722.445 831.329L720.652 831.072L720.139 830.56L718.858 831.072L718.09 830.304L716.296 830.816L713.99 830.56L713.222 830.816L711.685 831.072L711.172 831.329L710.66 830.816L709.635 830.56L708.866 831.072L707.329 830.816L708.098 829.023V827.998L708.61 826.973L708.098 825.436L707.585 825.18L707.329 824.155L708.354 823.642L708.866 823.386V822.105L709.891 821.593L711.172 821.849Z" fill="#DBE5F0"/>
<path d="M767.538 829.535V829.791L766.513 829.535V829.279L767.538 829.535Z" fill="#DBE5F0"/>
<path d="M648.403 767.022H650.197L650.965 768.047H650.197L649.428 767.791L648.147 768.047L647.891 767.278L648.403 767.022Z" fill="#DBE5F0"/>
<path d="M641.485 766.766L642.254 767.791L643.791 767.534L643.279 768.047H641.742L640.717 767.534L641.485 766.766Z" fill="#DBE5F0"/>
<path d="M647.122 765.229V766.51L645.841 765.997L645.585 765.229L645.841 764.972L647.122 765.229Z" fill="#DBE5F0"/>
<path d="M746.784 822.874L745.76 823.387H745.503L744.735 823.899L744.479 823.643L744.735 822.874L746.272 822.618L746.784 822.874Z" fill="#DBE5F0"/>
<path d="M742.685 834.147L743.453 834.916L740.635 835.428L740.379 834.147L742.172 833.635L742.685 834.147Z" fill="#DBE5F0"/>
<path d="M744.479 824.411L743.967 824.923H742.686V824.411L743.454 824.155L744.479 824.411Z" fill="#DBE5F0"/>
<path d="M740.892 823.899L741.917 824.668L741.404 825.18L740.636 824.668H739.354L739.867 824.155L740.892 823.899Z" fill="#DBE5F0"/>
<path d="M685.04 928.429H684.527L684.271 927.148L684.527 926.38L684.271 925.611L683.246 925.355L682.478 924.586L682.734 923.818L685.808 925.355L685.552 925.867V926.892L685.04 927.405V928.429Z" fill="#DBE5F0"/>
<path d="M767.793 838.758L767.28 839.015V838.502L767.537 838.246L767.793 838.758Z" fill="#DBE5F0"/>
<path d="M763.95 836.452H763.694L763.95 835.94L764.206 836.196L763.95 836.452Z" fill="#DBE5F0"/>
</g>
</svg>
