<svg width="1250" height="1200" viewBox="0 0 1250 1200" fill="none" xmlns="http://www.w3.org/2000/svg">
<path d="M731.457 668.891H727.102L730.432 650.445L732.226 637.378L732.482 634.816L734.275 634.048L736.581 636.097L742.986 626.105L745.804 625.849L745.548 628.411H748.11L747.342 633.023L744.011 639.94L745.036 642.502L742.73 648.395L743.498 649.932L740.936 658.387L737.606 662.742L734.788 663.255L731.457 668.891Z" fill="#DBE5F0"/>
<path d="M1179.04 1262.26L1178.27 1257.13L1164.44 1248.68L1151.12 1248.42L1126.52 1253.29L1121.14 1267.64L1121.65 1276.6L1117.81 1296.33L1115.25 1292.74L1098.85 1291.97L1094.75 1305.3L1085.27 1293.51L1066.06 1289.41L1055.81 1304.27L1045.82 1306.58L1037.88 1283.78L1028.4 1265.33L1031.21 1249.45L1023.02 1242.53L1019.94 1230.74L1011.74 1219.47L1019.17 1201.79L1011.74 1187.96L1014.56 1182.32L1011.49 1176.17L1016.35 1167.97L1015.59 1154.14V1142.35L1018.4 1136.97L1004.31 1110.33L1015.07 1111.86L1022.5 1111.35L1025.32 1106.48L1037.62 1099.82L1045.05 1093.67L1063.75 1090.86L1062.73 1103.15L1065.03 1109.56L1064.26 1120.58L1080.92 1135.18L1097.31 1138L1103.21 1144.15L1113.2 1147.48L1119.6 1152.09H1128.57L1137.28 1156.96L1138.56 1166.44L1141.64 1171.3L1142.41 1178.22L1138.05 1178.48L1145.22 1197.69L1172.64 1198.46L1171.36 1207.94L1173.41 1214.35L1181.6 1218.96L1185.96 1229.21L1184.42 1242.27L1181.09 1249.45L1183.14 1258.67L1179.04 1262.26Z" fill="#DBE5F0"/>
<path d="M1187.5 898.961L1195.44 900.498L1196.98 896.911L1194.41 893.837L1195.95 888.969L1201.84 890.506L1208.76 888.713L1216.96 892.299L1223.37 895.63L1227.72 891.275L1231.05 891.787L1233.1 896.399L1240.02 895.374L1245.65 888.969L1250.27 876.927L1258.98 861.811L1264.1 861.043L1267.43 870.266L1275.12 898.961L1283.06 901.779L1283.32 913.052L1272.3 926.63L1276.66 931.498L1302.53 934.06L1303.04 950.713L1314.06 939.953L1332.25 945.846L1356.59 955.837L1363.76 965.317L1361.46 974.54L1378.37 969.416L1406.55 978.127L1428.33 977.615L1449.85 991.193L1468.81 1009.64L1480.08 1014.25L1492.38 1015.02L1497.76 1020.14L1502.88 1041.15L1505.7 1051.14L1500.32 1078.3L1493.4 1089.06L1473.67 1111.86L1464.96 1130.57L1454.72 1144.66L1451.13 1145.17L1447.8 1157.21L1450.1 1187.96L1447.29 1213.32L1446.52 1224.08L1442.42 1230.74L1441.14 1252.78L1427.81 1274.04L1426.53 1291.21L1415.52 1298.12L1412.7 1308.12H1397.33L1375.55 1314.26L1366.07 1321.69L1350.7 1326.56L1335.07 1339.63L1324.56 1356.03L1323.8 1368.32L1327.13 1377.29L1326.36 1393.94L1324.31 1401.89L1315.6 1411.11L1304.07 1440.06L1293.82 1452.87L1285.62 1460.81L1281.78 1476.44L1274.35 1485.66L1268.97 1476.44L1273.58 1468.5L1263.85 1457.48L1251.55 1448.26L1235.41 1437.75L1230.54 1438.27L1214.4 1425.46L1205.69 1427.25L1221.06 1404.96L1234.64 1388.82L1243.09 1382.16L1253.85 1373.19L1252.83 1360.12L1244.63 1350.39L1237.97 1353.72L1239.76 1344.24L1240.53 1334.5L1239.76 1325.28L1234.38 1322.46L1229.26 1325.02L1223.88 1324.26L1221.83 1318.11L1219.01 1302.99L1215.94 1298.12L1205.94 1293.51L1200.31 1296.84L1185.19 1293.51L1184.17 1271.22L1179.04 1262.26L1183.14 1258.67L1181.09 1249.45L1184.42 1242.27L1185.96 1229.21L1181.6 1218.96L1173.41 1214.35L1171.36 1207.94L1172.64 1198.46L1145.22 1197.69L1138.05 1178.48L1142.41 1178.22L1141.64 1171.3L1138.56 1166.44L1137.28 1156.96L1128.57 1152.09H1119.6L1113.2 1147.48L1103.21 1144.15L1097.31 1138L1080.92 1135.18L1064.26 1120.58L1065.03 1109.56L1062.73 1103.15L1063.75 1090.86L1045.05 1093.67L1037.62 1099.82L1025.32 1106.48L1022.5 1111.35L1015.07 1111.86L1004.31 1110.33L996.114 1113.15L989.453 1111.35L989.196 1086.5L977.923 1095.98L965.113 1095.72L959.221 1086.76L949.485 1085.99L952.047 1078.81L943.592 1068.82L936.931 1053.96L940.774 1051.14L940.262 1043.97L948.973 1039.36L947.179 1030.39L950.766 1024.76L951.535 1017.07L967.675 1005.8L979.461 1002.72L981.51 1000.16L994.577 1000.93L1000.21 955.837L1000.47 948.664L998.164 939.441L991.502 933.292L991.758 921.25L999.957 918.688L1002.78 920.482L1003.29 914.077L994.833 912.283V902.035L1023.02 902.547L1027.88 896.655L1031.98 902.035L1034.54 911.771L1037.36 909.721L1045.3 918.432L1056.58 917.407L1059.4 912.283L1070.16 908.44L1076.31 905.622L1078.1 898.704L1088.6 894.093L1087.83 890.506L1075.54 889.225L1073.74 878.721L1074.51 867.704L1068.11 863.605L1070.92 862.068L1081.43 864.117L1092.96 868.216L1097.31 864.373L1107.82 861.811L1124.21 855.663L1129.6 849.257L1127.8 844.646L1135.49 844.133L1138.56 847.72L1136.51 855.15L1141.64 857.456L1144.71 865.142L1140.61 871.035L1138.05 884.87L1141.64 893.324L1142.41 901.01L1151.37 908.696L1158.55 909.465L1160.08 906.134L1164.69 905.366L1171.36 902.547L1175.97 898.192L1184.17 899.729L1187.5 898.961Z" fill="#DBE5F0"/>
<path d="M1187.75 166.223L1196.46 168.529L1208.51 168.016L1200.05 174.677L1194.93 175.702L1180.84 168.785L1179.3 163.405L1185.7 158.537L1187.75 166.223Z" fill="#DBE5F0"/>
<path d="M435.799 134.71L427.857 137.016L411.717 129.842V124.206L404.287 118.569L405.055 113.957L394.039 111.139L395.576 102.428L399.419 98.8416L409.923 102.172L416.072 104.734L426.576 106.271L427.089 111.908L428.113 119.338L436.312 125.999L435.799 134.71Z" fill="#DBE5F0"/>
<path d="M382.253 45.2949L386.097 47.3445L398.907 46.0635L380.46 63.7415L381.229 76.5516H376.361L374.567 69.3779L375.848 61.9481L373.799 57.0802L377.129 50.1628L382.253 45.2949Z" fill="#DBE5F0"/>
<path d="M1443.96 -347.207L1421.67 -347.975L1385.8 -349L1359.41 -347.463L1356.08 -348.488L1329.43 -347.975L1312.78 -346.95L1299.46 -345.413L1286.65 -340.289L1280.5 -343.107L1270.51 -343.62L1253.09 -339.777L1234.13 -338.24L1223.37 -337.983L1207.99 -335.934L1205.18 -332.603L1211.58 -329.529L1213.63 -325.173L1224.9 -321.586L1257.18 -322.355L1275.89 -321.074L1257.18 -316.975L1251.55 -318.256L1227.46 -318.512L1224.65 -312.875L1232.33 -308.52L1225.16 -304.421L1205.69 -301.603L1192.88 -296.991L1205.43 -294.685L1209.79 -286.999L1190.57 -292.123L1183.91 -291.355L1178.79 -282.644L1158.29 -279.825L1152.91 -273.933L1170.33 -273.164L1183.14 -271.627L1213.12 -273.677L1234.89 -270.09L1267.43 -277.52L1270.25 -280.594L1253.6 -280.082L1254.88 -282.9L1271.79 -286.743L1280.75 -291.355L1298.43 -294.685L1311.24 -298.784L1309.45 -304.677L1317.9 -306.727L1306.63 -308.264L1335.58 -309.289L1343.52 -311.851L1364.28 -313.644L1388.1 -322.611L1405.53 -325.686L1432.43 -332.091H1413.21L1423.46 -334.396L1446.52 -336.446L1471.63 -340.802L1474.44 -343.364L1461.12 -345.926L1443.96 -347.207Z" fill="#DBE5F0"/>
<path d="M1218.75 -312.107L1225.67 -308.264L1209.02 -304.933L1181.86 -295.966L1164.44 -295.197L1147.02 -296.735L1142.92 -301.602L1148.3 -305.702L1159.31 -308.776H1142.41L1137.28 -312.619L1138.31 -317.487L1150.86 -322.355L1161.36 -325.685L1171.61 -326.454L1170.84 -329.016L1192.11 -329.528L1196.21 -323.892L1208.25 -321.586L1220.55 -319.28L1218.75 -312.107Z" fill="#DBE5F0"/>
<path d="M1077.33 -291.611L1080.15 -296.479L1080.4 -302.115L1061.19 -306.47L1045.56 -308.008L1039.92 -303.396L1047.1 -300.578L1033.52 -297.247L1053.5 -296.735L1063.75 -292.892L1077.33 -291.611Z" fill="#DBE5F0"/>
<path d="M1115.5 -293.404L1098.59 -290.842L1094.5 -293.66L1096.03 -298.016L1101.67 -302.884L1112.94 -302.371L1117.3 -301.603L1123.19 -297.503L1115.5 -293.404Z" fill="#DBE5F0"/>
<path d="M980.998 -297.503L995.602 -299.809L987.147 -302.115L982.792 -302.627L968.188 -299.297L965.626 -297.503H980.998Z" fill="#DBE5F0"/>
<path d="M975.618 -289.049L953.072 -285.462L944.617 -289.305L957.684 -293.148L973.056 -294.429L983.56 -292.635L975.618 -289.049Z" fill="#DBE5F0"/>
<path d="M1121.65 -286.487L1126.26 -286.743L1129.08 -288.28L1124.98 -290.33L1106.54 -290.586L1104.74 -287.255L1121.65 -286.487Z" fill="#DBE5F0"/>
<path d="M918.229 -288.28L903.369 -278.801L889.79 -274.445L880.054 -273.933L854.69 -268.553L836.5 -266.503L827.277 -269.321L857.252 -278.801L888.509 -286.743L902.6 -286.487L918.229 -288.28Z" fill="#DBE5F0"/>
<path d="M1118.07 -277.52L1112.17 -281.619L1093.73 -282.387L1083.99 -277.263L1090.65 -273.42L1108.59 -271.883L1112.17 -266.247L1106.79 -260.098L1102.69 -252.924L1124.73 -248.825L1139.07 -247.288L1159.57 -247.544L1189.8 -249.594L1200.82 -247.8L1217.99 -250.618L1227.21 -254.205L1229.77 -259.329L1223.88 -264.197L1209.02 -265.222L1188.27 -263.941L1170.08 -261.379L1157.01 -262.404L1144.46 -262.916L1141.38 -265.991L1133.44 -268.809L1140.61 -273.42L1137.03 -277.52H1118.07Z" fill="#DBE5F0"/>
<path d="M969.469 -270.346L967.676 -265.99L978.949 -268.04L988.172 -267.528L982.279 -261.123L969.213 -255.23L933.601 -253.18L902.088 -247.544L886.716 -247.288L890.559 -251.387L917.972 -257.279L872.112 -255.742L861.352 -258.048L891.328 -270.346L905.162 -273.933L926.427 -269.577L933.857 -262.147L949.485 -261.123L951.279 -273.164L966.139 -277.776L974.081 -276.495L969.469 -270.346Z" fill="#DBE5F0"/>
<path d="M1070.93 -271.114L1070.41 -277.007L1067.85 -275.214L1055.3 -275.982L1035.57 -271.627L1025.83 -272.139L1014.82 -262.403L1031.73 -263.172L1023.02 -255.742L1031.21 -253.693L1048.89 -254.974L1063.75 -264.709L1070.93 -271.114Z" fill="#DBE5F0"/>
<path d="M1092.96 -254.718L1082.45 -249.85L1069.13 -250.875L1060.93 -254.205L1072.46 -259.842L1090.14 -263.429L1093.73 -258.817L1092.96 -254.718Z" fill="#DBE5F0"/>
<path d="M737.606 -200.915L772.194 -207.577L778.855 -213.213L802.425 -222.693L838.038 -231.916L854.691 -235.246L850.591 -240.883L845.724 -244.47L821.384 -245.238L810.624 -248.057L774.756 -246.007L773.731 -238.065L754.259 -229.354L735.044 -219.618L723.771 -213.982L739.143 -206.808L737.606 -200.915Z" fill="#DBE5F0"/>
<path d="M1068.88 -226.023L1048.89 -216.031L1037.62 -216.543L1042.23 -228.329L1048.89 -234.734L1059.65 -240.37L1072.97 -243.957L1093.21 -243.445L1109.1 -240.37L1083.22 -228.585L1068.88 -226.023Z" fill="#DBE5F0"/>
<path d="M1020.2 -237.296L1010.97 -240.114L992.527 -233.709L994.833 -225.254L975.874 -226.792L971.519 -222.436L986.635 -212.188L988.94 -207.064L997.651 -206.039L1019.17 -211.163L1032.49 -223.205L1022.76 -228.841L1038.39 -235.246L1039.67 -239.089L1020.2 -237.296Z" fill="#DBE5F0"/>
<path d="M1140.1 -231.147L1140.87 -222.949L1159.31 -233.453L1189.29 -238.833L1195.18 -225.254L1186.98 -216.544L1210.04 -220.387L1223.62 -225.767L1241.04 -219.106L1250.52 -212.701L1247.7 -206.808L1268.71 -209.882L1273.58 -201.171L1295.1 -195.791L1300.74 -190.411L1303.04 -177.345L1279.73 -170.94L1299.46 -161.716L1314.57 -158.642L1323.03 -145.832L1339.68 -144.807L1331.23 -134.815L1303.3 -118.162L1293.05 -124.311L1283.32 -138.146L1268.2 -136.352L1262.31 -127.898L1269.23 -119.699L1280.75 -113.038L1283.32 -109.195L1283.06 -94.5914L1273.84 -84.0871L1261.8 -88.1863L1239.76 -99.7154L1248.99 -87.1615L1256.16 -78.1945L1255.39 -73.0704L1227.46 -78.963L1207.99 -87.6739L1198.26 -94.5914L1204.41 -98.9468L1192.11 -106.377L1180.07 -113.294L1177.76 -109.195L1144.2 -106.889L1138.05 -111.757L1151.89 -122.517L1172.64 -122.774L1196.46 -124.567L1195.95 -129.691L1203.89 -136.865L1226.44 -150.7L1227.46 -157.105L1226.18 -161.716L1214.14 -168.634L1195.95 -173.245L1204.92 -176.832L1199.79 -185.543L1191.08 -186.312L1186.22 -190.923L1177.76 -186.824L1157.52 -185.031L1121.65 -188.105L1102.69 -192.204L1087.58 -194.254L1082.71 -199.122L1098.85 -205.271H1084.25L1092.7 -218.849L1110.89 -230.635L1126.26 -236.015L1154.96 -239.602L1140.1 -231.147Z" fill="#DBE5F0"/>
<path d="M1240.28 -226.792L1242.07 -230.379L1230.54 -237.552L1209.02 -239.09L1203.38 -238.065L1199.03 -233.453L1204.41 -226.536L1206.71 -225.511L1219.27 -227.304L1240.28 -226.792Z" fill="#DBE5F0"/>
<path d="M963.833 -234.478L945.898 -225.767L940.006 -234.99L945.386 -237.04L959.477 -237.552L963.833 -234.478Z" fill="#DBE5F0"/>
<path d="M850.591 -224.486L862.633 -230.635L855.459 -233.197L819.078 -225.254L805.756 -219.874L785.772 -209.882L799.607 -206.296L815.748 -206.552L785.772 -200.915V-196.047L800.376 -195.791L823.69 -196.816L840.343 -193.742L824.459 -191.18L810.368 -191.948L791.665 -189.642L783.21 -188.105L784.747 -177.088L795.764 -178.626L806.268 -175.039L805.5 -168.378L825.74 -169.659L854.691 -171.708L879.03 -176.576L892.096 -177.345L906.7 -173.502L923.865 -171.452L932.064 -176.576L930.014 -181.7L948.204 -182.981L954.866 -188.874L942.055 -195.535L931.295 -202.196L937.444 -211.676L944.361 -224.742L938.725 -230.122L931.039 -232.172L920.022 -230.122L912.848 -216.544L901.832 -211.163L907.468 -224.23L902.857 -228.585L884.154 -221.668L877.493 -228.329L850.591 -224.486Z" fill="#DBE5F0"/>
<path d="M1135.49 189.024L1129.85 179.801L1137.28 158.024L1133.18 153.412L1123.7 155.974L1120.88 151.875L1106.79 163.916L1098.6 176.47L1091.42 183.9L1085.02 186.462L1080.66 187.231L1077.84 191.074H1054.02L1034.03 191.33L1027.11 194.148L1009.69 205.421V205.165L1007.39 204.14L1002.26 206.446L997.395 209.777L992.784 206.958L980.742 209.008L970.75 211.314L965.882 213.364L959.99 218.744L964.601 220.537L968.957 219.512H969.725L968.957 224.38L956.659 226.174L949.486 228.223L945.13 230.785L938.469 229.248L934.37 230.017L926.94 234.628L915.154 239.752L908.237 238.728L913.361 233.091L922.84 224.124L933.345 218.744L936.163 214.132L938.469 206.446L948.205 197.479L950.51 187.231L953.329 197.223L963.064 199.529L969.213 194.148L965.626 181.851L963.32 176.727L953.072 173.652L943.337 171.859H933.345L924.634 169.809L923.609 166.222L920.022 168.528L916.948 168.016L921.816 162.635L917.204 160.586L922.072 154.437L918.997 149.825L923.353 145.214L910.03 142.908L909.774 133.685L907.724 131.635L899.27 131.123L888.766 128.048L884.923 130.098L880.311 133.941L871.856 136.503L863.914 142.908L850.079 138.552L838.806 140.602L828.814 135.734L817.029 133.172L808.574 132.147L806.012 129.585L808.318 120.875H803.963L800.632 127.023H447.585L433.751 111.395L429.651 104.478L411.717 97.8163L415.048 83.7252L424.271 74.2457L413.767 67.3283L421.709 54.7744L416.329 43.5015L422.734 35.303L435.8 27.8731L443.999 18.1375L432.213 8.40179L435.8 -9.27615L438.618 -20.0367L434.519 -26.9541L432.47 -33.103L434.007 -41.0453L417.354 -36.1774L397.882 -27.7227L397.114 -37.4584L395.833 -44.1197L388.659 -48.2189L377.898 -48.7313L469.106 -132.509L532.132 -184.775L547.504 -181.444L555.959 -174.783L565.438 -173.502L581.579 -179.138L599.513 -183.494L613.092 -181.956L635.894 -187.849L656.903 -191.18L657.415 -185.543L668.944 -188.874L678.936 -195.279L684.316 -193.742L687.903 -181.444L712.242 -190.924L702.25 -180.419L717.623 -182.725L725.821 -186.568L737.606 -185.799L747.598 -180.163L766.813 -175.039L778.855 -172.733L790.128 -173.502L797.558 -166.328L775.78 -159.411L792.177 -156.592L822.665 -158.13L833.938 -160.692L837.525 -152.237L855.715 -159.154L850.335 -165.303L861.864 -169.915L875.187 -170.684L885.179 -171.965L890.559 -168.634L894.402 -161.204L907.212 -162.229L920.791 -155.824L939.237 -158.13L954.61 -157.873L960.758 -166.584L972.287 -168.89L984.841 -164.278L973.825 -150.956L989.709 -162.229L997.908 -161.716L1014.3 -175.808L1010.21 -184.262L1002.78 -189.899L1016.87 -205.015L1037.88 -214.75L1049.4 -212.445L1054.53 -206.552L1055.55 -191.18L1040.69 -184.518L1057.86 -181.7L1046.59 -167.609L1069.39 -178.37L1075.02 -169.403L1064.01 -159.154L1067.34 -149.675L1086.04 -159.667L1102.69 -171.965L1114.74 -187.08L1128.83 -186.056L1142.66 -184.006L1151.89 -177.089L1147.53 -170.171L1134.46 -162.741L1136.77 -155.311L1130.62 -148.394L1102.69 -138.402L1086.04 -136.096L1077.84 -140.452L1069.39 -133.278L1050.43 -121.237L1042.74 -114.831L1023.02 -105.096L1006.36 -104.071L993.296 -97.9221L985.866 -88.1864L971.263 -86.393L948.973 -74.3515L924.89 -57.6984L912.08 -45.9131L899.526 -28.2351L914.898 -25.6731L911.055 -11.582L909.005 0.203308L927.708 -2.87109L945.643 3.79013L954.097 9.6828L958.453 16.8564L971.006 21.2119L980.23 27.6169L999.701 28.6417L1012 30.179L1002.78 43.5015L998.42 59.1298L998.676 76.8077L1009.95 91.9237L1021.99 86.7997L1036.34 70.4027L1042.23 45.8073L1037.88 37.6088L1060.93 30.179L1080.15 19.4185L1092.45 8.65799L1096.8 -1.59009L1095.78 -14.6564L1087.58 -26.1855L1110.38 -42.0701L1112.94 -55.6488L1122.93 -78.707L1132.67 -82.2938L1149.84 -78.1946L1160.6 -76.6573L1172.13 -80.7566L1180.07 -75.6325L1189.29 -66.9217L1189.8 -61.2852L1209.53 -60.0042L1202.87 -47.4503L1196.98 -28.4913L1206.71 -25.9293L1210.81 -16.9622L1231.82 -25.4169L1251.04 -42.3263L1261.8 -49.2437L1264.61 -35.665L1271.28 -16.4498L1276.4 1.99673L1267.69 11.7324L1279.99 20.4433L1287.42 29.1541L1305.09 33.2534L1311.24 38.1212V51.4438L1319.95 53.4934L1322.77 59.386L1317.65 77.064L1306.63 82.9566L1295.87 88.593L1273.33 94.2295L1253.09 107.04L1231.05 109.858L1205.18 106.271H1186.47L1172.89 107.296L1158.29 118.825L1139.33 125.999L1113.45 147.007L1093.21 161.867L1105.26 159.305L1133.18 138.04L1164.7 124.718L1184.17 123.18L1192.62 131.123L1176.99 141.883L1175.46 159.049L1175.71 171.346L1190.06 179.289L1212.09 176.983L1230.54 158.792L1227.98 170.578L1234.38 176.47L1215.42 186.975L1183.65 196.71L1168.79 203.115L1150.35 214.901L1140.87 213.62L1144.71 200.041L1171.36 186.462L1150.6 186.975L1135.49 189.024Z" fill="#DBE5F0"/>
<path d="M989.197 -171.452L999.701 -176.32L997.908 -181.7L996.883 -184.262L992.784 -186.824L985.097 -190.667L972.544 -184.774L959.734 -180.419L968.444 -174.27L978.436 -175.551L989.197 -171.452Z" fill="#DBE5F0"/>
<path d="M1190.57 -148.906L1178.02 -148.138L1179.81 -155.055L1189.55 -162.997L1200.56 -164.791L1206.46 -160.948L1202.61 -155.055L1200.31 -153.006L1190.57 -148.906Z" fill="#DBE5F0"/>
<path d="M1073.23 -121.236L1075.54 -127.641L1068.36 -128.666L1055.3 -115.6L1046.07 -104.071L1031.47 -96.897L1047.61 -98.1781L1045.82 -89.7234L1066.83 -97.1533L1082.97 -105.096L1085.02 -98.4342L1100.13 -94.8474L1112.94 -99.4591L1108.07 -104.327L1099.11 -103.302L1102.69 -110.22L1092.96 -114.575L1083.99 -119.699L1080.15 -123.542L1073.23 -121.236Z" fill="#DBE5F0"/>
<path d="M1083.48 -84.5994L1065.03 -76.4009L1057.35 -76.9133V-80.7563L1070.16 -87.6738L1085.53 -87.4176L1083.48 -84.5994Z" fill="#DBE5F0"/>
<path d="M1099.11 -68.7146L1108.33 -76.4006L1107.05 -79.4751L1102.69 -79.7313L1095.52 -75.3758L1094.5 -74.351L1094.75 -69.9956L1099.11 -68.7146Z" fill="#DBE5F0"/>
<path d="M1304.58 100.122L1291.77 113.957L1301.76 108.577L1309.19 112.164L1303.04 117.544L1312.78 121.9L1319.95 118.057L1330.97 122.924L1323.8 134.71L1333.53 131.891L1332.76 140.346L1334.04 150.338L1324.82 164.685L1318.67 165.198L1311.24 162.123L1317.65 149.057L1314.57 147.007L1295.87 160.842L1288.18 160.33L1299.46 152.644L1288.18 148.801L1274.09 149.826L1249.5 149.313L1248.99 144.702L1258.72 138.809L1254.37 134.71L1268.2 124.974L1289.21 99.61L1299.97 90.6429L1312.78 85.2627L1318.16 85.7751L1314.32 90.1305L1304.58 100.122Z" fill="#DBE5F0"/>
<path d="M1224.65 125.23L1218.5 125.487L1203.64 120.619L1194.67 112.933L1199.54 111.652L1214.65 115.751L1225.41 122.412L1224.65 125.23Z" fill="#DBE5F0"/>
<path d="M978.948 736.528L969.469 739.347L965.369 747.545L959.477 752.157L954.865 758.306L952.559 770.091L947.948 779.827L955.378 780.851L956.915 788.281L959.989 792.124L960.758 798.529L958.964 804.678L959.221 808.265L962.807 809.546L965.882 815.182L984.584 813.645L993.039 815.695L1002.77 830.042L1008.67 828.249L1019.17 829.017L1027.37 827.224L1032.49 830.042L1029.42 838.753L1026.09 844.39L1024.55 856.175L1027.37 867.192L1031.21 872.059L1031.73 875.646L1024.3 883.845L1029.42 887.432L1033.26 893.324L1037.36 909.721L1034.54 911.771L1031.98 902.035L1027.88 896.655L1023.01 902.547L994.833 902.035V912.283L1003.29 914.077L1002.77 920.482L999.957 918.688L991.758 921.25L991.502 933.292L998.163 939.441L1000.47 948.664L1000.21 955.837L994.576 1000.93L987.146 992.218L982.791 991.962L991.758 975.053L980.485 967.367L971.774 968.904L966.394 966.086L958.452 970.441L947.691 968.135L938.724 950.97L932.063 946.87L927.451 938.928L917.716 931.242L913.873 932.779L907.724 928.936L900.55 923.556L896.451 926.118L884.153 923.812L880.566 916.639L877.748 916.895L863.401 907.671L861.607 902.547L866.988 901.266L866.475 893.068L870.062 886.919L877.236 885.894L883.641 875.646L889.277 866.935L884.153 863.092L887.228 853.613L884.409 838.497L887.74 834.141L885.947 820.307L880.31 811.339L882.616 803.397L887.228 804.678L890.046 799.81L887.228 790.075L889.021 787.769L896.451 788.281L907.98 776.752L914.129 774.959L914.385 769.579L917.972 755.487L926.683 748.058L935.65 747.545L937.187 744.215L948.46 745.496L960.245 737.297L966.138 733.71L973.568 725.768L978.692 726.793L982.022 731.148L978.948 736.528Z" fill="#DBE5F0"/>
<path d="M800.119 750.364L803.193 759.331L808.317 765.992L814.722 772.909L809.086 774.447L808.83 781.108L811.648 783.414L809.342 785.463L809.855 788.281L808.317 791.612L807.549 794.943L799.863 791.356L797.045 787.769L798.838 784.951L798.582 781.364L794.739 777.521L789.102 774.19L784.491 772.141L783.722 767.273L780.135 764.455L780.648 769.066L777.573 773.165L774.499 768.554L770.143 766.76L768.35 763.686L768.606 758.562L770.912 753.438L767.069 751.132L770.656 747.801L772.961 745.752L782.185 750.107L785.515 748.058L790.127 749.339L792.177 752.669L796.532 753.95L800.119 750.364Z" fill="#DBE5F0"/>
<path d="M877.492 555.906L882.36 561.799L895.683 560.005L900.294 563.848L911.055 574.096L919.253 581.526L923.865 581.27L932.063 584.6L930.526 589.212L940.774 589.981L950.766 596.642L948.716 600.485L938.981 602.535L929.245 603.303L919.766 602.022L899.013 603.559L909.774 594.592L904.394 590.237L895.17 589.212L890.815 584.344L888.765 575.121L880.567 575.633L867.757 571.278L863.914 567.691L845.723 565.129L841.112 562.055L847.004 557.955L833.169 557.187L821.896 565.642L816.004 565.898L813.442 569.997L806.268 571.79L800.375 569.997L808.574 565.129L812.417 558.98L819.334 555.393L827.02 552.319L838.037 550.782L841.624 548.732L853.666 550.013L864.938 550.269L877.492 555.906Z" fill="#DBE5F0"/>
<path d="M982.279 633.535L983.047 628.923L979.717 624.056L983.56 621.237L985.353 614.832L985.097 606.121L987.147 603.303H998.163L1006.36 607.402L1010.2 607.146L1012 613.039L1019.94 612.526L1018.92 617.394L1025.32 618.163L1031.73 624.056L1025.83 630.717L1019.17 627.13L1012.51 627.899L1007.9 627.13L1005.08 630.204L999.444 631.229L997.651 627.13L992.783 629.436L985.866 640.709L982.535 638.147L982.279 633.535Z" fill="#DBE5F0"/>
<path d="M913.873 932.779L915.922 945.333L911.567 955.838L895.939 973.259L878.773 979.664L870.062 994.012L867.757 1005.03L859.814 1011.95L853.409 1003.49L847.516 1001.7L841.624 1002.98L840.855 997.086L844.954 993.243L843.161 986.326L850.591 974.028L847.26 966.854L841.88 974.54L832.913 967.111L835.731 962.499L833.169 947.639L838.293 945.077L840.855 934.829L846.235 924.325L845.467 917.663L853.409 914.077L863.401 907.672L877.748 916.895L880.567 916.639L884.154 923.812L896.451 926.118L900.55 923.556L907.724 928.936L913.873 932.779Z" fill="#DBE5F0"/>
<path d="M732.226 637.378L730.432 650.444L727.102 668.891H731.457L735.812 671.965L737.35 669.403L741.193 671.453L734.019 677.858L726.589 682.47L725.308 685.544L726.077 688.875L722.746 692.974L719.159 693.999L719.928 696.048L716.854 697.842L711.729 701.941L710.961 704.247L703.787 701.429L694.82 701.172L688.671 697.842L681.498 691.181L682.522 686.313L684.572 682.47L682.779 679.395L691.233 666.073H709.68L710.705 660.436L708.655 659.411L707.374 655.825L702.506 651.982L697.895 646.601L704.3 646.345L705.581 637.122H718.903L732.226 637.378Z" fill="#DBE5F0"/>
<path d="M1180.07 832.092L1177.51 846.952L1168.54 851.051L1169.31 854.894L1166.49 863.605L1172.64 875.39H1177.25L1179.04 884.614L1187.5 898.961L1184.17 899.73L1175.97 898.192L1171.36 902.548L1164.69 905.366L1160.08 906.135L1158.55 909.465L1151.37 908.697L1142.41 901.011L1141.64 893.325L1138.05 884.87L1140.61 871.035L1144.71 865.142L1141.64 857.456L1136.51 855.15L1138.56 847.721L1135.49 844.134L1127.8 844.646L1118.32 832.348L1122.42 827.737V820.051L1131.39 817.489L1134.98 814.414L1130.36 808.265L1131.64 802.373L1143.69 792.637L1152.91 798.786L1161.36 809.29L1161.62 818.001L1167 818.257L1174.69 826.2L1180.07 832.092Z" fill="#DBE5F0"/>
<path d="M812.929 683.495L808.061 683.239L805.756 685.545L800.632 687.594H797.045L793.714 689.644L790.896 689.131L788.59 686.569L787.053 687.082L784.747 690.925L783.466 690.669L782.954 694.255L777.573 698.611L774.499 700.661L772.962 702.71L769.119 699.38L765.532 703.735H762.457L759.127 703.991L758.614 712.19H756.565L754.515 716.033L749.904 716.801L747.854 711.677L743.498 710.14L745.292 703.479L743.498 701.685L740.424 700.661L734.019 702.454L733.763 700.404L729.664 697.586L726.845 694.512L722.746 692.974L726.077 688.875L725.308 685.545L726.589 682.47L734.019 677.858L741.193 671.453L742.73 672.222L746.061 669.404L750.16 669.148L751.441 670.429L753.747 669.66L760.408 671.197L767.069 670.685L771.681 668.891L773.73 667.098L778.086 667.867L781.416 668.891L785.259 668.635L788.334 667.098L794.739 669.404L796.788 669.916L800.888 672.991L804.731 676.577L809.599 679.139L812.929 683.495Z" fill="#DBE5F0"/>
<path d="M985.097 606.122L985.354 614.833L983.56 621.238L979.717 624.056L983.048 628.924L982.279 633.535L973.056 630.717L966.138 631.742L957.428 630.717L950.51 633.791L943.336 628.667L945.13 623.287L958.196 625.593L968.701 626.874L974.337 623.287L968.444 616.114L969.469 609.709L960.502 607.146L964.345 602.791L973.056 603.303L985.097 606.122Z" fill="#DBE5F0"/>
<path d="M907.468 636.353L902.856 639.172L895.17 636.353L887.74 630.461L889.79 626.618L895.939 625.593L899.269 626.105L908.749 627.642L915.666 631.485L917.716 636.097L907.468 636.353Z" fill="#DBE5F0"/>
<path d="M632.819 505.178L638.456 504.665L630.257 519.269L625.646 531.054L621.034 553.088L618.216 561.03L619.241 569.997L622.571 578.195L623.596 590.749L631.282 603.047L633.332 612.527L637.687 620.469L652.291 624.824L657.159 631.742L670.481 627.13L681.498 625.593L692.771 622.518L701.994 619.7L711.986 613.039L716.597 603.559L719.672 589.725L722.746 584.857L732.994 580.501L748.623 576.658L761.177 577.427L769.887 575.89L772.962 579.476L771.425 587.419L762.458 597.154L757.846 607.146L760.152 609.964L757.077 617.138L751.697 629.948L748.623 625.593L745.804 625.849L742.986 626.105L736.581 636.097L734.275 634.048L732.482 634.816L732.226 637.378L718.903 637.122H705.581L704.3 646.345L697.895 646.601L702.506 651.982L707.374 655.825L708.655 659.412L710.705 660.436L709.68 666.073H691.233L682.779 679.395L684.572 682.47L682.523 686.313L681.498 691.181L667.15 673.503L660.489 668.122L649.216 663.767L641.018 665.048L628.72 671.197L621.29 672.734L611.811 668.379L601.306 665.304L589.009 657.874L578.505 655.569L563.389 647.882L552.372 639.94L549.554 635.585L541.611 634.56L527.776 629.436L522.909 622.006L509.074 612.527L503.437 602.278L501.388 594.08L506.255 592.543L505.487 587.931L509.586 583.576L510.611 577.939L506.768 570.509V564.104L503.437 555.65L493.702 539.253L481.916 526.443L477.048 516.195L466.544 509.533L464.751 505.434L469.106 495.442L462.957 491.599L456.552 483.401L456.04 472.128L448.866 470.591L442.974 462.136L438.618 453.937L439.387 448.813L435.544 436.516L434.775 423.962L436.825 417.557L428.882 410.895L424.015 411.664L417.866 407.309L413.254 413.97L412.998 421.656L410.436 434.21L412.998 440.871L420.172 452.144L421.196 456.243L422.99 457.268L423.246 462.904L425.808 462.648V473.409L429.139 477.508L430.42 483.401L437.337 491.599L438.362 506.971L440.924 514.145L443.23 521.831L442.461 530.542L449.122 531.054L453.222 538.484L457.065 545.914L456.296 548.988L449.122 554.881H446.56L444.767 544.889L437.337 535.41L428.626 527.467L422.221 523.368L425.296 511.327L425.039 502.36L419.659 497.236L411.717 490.062L409.411 492.112L406.849 487.756L399.163 483.913L393.526 474.177L394.808 473.153L400.188 473.921L407.105 467.772L409.667 460.342L402.237 448.557L395.576 444.202L393.526 433.954L391.989 422.937L389.94 409.871L389.427 395.011L405.568 393.73L423.758 391.937L421.453 395.267L439.387 403.209L467.313 414.738H494.983H505.999L508.049 407.821H532.132L535.462 413.714L540.843 419.094L546.992 426.268L549.041 434.722L550.066 443.946L555.959 448.813L566.207 453.681L578.505 440.871L590.034 440.359L598.232 447.02L602.331 458.293L604.637 468.029L610.786 477.252L611.298 488.781L613.604 496.467L623.596 501.591L632.819 505.178Z" fill="#DBE5F0"/>
<path d="M812.929 683.494L811.648 685.288L810.367 688.875L811.392 694.767L807.549 700.404L805.5 707.065L804.219 714.239L804.731 718.594L804.475 726.024L802.169 727.561L800.376 734.735L800.888 739.09L797.814 743.19L798.07 747.545L800.119 750.363L796.533 753.95L792.177 752.669L790.128 749.338L785.516 748.057L782.185 750.107L772.962 745.752L770.656 747.801L766.045 742.677L759.639 736.016L756.821 730.636L751.185 725.255L744.78 717.826L746.573 715.264L748.623 717.826L749.904 716.801L754.515 716.032L756.565 712.189H758.615L759.127 703.991L762.458 703.734H765.532L769.119 699.379L772.962 702.71L774.499 700.66L777.574 698.61L782.954 694.255L783.466 690.668L784.747 690.924L787.053 687.081L788.59 686.569L790.896 689.131L793.714 689.643L797.045 687.594H800.632L805.756 685.544L808.062 683.238L812.929 683.494Z" fill="#DBE5F0"/>
<path d="M889.022 787.769L887.228 790.075L890.046 799.811L887.228 804.678L882.617 803.397L880.311 811.34L875.699 806.728L873.137 797.761L876.724 793.406L873.137 792.381L870.831 787.001L863.658 782.389L857.509 783.414L854.178 789.05L848.029 793.149L844.955 793.662L843.418 797.249L849.823 806.216L845.723 808.265L843.674 810.571L836.756 811.596L834.707 801.604L832.657 804.422L828.045 803.397L825.483 796.992L819.591 795.711L815.748 793.918H809.599L809.086 797.505L807.549 794.943L808.318 791.612L809.855 788.282L809.343 785.463L811.648 783.414L808.83 781.108L809.086 774.447L814.723 772.909L819.591 778.802L819.078 782.389L824.715 783.158L826.252 781.62L830.095 785.72L837.269 784.439L843.674 780.339L852.641 777.009L857.765 772.141L865.707 773.166L865.195 774.703L873.137 775.215L879.286 778.29L883.898 783.158L889.022 787.769Z" fill="#DBE5F0"/>
<path d="M994.577 1000.93L981.511 1000.16L979.461 1002.72L967.676 1005.8L951.535 1017.07L950.767 1024.76L947.18 1030.39L948.973 1039.36L940.262 1043.97L940.775 1051.14L936.932 1053.96L943.593 1068.82L952.048 1078.81L949.486 1085.99L959.221 1086.76L965.114 1095.72L977.924 1095.98L989.197 1086.5L989.453 1111.35L996.114 1113.15L1004.31 1110.33L1018.4 1136.97L1015.59 1142.35V1154.14L1016.35 1167.97L1011.49 1176.17L1014.56 1182.32L1011.74 1187.96L1019.17 1201.79L1011.74 1219.47L1008.92 1227.92L1001.75 1232.02L986.635 1222.54L984.585 1215.88L954.61 1199.49L927.196 1181.3L915.154 1171.3L907.981 1157.72L910.03 1152.86L896.195 1131.34L879.799 1101.1L864.426 1068.31L858.277 1060.62L853.153 1048.58L841.368 1037.82L830.864 1031.16L835.219 1023.99L827.533 1008.1L831.889 996.574L843.162 986.326L844.955 993.243L840.856 997.086L841.624 1002.98L847.517 1001.7L853.41 1003.49L859.815 1011.95L867.757 1005.03L870.063 994.012L878.774 979.664L895.939 973.259L911.567 955.837L915.923 945.333L913.873 932.779L917.716 931.242L927.452 938.928L932.064 946.87L938.725 950.97L947.692 968.135L958.453 970.441L966.395 966.085L971.775 968.904L980.486 967.367L991.759 975.053L982.792 991.962L987.147 992.218L994.577 1000.93Z" fill="#DBE5F0"/>
<path d="M743.499 710.139L741.705 713.983L733.251 713.726L728.127 712.189L722.49 708.858L714.804 707.834L710.961 704.247L711.73 701.941L716.854 697.842L719.928 696.048L719.159 693.999L722.746 692.974L726.846 694.511L729.664 697.586L733.763 700.404L734.019 702.453L740.424 700.66L743.499 701.685L745.292 703.478L743.499 710.139Z" fill="#DBE5F0"/>
<path d="M1226.44 835.679L1218.5 849.77L1219.27 861.043L1224.9 870.779L1222.08 877.696L1220.8 885.382L1216.96 892.3L1208.76 888.713L1201.84 890.506L1195.95 888.969L1194.41 893.837L1196.98 896.911L1195.44 900.498L1187.5 898.961L1179.04 884.614L1177.25 875.39H1172.64L1166.49 863.605L1169.31 854.894L1168.54 851.051L1177.51 846.952L1180.07 832.092L1197.49 835.423L1199.03 832.348L1210.81 831.067L1226.44 835.679Z" fill="#DBE5F0"/>
<path d="M1143.69 792.637L1131.64 802.372L1130.36 808.265L1134.98 814.414L1131.39 817.488L1122.42 820.05V827.736L1118.32 832.348L1127.8 844.646L1129.6 849.257L1124.21 855.662L1107.82 861.811L1097.31 864.373L1092.96 868.216L1081.43 864.117L1070.92 862.068L1068.11 863.605L1074.51 867.704L1073.74 878.721L1075.54 889.225L1087.83 890.506L1088.6 894.093L1078.1 898.704L1076.31 905.622L1070.16 908.44L1059.4 912.283L1056.58 917.407L1045.3 918.432L1037.36 909.721L1033.26 893.324L1029.42 887.432L1024.3 883.845L1031.73 875.646L1031.21 872.059L1027.37 867.192L1024.55 856.175L1026.09 844.39L1029.42 838.753L1032.49 830.042L1027.37 827.224L1019.17 829.017L1008.67 828.249L1002.78 830.042L993.039 815.695L984.585 813.645L965.882 815.182L962.807 809.546L959.221 808.265L958.964 804.678L960.758 798.529L959.989 792.124L956.915 788.281L955.378 780.851L947.948 779.827L952.559 770.091L954.865 758.306L959.477 752.157L965.369 747.545L969.469 739.347L978.948 736.528L978.436 740.372L969.725 742.421L974.08 749.851L973.312 758.562L966.394 768.041L971.262 781.108L977.667 780.083L981.51 768.041L977.155 762.405V749.851L995.601 743.19L994.064 735.504L999.444 730.123L1003.8 741.909L1014.05 742.165L1022.76 751.132L1023.27 756.768H1036.08L1051.71 755.231L1059.65 762.405L1070.41 764.454L1078.87 759.33L1079.12 755.231L1097.31 754.206L1114.48 753.95L1101.93 758.818L1106.54 766.76L1118.07 767.785L1128.83 775.984L1130.62 789.05L1138.05 788.794L1143.69 792.637Z" fill="#DBE5F0"/>
<path d="M863.914 142.908L848.285 148.032L836.244 154.437L824.458 161.354L823.177 163.66L837.781 160.33L843.161 165.71L854.947 161.867L867.501 156.487L881.335 151.106L873.393 159.561L879.798 161.611L886.203 167.76L899.27 164.173L912.336 162.892L913.104 167.503L916.948 168.016L920.022 168.528L923.865 174.933L911.823 176.47H911.567L902.088 174.677L890.559 177.751L881.079 179.289L869.038 189.793L861.352 195.686L862.377 197.479L876.468 186.975H878.261L866.22 199.529L858.79 210.801L852.385 220.025L850.847 227.967L848.798 231.81L847.26 236.165L847.517 244.62L848.285 245.901L852.897 245.645L856.996 243.852L860.583 241.802L869.038 233.86L873.649 223.099L873.393 213.107L876.98 206.19L883.641 198.248L889.021 192.611L895.939 188.768L894.914 194.148L900.551 186.206L903.881 184.669L908.237 178.52L917.972 181.851L925.146 188L923.096 195.429L918.997 202.859L909.261 209.264L908.237 213.364H910.799L921.815 206.446L925.915 207.983L924.634 217.463L922.84 224.124L913.361 233.091L908.237 238.728L901.319 244.876L908.237 248.207L914.642 249.232L924.89 246.926L934.369 242.571L942.055 240.265L953.841 235.653L968.7 225.917L968.957 224.38L969.725 219.512L976.643 217.463L986.635 218.231L996.883 219.512L1008.67 214.132L1010.21 207.727L1009.69 205.421L1027.11 194.148L1034.03 191.33L1054.02 191.074H1077.84L1080.66 187.231L1085.02 186.462L1091.42 183.9L1098.59 176.47L1106.79 163.916L1120.88 151.875L1123.7 155.974L1133.18 153.412L1137.28 158.024L1129.85 179.801L1135.49 189.024L1136 194.405L1119.6 202.091L1104.23 207.727L1088.86 212.595L1078.61 222.331L1075.28 225.917L1072.21 234.628L1074 243.083L1079.38 243.595L1079.89 237.703L1082.71 241.29L1080.15 245.901L1070.41 248.463L1064.01 248.207L1053.25 251.025L1047.35 251.794L1039.41 252.562L1026.6 257.43L1047.35 254.356L1050.17 257.43L1029.93 262.298H1021.48L1022.5 260.249L1017.12 264.86L1020.71 265.629L1014.3 277.414L1000.73 289.968L1000.98 285.613L998.164 284.844L995.089 280.745V289.712L997.651 292.53L996.114 298.679L989.965 305.084L978.436 318.15L977.411 317.638L984.841 306.365L979.717 300.216L982.279 286.381L977.411 293.555V304.059L969.213 301.497L976.899 306.621L973.056 322.249L976.643 323.53V329.167L974.081 345.564L962.295 357.605L946.667 362.473L935.394 372.209L928.22 373.234L919.51 379.382L916.179 384.763L898.501 395.523L888.765 403.466L879.798 413.201L874.93 424.73V436.259L876.468 450.351L880.311 461.88L879.03 469.053L882.36 488.012L879.798 499.285L878.261 505.69L873.137 515.682L868.525 517.732L861.864 515.682L860.839 508.508L856.228 504.665L851.104 490.574L847.004 478.02L845.979 471.615L851.104 460.599L849.054 451.632L841.112 437.797L836.244 435.235L820.615 442.921L818.31 441.896L813.186 434.21L805.5 430.111L789.103 432.416L777.317 430.367L766.301 431.648L759.896 434.21L761.433 438.565L759.639 445.226L761.689 448.557L758.615 450.607L754.003 448.301L748.11 451.375L738.118 450.863L729.664 442.152L717.11 444.202L707.887 440.359L698.919 441.64L686.109 445.483L670.481 457.524L654.853 464.698L645.373 472.384L640.505 479.814L637.943 491.343L636.919 499.029L638.456 504.665L632.819 505.178L623.596 501.591L613.604 496.467L611.298 488.781L610.786 477.252L604.637 468.028L602.331 458.293L598.232 447.02L590.034 440.359L578.504 440.871L566.207 453.681L555.959 448.813L550.066 443.945L549.041 434.722L546.992 426.268L540.843 419.094L535.462 413.714L532.132 407.821H508.049L505.999 414.738H494.983H467.313L439.387 403.209L421.452 395.267L423.758 391.936L405.568 393.73L389.427 395.011L390.196 386.812L384.816 377.333L379.179 375.283L379.435 370.672L372.005 369.647L368.931 365.291L356.633 363.754L354.328 360.936L356.377 351.969L349.972 335.572L348.691 312.77L350.997 308.927L347.666 303.547L343.823 289.712L348.435 276.389L346.129 267.422L356.121 253.843L363.295 240.009L366.113 227.455L380.204 212.083L390.452 197.479L400.7 182.875L411.717 161.098L416.328 147.52L417.353 140.09L420.94 136.759L435.8 142.396L433.238 157.511L438.874 153.156L445.279 140.09L449.379 127.023H485.503H523.165H535.462H574.149H611.811H649.729H687.903H730.945H774.499H800.632L803.962 120.875H808.318L806.012 129.585L808.574 132.147L817.029 133.172L828.814 135.734L838.806 140.602L850.079 138.552L863.914 142.908Z" fill="#DBE5F0"/>
<path d="M186.259 -0.308857L168.324 5.58376L166.275 1.48455L172.168 -5.68912L188.564 -11.0694L197.532 -13.3752L204.193 -12.3504V-7.48253L186.259 -0.308857Z" fill="#DBE5F0"/>
<path d="M532.132 -184.775L469.106 -132.509L377.898 -48.7314L388.659 -48.2189L395.832 -44.1197L397.113 -37.4585L397.882 -27.7228L417.353 -36.1774L434.007 -41.0453L432.469 -33.103L434.519 -26.9542L438.618 -20.0367L435.8 -9.2762L432.213 8.40173L443.998 18.1374L435.8 27.8731L422.734 35.303L421.196 29.6665L414.791 24.5425L423.246 11.22L419.147 -1.33395L426.064 -15.6813L415.56 -16.7061L397.37 -16.9623L387.634 -21.5739L379.179 -37.2023L370.725 -40.0205L356.121 -45.4007L338.699 -44.1197L323.327 -51.0372L316.41 -57.4422L300.269 -54.3678L291.302 -43.8635L283.872 -42.8387L266.963 -39.7643L251.078 -34.6402L234.681 -31.3096L242.88 -40.2767L264.401 -55.1364L281.822 -59.748L282.847 -63.3349L258.764 -55.1364L239.805 -45.1445L211.111 -34.384L211.623 -26.9542L188.565 -16.1937L168.837 -9.78864L151.928 -4.92078L141.68 1.74046L114.522 9.68274L102.993 16.8564L81.9847 23.5176L75.0672 22.4929L59.1827 26.5921L41.2485 31.9723L25.6202 37.0964L0 41.708L1.02479 38.8898L22.0334 31.7161L38.9427 26.8483L60.9761 18.3936L77.6293 16.8564L90.4394 10.4514L117.084 1.22807L122.977 -1.84636L137.581 -7.22661L152.44 -18.7557L168.325 -27.7228L149.622 -23.1111L148.853 -25.9293L136.3 -20.2929L137.324 -27.979L128.101 -22.5987L132.2 -30.0286L113.498 -24.1359H106.324L115.803 -33.103L124.258 -38.7395L123.233 -44.1197L104.787 -41.0453L103.249 -48.2189L99.9188 -51.8058L110.167 -60.2605L109.142 -66.6655L124.258 -75.1202L143.986 -83.5748L157.564 -91.0047L168.069 -92.0295L172.68 -89.7237L190.871 -96.8973L197.276 -95.6163L211.623 -100.228L218.028 -106.889L215.21 -109.451L230.582 -115.088L223.408 -114.831L207.524 -111.757L200.094 -108.426L195.482 -111.757L177.804 -109.964L166.019 -113.55L169.093 -119.443L166.531 -127.642L190.102 -133.79L223.921 -140.708H232.888L221.871 -133.534L245.442 -134.047L248.516 -143.014L242.623 -148.394L244.673 -155.568L242.88 -161.46L234.425 -165.816L251.078 -173.246L270.293 -173.758L292.839 -179.907L305.137 -186.568L325.377 -193.229L337.674 -194.767L366.369 -200.915L374.311 -199.891L400.956 -207.064L412.229 -204.246L410.948 -198.097L419.403 -200.659L435.544 -199.891L430.676 -196.816L443.23 -194.51L455.784 -195.791L471.668 -191.692L490.115 -190.155L495.751 -188.618L512.661 -190.667L523.165 -186.568L532.132 -184.775Z" fill="#DBE5F0"/>
<path d="M1216.96 892.299L1220.8 885.126L1222.08 877.696L1224.65 870.778L1219.27 861.042L1218.5 849.77L1226.44 835.678L1231.31 837.472L1241.81 841.315L1256.93 855.15L1258.98 861.811L1250.27 876.927L1245.65 888.969L1240.02 895.374L1233.1 896.398L1231.05 891.787L1227.72 891.274L1223.37 895.63L1216.96 892.299Z" fill="#DBE5F0"/>
<path d="M1000.73 725.768L999.445 725.255L998.164 723.974L998.42 722.437L998.932 723.206L999.957 724.231L1000.73 725.512V725.768Z" fill="#DBE5F0"/>
<path d="M1106.54 630.717H1106.02L1106.79 629.692H1107.56L1107.05 630.461L1106.54 630.717Z" fill="#DBE5F0"/>
<path d="M1123.19 648.651L1124.73 649.42L1124.21 650.189H1123.7L1121.91 650.445L1121.4 650.189V648.908L1122.17 648.651L1122.42 647.883H1122.93L1123.19 648.651Z" fill="#DBE5F0"/>
<path d="M1123.19 639.172H1123.7L1124.21 639.684L1124.47 640.709L1124.21 641.477L1123.7 641.734L1123.45 641.221L1122.68 640.709V639.428L1123.19 639.172Z" fill="#DBE5F0"/>
<path d="M968.7 582.295L967.675 583.576L967.163 584.857L965.626 585.625H964.345L964.088 585.369L963.064 585.881L961.783 586.138L960.245 585.625L959.221 585.881L958.964 584.6L959.733 584.088L960.245 583.319L961.27 582.807L962.039 581.782H963.064L963.832 581.27L964.345 582.038L965.626 582.551L966.907 582.038L968.7 579.476H969.469V579.989L968.7 582.295Z" fill="#DBE5F0"/>
<path d="M969.212 577.939L968.7 576.402L970.237 575.633L971.006 576.402V576.914L970.237 577.171L969.212 577.939Z" fill="#DBE5F0"/>
<path d="M970.237 561.287L970.75 561.03L972.031 561.799H973.055L974.08 562.055L974.849 562.568V563.336L974.336 563.592L973.055 562.568H972.031L971.774 562.311L970.493 562.824L969.212 562.311V562.055L969.725 560.774L970.237 561.287Z" fill="#DBE5F0"/>
<path d="M960.246 556.675L959.733 557.699V559.493L959.477 560.518L958.452 561.286L957.94 562.311L956.915 563.08L955.122 563.848L954.865 564.361L954.353 563.848L954.609 563.336L955.634 563.08L956.146 562.567V562.055L957.171 561.799L957.684 560.774L958.708 560.518L959.477 559.493L958.965 558.724H957.94L957.427 558.212L958.452 556.931L958.708 556.675H960.246Z" fill="#DBE5F0"/>
<path d="M955.378 555.906L955.634 556.162H956.659L957.684 556.675L956.659 557.699L956.403 557.187H955.891L954.866 556.931L953.841 556.418L953.072 554.881L953.841 554.625L954.866 554.881L955.378 555.906Z" fill="#DBE5F0"/>
<path d="M931.807 540.79L933.344 542.584L934.113 543.096L934.881 544.377L934.113 544.121L933.856 543.609L933.088 543.352L932.063 542.328L931.551 542.071L931.038 541.047L931.807 540.79Z" fill="#DBE5F0"/>
<path d="M941.287 540.79L942.055 542.328L942.568 543.609V544.633L943.08 545.146L943.592 546.939V549.245L944.105 550.014L945.386 550.526L946.411 552.063V554.113L945.386 552.319V551.807L944.617 550.782L943.08 550.27L943.592 549.757L942.824 548.989V548.22L943.336 547.452L943.08 546.171L942.311 545.146L942.568 544.89L941.799 543.865L941.543 542.328L941.03 542.584L941.287 540.79Z" fill="#DBE5F0"/>
<path d="M948.716 540.79L947.948 541.302L947.179 541.046L946.923 540.534L948.46 540.021L948.716 540.79Z" fill="#DBE5F0"/>
<path d="M927.708 535.923L927.452 535.666L926.683 533.873H927.196L927.708 535.923Z" fill="#DBE5F0"/>
<path d="M954.609 534.641L953.584 536.179H952.56L953.072 535.41L953.328 533.873L954.353 533.104L954.609 534.129V534.641Z" fill="#DBE5F0"/>
<path d="M907.212 531.567L906.443 531.823L905.931 532.592L905.162 532.336L906.699 531.311L907.212 531.567Z" fill="#DBE5F0"/>
<path d="M907.724 533.36L908.749 533.873L909.261 533.36L909.517 532.079L910.03 531.823L910.542 533.36V534.641L910.286 535.41L910.542 536.947V537.716L909.517 539.766L909.005 540.022L907.98 539.509L908.492 538.741L909.517 538.228L909.261 537.972L907.724 538.997L907.211 538.485L908.236 537.716H907.211L906.699 537.972L906.187 537.46V535.666L906.443 535.154L905.418 533.873V533.36L906.443 532.848L906.699 532.079L907.468 531.823L907.724 531.311L909.261 530.542L909.517 531.567L908.236 532.592L907.724 533.36Z" fill="#DBE5F0"/>
<path d="M942.312 531.823L942.568 533.104L942.055 532.848L940.774 533.104L939.75 533.36L939.493 532.848L940.262 532.335L941.287 531.567V531.054L940.262 530.542L939.75 529.005L939.493 527.467L938.469 526.443V525.93L937.188 524.649L937.956 523.881L938.981 524.905V526.186L939.493 526.955L939.75 528.236L940.518 529.517L941.543 530.286L941.799 531.054L942.312 531.823Z" fill="#DBE5F0"/>
<path d="M915.922 517.732L916.691 518.244L915.154 519.013L914.385 518.757L913.873 519.269L912.592 519.013L913.104 518.244L914.129 517.732H915.922Z" fill="#DBE5F0"/>
<path d="M905.162 516.451L906.187 515.938L906.955 516.707L906.699 517.219L906.955 517.732L906.443 518.757L907.212 519.525L907.724 521.831L908.236 522.6L909.261 523.881L908.749 525.674L909.005 527.211L908.493 527.98L907.724 528.236L906.699 529.261L905.931 529.773H905.162L904.393 530.286H903.625V529.261L902.856 528.749L903.112 527.211L902.344 527.98L901.831 527.724L900.294 526.699L899.526 525.93L899.013 525.162L900.807 524.393L902.088 526.187L902.344 524.649L901.575 524.393L901.319 523.625L901.575 522.856L903.112 521.319L903.625 520.294L903.369 520.038L904.137 519.013V517.732L903.625 515.938L903.881 515.682H904.65L905.162 516.451Z" fill="#DBE5F0"/>
<path d="M925.914 509.79L926.17 510.302L926.939 511.327L928.989 513.12L930.27 513.376L930.526 513.633L931.038 514.657L931.807 515.682L933.088 516.707V517.219L932.576 519.269L932.319 519.781V520.55L932.063 521.831L931.551 522.6L931.294 524.393L931.038 524.649L930.526 523.112L929.501 522.343L929.757 521.831L931.038 522.087L931.551 521.575L931.294 521.062L931.551 520.038L932.319 519.013L932.576 517.732V516.963L931.294 515.938L930.27 514.145L929.501 513.633L927.964 512.864L927.195 512.095L925.658 511.583L924.633 512.095L925.658 509.79H925.914Z" fill="#DBE5F0"/>
<path d="M903.369 490.574L904.65 491.087H904.906L906.699 491.343L907.212 490.83L907.724 491.087H909.005L910.03 490.574H911.055L911.823 490.062L912.079 491.343L911.823 491.855H911.055H910.03L907.212 492.368H906.443L902.6 493.392L900.807 494.417H899.782L899.269 494.161L898.501 493.392L897.22 491.855L898.757 492.624L899.013 493.136H900.294L901.575 492.624L902.6 491.087L901.831 490.83L902.344 490.062L902.6 489.293L903.369 490.574Z" fill="#DBE5F0"/>
<path d="M914.386 487.244L916.435 487.756L916.948 487.5L917.972 488.268L920.278 490.83L920.791 492.368L921.815 492.624L923.609 493.905V494.417L923.096 495.698L923.609 497.492H922.584L921.303 498.517L921.047 499.029L920.278 501.591L920.022 503.897L919.51 504.409L918.741 503.897L918.485 502.872L917.46 502.616L918.229 501.335H918.741L920.022 500.31L919.766 499.285L920.278 498.26V497.492L920.791 496.723V495.186L921.303 494.93L921.815 494.161L922.072 493.392L921.303 493.136L920.022 492.88L919.766 492.111V491.599L918.741 491.087V490.318L917.972 488.525L917.46 488.268L916.691 488.525L915.41 488.268H914.642L913.104 487.244H914.386Z" fill="#DBE5F0"/>
<path d="M1109.1 636.097L1108.84 635.329L1109.61 635.585L1109.1 636.097Z" fill="#DBE5F0"/>
<path d="M1114.48 397.829H1113.71L1113.45 398.085L1113.71 398.598L1112.69 399.11L1112.43 398.854L1112.94 398.598H1113.2L1113.45 397.829L1114.22 397.573L1114.48 397.829Z" fill="#DBE5F0"/>
<path d="M1150.86 715.52L1149.32 715.008L1149.07 713.727V711.677L1149.58 710.652L1150.09 711.165L1150.6 712.702L1151.88 713.471L1152.14 714.495L1150.86 715.52Z" fill="#DBE5F0"/>
<path d="M1016.35 732.173H1015.59L1014.56 731.405L1013.79 731.148L1013.02 730.38L1012.77 729.867L1012 729.611L1011.49 728.586L1010.72 727.818L1010.97 726.537L1012.25 727.305L1012.51 728.586L1013.54 729.611L1015.33 730.124L1015.84 730.892L1016.61 731.917L1016.35 732.173Z" fill="#DBE5F0"/>
<path d="M868.525 606.122L868.782 606.378L870.063 606.122L870.575 605.353L868.525 606.122Z" fill="#DBE5F0"/>
<path d="M867.244 606.122L865.451 606.89L865.963 606.122H867.244Z" fill="#DBE5F0"/>
<path d="M846.492 612.527L847.261 612.783L847.773 611.758L848.798 612.014H850.079L850.335 612.527L849.823 613.039L849.31 612.783L848.285 613.039L847.773 613.295H845.979L846.492 612.527Z" fill="#DBE5F0"/>
<path d="M1126.52 673.759L1127.8 674.015L1128.31 675.296V676.833L1128.06 678.883L1127.8 679.395L1127.29 679.652L1126.27 680.164L1126.52 679.139L1126.27 678.627L1126.01 676.833L1125.24 675.552V674.784L1125.5 674.015V673.247H1126.01L1126.52 673.759Z" fill="#DBE5F0"/>
<path d="M1119.35 732.173L1118.32 732.942L1117.81 732.686L1117.55 731.405L1118.07 730.124L1118.83 729.099H1119.6L1119.86 729.868L1119.6 731.661L1119.35 732.173Z" fill="#DBE5F0"/>
<path d="M1111.92 648.907H1111.15L1110.89 648.395L1111.4 647.37H1111.92L1112.17 647.882L1111.92 648.907Z" fill="#DBE5F0"/>
<path d="M1110.12 645.064L1109.87 645.833H1109.35L1108.33 645.321L1107.82 644.808L1108.59 643.783L1109.87 644.808L1110.12 645.064Z" fill="#DBE5F0"/>
<path d="M1130.88 704.76L1130.36 704.247L1129.34 703.735L1129.08 703.222V701.685L1129.34 701.173L1131.13 698.354L1131.9 698.867V700.66L1131.65 702.71L1131.39 703.735L1130.88 704.76Z" fill="#DBE5F0"/>
<path d="M1106.54 633.535L1105.51 633.279L1106.03 632.51L1106.79 632.254L1106.54 633.535Z" fill="#DBE5F0"/>
<path d="M1116.79 653.775L1117.3 654.8V655.568L1116.79 656.081L1116.27 655.825L1116.02 655.056L1116.79 653.775Z" fill="#DBE5F0"/>
<path d="M1037.11 633.279L1036.34 632.767L1036.59 632.254H1037.36L1037.62 632.51L1037.11 633.279Z" fill="#DBE5F0"/>
<path d="M1074.51 631.998H1074L1071.69 632.766H1070.16L1070.67 632.254L1071.69 631.742L1072.72 631.485L1074.26 631.742L1074.51 631.998Z" fill="#DBE5F0"/>
<path d="M1050.17 625.849L1051.71 626.105H1053.25L1054.02 626.361L1055.55 626.105L1056.32 626.361L1057.35 626.105L1057.86 626.361L1059.14 626.105L1060.16 626.361H1060.93L1062.98 626.874V626.361L1064.52 626.874L1064.78 626.618L1066.83 626.874L1067.34 627.386H1067.85L1069.39 628.155L1069.9 627.899L1069.64 629.692L1070.16 630.461L1067.85 631.229L1067.08 632.254L1066.31 633.791L1065.54 634.304L1064.78 634.56H1063.75L1062.21 634.816L1061.44 635.329L1059.65 635.072L1059.14 634.56L1057.86 635.072L1057.09 634.304L1055.3 634.816L1052.99 634.56L1052.22 634.816L1050.68 635.072L1050.17 635.329L1049.66 634.816L1048.63 634.56L1047.87 635.072L1046.33 634.816L1047.1 633.023V631.998L1047.61 630.973L1047.1 629.436L1046.59 629.18L1046.33 628.155L1047.35 627.642L1047.87 627.386V626.105L1048.89 625.593L1050.17 625.849Z" fill="#DBE5F0"/>
<path d="M1106.54 633.535V633.791L1105.51 633.535V633.279L1106.54 633.535Z" fill="#DBE5F0"/>
<path d="M987.403 571.022H989.197L989.965 572.047H989.197L988.428 571.791L987.147 572.047L986.891 571.278L987.403 571.022Z" fill="#DBE5F0"/>
<path d="M980.485 570.766L981.254 571.791L982.791 571.534L982.279 572.047H980.742L979.717 571.534L980.485 570.766Z" fill="#DBE5F0"/>
<path d="M986.122 569.229V570.51L984.841 569.997L984.585 569.229L984.841 568.972L986.122 569.229Z" fill="#DBE5F0"/>
<path d="M1128.57 751.901L1128.06 753.182L1127.29 754.206L1126.78 754.463L1126.52 755.487L1127.03 757.025L1126.52 757.281V759.074L1127.03 759.843L1127.55 760.355L1127.03 760.868L1126.78 761.636V763.43L1126.26 763.686L1125.24 764.198L1123.96 764.454H1123.19L1121.91 764.711L1120.63 764.454L1119.6 764.711L1118.83 764.454L1117.55 764.967L1116.53 764.454H1114.99L1114.22 764.967L1113.45 764.711L1114.74 764.198L1115.5 763.43L1116.53 763.173L1117.55 762.405L1118.07 761.636L1119.6 761.892L1120.37 760.868L1119.86 758.818L1120.37 757.793V756.512V756L1119.6 754.975L1118.83 754.719L1117.81 754.463L1117.55 754.206L1118.58 753.438L1121.4 753.182L1121.91 752.669H1124.73L1124.98 752.413L1128.06 751.901H1128.57Z" fill="#DBE5F0"/>
<path d="M1134.72 743.702L1134.46 744.983L1133.69 745.239L1132.67 746.008H1132.16L1130.36 747.033L1129.85 746.521L1130.62 745.752L1132.41 744.471L1134.72 743.702Z" fill="#DBE5F0"/>
<path d="M1127.03 713.983L1126.78 714.239L1125.5 713.47V712.445L1126.01 711.677L1126.52 710.396H1127.55L1127.8 711.421L1127.55 713.47L1127.03 713.983Z" fill="#DBE5F0"/>
<path d="M1085.78 626.874L1084.76 627.387H1084.5L1083.73 627.899L1083.48 627.643L1083.73 626.874L1085.27 626.618L1085.78 626.874Z" fill="#DBE5F0"/>
<path d="M1081.69 638.147L1082.45 638.916L1079.64 639.428L1079.38 638.147L1081.17 637.635L1081.69 638.147Z" fill="#DBE5F0"/>
<path d="M1083.48 628.411L1082.97 628.923H1081.69V628.411L1082.45 628.155L1083.48 628.411Z" fill="#DBE5F0"/>
<path d="M1079.89 627.899L1080.92 628.668L1080.4 629.18L1079.64 628.668H1078.35L1078.87 628.155L1079.89 627.899Z" fill="#DBE5F0"/>
<path d="M1024.04 732.429H1023.53L1023.27 731.148L1023.53 730.38L1023.27 729.611L1022.25 729.355L1021.48 728.586L1021.73 727.818L1024.81 729.355L1024.55 729.867V730.892L1024.04 731.405V732.429Z" fill="#DBE5F0"/>
<path d="M1106.79 642.758L1106.28 643.015V642.502L1106.54 642.246L1106.79 642.758Z" fill="#DBE5F0"/>
<path d="M1102.95 640.452H1102.69L1102.95 639.94L1103.21 640.196L1102.95 640.452Z" fill="#DBE5F0"/>
<path d="M1131.65 687.082V687.594L1132.67 687.338L1132.16 688.619L1132.67 689.131V689.644L1133.18 690.156L1133.7 692.462L1132.93 693.23L1132.67 692.206L1132.41 692.462L1130.88 692.206H1129.85L1129.34 691.437L1130.88 690.156H1129.85L1128.83 689.131L1128.57 687.85L1128.06 686.569L1128.83 685.544L1129.85 685.801L1131.13 686.569L1131.65 687.082Z" fill="#DBE5F0"/>
<path d="M1129.08 669.147H1128.31L1127.8 668.123L1128.06 667.61L1128.83 666.842L1129.6 667.354L1129.85 668.123V668.635L1129.08 669.147Z" fill="#DBE5F0"/>
<path d="M1124.47 662.486H1125.24V662.999V663.255L1124.73 663.511V665.561V666.586L1124.22 667.098L1122.68 667.867V667.354L1122.17 666.842L1121.91 665.561V664.28L1121.65 662.999V662.23L1122.17 661.462L1122.93 661.205L1124.22 661.974L1124.47 662.486Z" fill="#DBE5F0"/>
<path d="M1128.06 661.462L1129.08 661.718L1130.36 662.743L1127.03 663.511L1126.27 663.767L1125.24 662.999L1125.5 661.462L1126.01 661.205L1125.75 659.668L1126.01 659.156L1126.78 658.643L1127.55 659.668V660.693L1128.06 661.462Z" fill="#DBE5F0"/>
</svg>
