<svg width="73" height="12" viewBox="0 0 73 12" fill="none" xmlns="http://www.w3.org/2000/svg">
<path fill-rule="evenodd" clip-rule="evenodd" d="M63.1729 4.50008V4.5C63.1729 4.49933 63.1738 4.48547 63.1522 4.45129C63.1285 4.41383 63.0764 4.35109 62.9677 4.26592C62.742 4.08915 62.3427 3.87063 61.711 3.63125C60.4499 3.15341 58.5328 2.69235 56.045 2.29363C51.0921 1.49982 44.1812 1 36.4998 1C28.8184 1 21.9074 1.49982 16.9546 2.29363C14.4668 2.69235 12.5496 3.15341 11.2886 3.63125C10.6569 3.87063 10.2575 4.08915 10.0318 4.26592C9.9231 4.35109 9.8711 4.41383 9.84736 4.45129C9.82629 4.48454 9.82666 4.49856 9.8267 4.49992L9.8267 4.5L9.8267 4.50008C9.82666 4.50144 9.82629 4.51546 9.84736 4.54871C9.8711 4.58617 9.9231 4.64891 10.0318 4.73408C10.2575 4.91085 10.6569 5.12937 11.2886 5.36875C12.5496 5.84659 14.4668 6.30765 16.9546 6.70637C21.9074 7.50018 28.8184 8 36.4998 8C44.1812 8 51.0921 7.50018 56.045 6.70637C58.5328 6.30765 60.4499 5.84659 61.711 5.36875C62.3427 5.12937 62.742 4.91085 62.9677 4.73408C63.0764 4.64891 63.1285 4.58617 63.1522 4.54871C63.1733 4.51546 63.1729 4.50144 63.1729 4.50008ZM36.4998 9C52.0062 9 64.5767 6.98528 64.5767 4.5C64.5767 2.01472 52.0062 0 36.4998 0C20.9933 0 8.42285 2.01472 8.42285 4.5C8.42285 6.98528 20.9933 9 36.4998 9Z" fill="#2E3436" fill-opacity="0.5"/>
<path d="M72.5 6C72.5 6.19289 72.3814 6.4691 71.9453 6.81941C71.5163 7.16406 70.8528 7.51875 69.9505 7.86943C68.151 8.5688 65.5178 9.20852 62.2283 9.74926C55.6573 10.8294 46.5607 11.5 36.5 11.5C26.4393 11.5 17.3427 10.8294 10.7717 9.74926C7.4822 9.20852 4.84898 8.5688 3.04948 7.86943C2.14716 7.51875 1.48372 7.16406 1.05469 6.81941C0.618614 6.4691 0.5 6.19289 0.5 6C0.5 5.80711 0.618614 5.5309 1.05469 5.18059C1.48372 4.83594 2.14716 4.48125 3.04948 4.13057C4.84898 3.4312 7.4822 2.79148 10.7717 2.25074C17.3427 1.17057 26.4393 0.5 36.5 0.5C46.5607 0.5 55.6573 1.17057 62.2283 2.25074C65.5178 2.79148 68.151 3.4312 69.9505 4.13057C70.8528 4.48125 71.5163 4.83594 71.9453 5.18059C72.3814 5.5309 72.5 5.80711 72.5 6Z" stroke="#2E3436" stroke-opacity="0.2"/>
<ellipse cx="36.5005" cy="4" rx="16.8462" ry="2" fill="#2E3436" fill-opacity="0.8"/>
</svg>
