<svg width="30" height="40" viewBox="0 0 30 40" fill="none" xmlns="http://www.w3.org/2000/svg">
<path d="M24.9374 12.5395C24.9374 7.56134 19.8998 4.84569 17.3114 4.84569C16.9132 4.84569 16.5902 4.5359 16.5902 4.15365C16.5902 3.7714 16.9132 3.46158 17.3114 3.46158C19.0593 3.46158 21.2997 4.3696 23.0193 5.77484C25.1863 7.54589 26.3799 9.94825 26.3799 12.5395C26.3799 12.9217 26.0569 13.2315 25.6586 13.2315C25.2601 13.2315 24.9374 12.9217 24.9374 12.5395Z" fill="#3C8BD2"/>
<path fill-rule="evenodd" clip-rule="evenodd" d="M7.77479 14.0435C7.77479 17.888 11.0346 21.0157 15.0415 21.0157C19.0483 21.0157 22.3081 17.8879 22.3081 14.0435C22.3081 10.199 19.0483 7.07129 15.0415 7.07129C11.0346 7.07129 7.77479 10.199 7.77479 14.0435ZM9.21731 14.0435C9.21731 10.9622 11.83 8.4554 15.0415 8.4554C18.2529 8.4554 20.8656 10.9622 20.8656 14.0435C20.8656 17.1248 18.2529 19.6316 15.0415 19.6316C11.83 19.6316 9.21731 17.1248 9.21731 14.0435Z" fill="#3C8BD2"/>
<path fill-rule="evenodd" clip-rule="evenodd" d="M25.3348 24.8234L14.9998 34.7398L4.02708 24.2043C1.43023 21.5317 0 18.0471 0 14.3926C0 6.45645 6.72896 0 15 0C23.271 0 30 6.45645 30 14.3926C30 18.047 28.5698 21.5316 25.9727 24.2043L25.9643 24.2129C25.9464 24.2309 25.5268 24.6478 25.3348 24.8234ZM28.5575 14.3926C28.5575 7.21967 22.4755 1.38413 15 1.38413C7.52425 1.38413 1.4425 7.21967 1.4425 14.3926C1.4425 17.6917 2.73186 20.8374 5.07396 23.2519L15.0001 32.782L24.3344 23.8263C24.4703 23.7026 24.8001 23.3772 24.9219 23.2562C27.2663 20.8412 28.5575 17.6935 28.5575 14.3926Z" fill="#3C8BD2"/>
<path d="M24.0523 30.3554C23.4904 30.1351 22.8853 29.9388 22.2467 29.7655L21.0652 30.8992C24.5475 31.6966 26.6946 33.1181 26.6946 34.4389C26.6946 36.4146 21.8919 38.6159 15 38.6159C8.10824 38.6159 3.30537 36.4146 3.30537 34.4389C3.30537 33.1181 5.45243 31.6966 8.93473 30.8992L7.75314 29.7655C7.11478 29.9388 6.50956 30.1351 5.94789 30.3554C3.31361 31.3884 1.86287 32.8386 1.86287 34.4389C1.86287 36.0392 3.31363 37.4894 5.94789 38.5225C8.37748 39.4753 11.5922 40 15 40C18.4078 40 21.6226 39.4753 24.0522 38.5225C26.6865 37.4894 28.1371 36.0392 28.1371 34.4389C28.1371 32.8386 26.6865 31.3884 24.0523 30.3554Z" fill="#3C8BD2"/>
</svg>
