<svg width="32" height="32" viewBox="0 0 32 32" fill="none" xmlns="http://www.w3.org/2000/svg">
<path d="M1.6 3.99868V7.20815C1.6 20.0169 11.987 30.4005 24.8 30.4005H28C29.3255 30.4005 30.4 29.3264 30.4 28.0013V23.8986C30.4 22.8659 29.739 21.949 28.7589 21.6225L23.6657 19.9253C22.639 19.5832 21.5102 19.9703 20.9099 20.8705L19.7435 22.6195C19.1432 23.5197 18.0144 23.9069 16.9877 23.5647L14.547 22.7515C12.0442 21.9175 10.1239 19.8882 9.42973 17.3438L8.42644 13.6662C8.09129 12.4378 8.77453 11.1615 9.98292 10.7589L10.947 10.4376C11.9556 10.1015 12.5698 9.08184 12.395 8.03348L11.6565 3.60426C11.4637 2.44739 10.4624 1.59947 9.28919 1.59947H4C2.67452 1.59947 1.6 2.67364 1.6 3.99868ZM20.8 10.0653L29.0343 1.83371C29.3467 1.52139 29.8533 1.52139 30.1657 1.83371C30.4781 2.14603 30.4781 2.65239 30.1657 2.96471L21.9314 11.1963H26.4C26.8418 11.1963 27.2 11.5544 27.2 11.9961C27.2 12.4377 26.8418 12.7958 26.4 12.7958H20C19.5582 12.7958 19.2 12.4377 19.2 11.9961V5.59816C19.2 5.15648 19.5582 4.79842 20 4.79842C20.4418 4.79842 20.8 5.15648 20.8 5.59816V10.0653ZM0 3.99868C0 1.79027 1.79086 0 4 0H9.28919C11.2445 0 12.9133 1.41319 13.2348 3.34131L13.9732 7.77052C14.2774 9.59524 13.2085 11.37 11.453 11.955L10.4889 12.2763C10.0861 12.4105 9.85834 12.8359 9.97006 13.2454L10.9734 16.9229C11.5268 18.9514 13.0577 20.5692 15.053 21.2341L17.4936 22.0473C17.8359 22.1614 18.2121 22.0323 18.4122 21.7323L19.5786 19.9833C20.5792 18.483 22.4605 17.8377 24.1717 18.4079L29.2649 20.1051C30.8983 20.6494 32 22.1774 32 23.8986V28.0013C32 30.2097 30.2091 32 28 32H24.8C11.1033 32 0 20.9003 0 7.20815V3.99868Z" fill="#3C8BD2"/>
</svg>
