<svg width="12" height="12" viewBox="0 0 12 12" fill="none" xmlns="http://www.w3.org/2000/svg">
<path d="M8.80893 8.80893C8.55416 9.06369 8.14262 9.06369 7.88786 8.80893L6 6.92107L4.11214 8.80893C3.85738 9.06369 3.44584 9.06369 3.19107 8.80893C2.93631 8.55416 2.93631 8.14262 3.19107 7.88786L5.07893 6L3.19107 4.11214C2.93631 3.85738 2.93631 3.44584 3.19107 3.19107C3.44584 2.93631 3.85738 2.93631 4.11214 3.19107L6 5.07893L7.88786 3.19107C8.14262 2.93631 8.55416 2.93631 8.80893 3.19107C9.06369 3.44584 9.06369 3.85738 8.80893 4.11214L6.92107 6L8.80893 7.88786C9.05716 8.13609 9.05716 8.55416 8.80893 8.80893Z" fill="#A4A4A4"/>
</svg>
